<svg width="186" height="28" viewBox="0 0 186 28" fill="none" xmlns="http://www.w3.org/2000/svg">
<path d="M31.0298 25.9291H0.115723V0.9823H5.71354V21.7593H31.0298V25.9291Z" fill="#CDCDCD"/>
<path d="M31.0293 21.7629H25.4743V15.407H18.6637V21.7629H13.0421V5.14221H18.6637V11.3992H25.4743V5.14221H31.0293V21.7629Z" fill="#CDCDCD"/>
<path d="M42.0219 22.326V6.33948H45.2987V22.326H42.0219ZM44.8469 22.326V19.5911H52.1379V22.326H44.8469Z" fill="black"/>
<path d="M59.091 22.7446C58.0855 22.7643 57.086 22.5929 56.1518 22.2408C55.3432 21.9358 54.6098 21.4764 53.9973 20.8913C53.4195 20.3282 52.9667 19.6614 52.6656 18.9301C52.3579 18.2063 52.1966 17.4342 52.19 16.6541V16.2043C52.1855 15.4056 52.3471 14.6139 52.6656 13.8742C52.9788 13.1388 53.4427 12.4692 54.0306 11.904C54.645 11.3169 55.382 10.8574 56.1946 10.5546C58.0461 9.89473 60.0883 9.89473 61.9399 10.5546C62.7356 10.853 63.4583 11.3022 64.0636 11.8746C64.6688 12.4471 65.1438 13.1306 65.4593 13.8832C65.7736 14.6241 65.9351 15.415 65.9349 16.2133V16.6631C65.9307 17.4435 65.7693 18.2159 65.4593 18.9391C65.1582 19.6704 64.7054 20.3372 64.1276 20.9003C63.516 21.4843 62.7844 21.9435 61.9779 22.2498C61.0595 22.5931 60.0784 22.7613 59.091 22.7446ZM59.091 20.1357C59.7915 20.1584 60.4838 19.9881 61.0838 19.6454C61.6215 19.3165 62.0475 18.848 62.3108 18.2959C62.5957 17.6936 62.7369 17.0394 62.7246 16.3797C62.7382 15.7112 62.5919 15.0484 62.2966 14.441C62.0268 13.8859 61.5922 13.4171 61.0457 13.0915C60.4503 12.7701 59.7766 12.601 59.091 12.601C58.4054 12.601 57.7317 12.7701 57.1363 13.0915C56.5882 13.4192 56.1495 13.8871 55.8712 14.441C55.5703 15.047 55.4206 15.7103 55.4336 16.3797C55.4213 17.0408 55.5676 17.696 55.8617 18.2959C56.1307 18.8472 56.5595 19.3151 57.0982 19.6454C57.6982 19.9881 58.3905 20.1584 59.091 20.1357Z" fill="black"/>
<path d="M72.2834 27.0123C71.6842 27.0123 71.0707 27.0123 70.4429 26.9493C69.8151 26.8863 69.2348 26.8459 68.6974 26.7739V24.2324C69.2491 24.2909 69.8436 24.3449 70.4762 24.3944C71.1087 24.4438 71.708 24.4753 72.2597 24.4753C73.1138 24.5018 73.9659 24.383 74.7756 24.1245C75.3778 23.9305 75.8871 23.5397 76.2119 23.0224C76.5423 22.4331 76.7061 21.773 76.6875 21.1062V18.7582L77.3819 17.2693C77.3682 18.2382 77.1226 19.1917 76.6637 20.0581C76.2669 20.7902 75.6561 21.3991 74.904 21.8124C74.1175 22.2244 73.2299 22.4323 72.331 22.4152C71.5226 22.4289 70.7207 22.2754 69.9815 21.9653C69.274 21.6675 68.6416 21.2305 68.1267 20.6834C67.6149 20.1235 67.2181 19.4782 66.9567 18.7806C66.6771 18.0278 66.5371 17.235 66.5429 16.4371V15.9873C66.5363 15.1926 66.6813 14.4033 66.971 13.6572C67.2411 12.9574 67.6531 12.3141 68.1838 11.7635C68.7081 11.2243 69.3488 10.7979 70.0624 10.513C70.8238 10.2096 71.6427 10.0565 72.4689 10.0632C73.4118 10.0408 74.3436 10.26 75.1656 10.6974C75.9414 11.1321 76.5662 11.7715 76.9634 12.5372C77.4255 13.4617 77.6704 14.4699 77.6815 15.4925L77.1251 15.5824V10.4276H79.6695V20.9263C79.7243 22.1382 79.4544 23.3435 78.8848 24.4303C78.345 25.3316 77.4885 26.0255 76.464 26.3915C75.124 26.8449 73.7058 27.0554 72.2834 27.0123ZM73.2109 19.8152C73.7996 19.8219 74.3805 19.6873 74.8992 19.4239C75.4112 19.1585 75.8358 18.7647 76.1263 18.2858C76.453 17.7375 76.6173 17.1159 76.6019 16.4866V15.7219C76.6192 15.1209 76.4541 14.5277 76.1263 14.0126C75.8239 13.5589 75.3964 13.1918 74.8897 12.951C74.3704 12.7101 73.7988 12.5869 73.2204 12.5912C72.5897 12.5774 71.9679 12.7334 71.4274 13.041C70.9036 13.3433 70.4813 13.78 70.2098 14.3005C69.9021 14.8995 69.752 15.56 69.7723 16.2257C69.7542 16.8854 69.9042 17.5396 70.2098 18.1329C70.4818 18.6495 70.9042 19.0818 71.4274 19.3789C71.9692 19.6732 72.5862 19.821 73.2109 19.8062V19.8152Z" fill="black"/>
<path d="M80.6448 12.713V10.428H85.6243V12.704L80.6448 12.713ZM83.584 9.01105C83.3287 9.03164 83.0718 9.00012 82.8306 8.91864C82.5893 8.83715 82.3694 8.7076 82.1857 8.53874C81.8772 8.21198 81.7151 7.78449 81.7339 7.34673C81.7141 6.91153 81.8764 6.48647 82.1857 6.16371C82.3727 6.00055 82.5937 5.87623 82.8345 5.79876C83.0753 5.72129 83.3306 5.69238 83.584 5.7139C83.836 5.69138 84.0901 5.71985 84.3296 5.79741C84.569 5.87496 84.7883 5.99983 84.9727 6.16371C85.2751 6.48982 85.4335 6.91334 85.415 7.34673C85.4325 7.7827 85.2744 8.20871 84.9727 8.53874C84.7914 8.70812 84.5732 8.83811 84.3334 8.91968C84.0936 9.00124 83.8378 9.03242 83.584 9.01105ZM82.395 22.3256V10.428H85.6148V22.3256H82.395Z" fill="black"/>
<path d="M92.5012 22.699C90.7701 22.699 89.4146 22.3526 88.4349 21.6599C87.9572 21.3281 87.5688 20.8946 87.3011 20.3945C87.0334 19.8943 86.8939 19.3416 86.8939 18.7811H89.7903C89.8256 19.0028 89.9073 19.2157 90.0306 19.4073C90.1539 19.5988 90.3164 19.7652 90.5085 19.8966C91.1068 20.2784 91.8247 20.456 92.5441 20.4004C93.1859 20.4312 93.8244 20.2943 94.3894 20.0046C94.5953 19.9019 94.7676 19.7478 94.8875 19.5591C95.0073 19.3704 95.0703 19.1542 95.0695 18.934C95.0744 18.748 95.0295 18.5638 94.9388 18.3986C94.8482 18.2334 94.7148 18.0927 94.5511 17.9894C94.0075 17.7047 93.3984 17.5503 92.7771 17.5396L91.6642 17.4316C90.4866 17.3617 89.3582 16.959 88.4253 16.2756C88.0522 15.9739 87.7561 15.5962 87.5593 15.1709C87.3624 14.7455 87.2699 14.2836 87.2887 13.8196C87.2663 13.0901 87.4949 12.3735 87.9402 11.7774C88.3955 11.2015 89.0187 10.7637 89.7332 10.518C90.5717 10.2113 91.4644 10.0586 92.3633 10.0681C93.6884 10.0097 94.9993 10.3464 96.1111 11.0308C96.5874 11.353 96.9734 11.7804 97.2353 12.2759C97.4972 12.7713 97.6272 13.3198 97.614 13.8736H94.7175C94.6982 13.6639 94.6303 13.4609 94.5185 13.279C94.4066 13.097 94.2538 12.9407 94.0707 12.821C93.56 12.4949 92.95 12.3368 92.3348 12.3712C91.7819 12.3395 91.2322 12.4699 90.7605 12.7446C90.5889 12.847 90.4478 12.9892 90.3504 13.1576C90.253 13.3261 90.2027 13.5152 90.2041 13.7072C90.1952 13.8775 90.2319 14.0473 90.3109 14.2006C90.3899 14.354 90.5086 14.486 90.6559 14.5843C91.1034 14.8322 91.6076 14.9741 92.1255 14.9981L93.2384 15.1106C94.494 15.1772 95.7035 15.5814 96.7246 16.2756C97.1341 16.5724 97.4627 16.9575 97.6827 17.3989C97.9028 17.8402 98.0081 18.3249 97.9897 18.8126C98.0073 19.5491 97.7665 20.2704 97.3048 20.8637C96.8121 21.4687 96.1544 21.9352 95.4024 22.2132C94.4785 22.5537 93.4926 22.7188 92.5012 22.699Z" fill="black"/>
<path d="M97.6422 12.6777V10.4286H106.531V12.6777H97.6422ZM104.748 22.4792C103.777 22.5076 102.809 22.3642 101.894 22.0563C101.165 21.7851 100.568 21.2695 100.215 20.6079C99.8042 19.7458 99.6135 18.8043 99.6588 17.8596V7.06396H102.669L102.641 18.0755C102.616 18.3176 102.648 18.5621 102.734 18.7912C102.821 19.0203 102.96 19.2283 103.142 19.4004C103.324 19.5725 103.544 19.7043 103.786 19.7863C104.029 19.8683 104.287 19.8985 104.543 19.8747H106.512V22.4792H104.748Z" fill="black"/>
<path d="M106.692 12.7127V10.4276H111.672V12.7037L106.692 12.7127ZM109.636 9.01071C109.38 9.03107 109.123 8.99946 108.881 8.91801C108.639 8.83655 108.418 8.70713 108.233 8.53841C107.918 8.21413 107.747 7.78693 107.758 7.34639C107.747 6.90845 107.917 6.48387 108.233 6.16338C108.421 6.0001 108.643 5.87574 108.884 5.79828C109.126 5.72082 109.382 5.69196 109.636 5.71356C109.888 5.69163 110.142 5.72037 110.382 5.79789C110.621 5.87542 110.84 5.99998 111.025 6.16338C111.324 6.4911 111.48 6.91388 111.463 7.34639C111.479 7.7815 111.323 8.2068 111.025 8.53841C110.843 8.70753 110.625 8.83736 110.385 8.91891C110.146 9.00045 109.89 9.03178 109.636 9.01071ZM108.452 22.3253V10.4276H111.672V22.3253H108.452Z" fill="black"/>
<path d="M119.567 22.7437C118.587 22.7693 117.612 22.5895 116.714 22.2175C115.956 21.8879 115.282 21.4094 114.735 20.814C114.206 20.2368 113.8 19.5676 113.541 18.8438C113.281 18.1197 113.149 17.3597 113.151 16.5947V16.1764C113.148 15.3897 113.285 14.6081 113.556 13.8644C113.821 13.1386 114.235 12.4692 114.773 11.8942C115.33 11.3052 116.012 10.8346 116.776 10.5132C117.683 10.16 118.658 9.98584 119.639 10.0013C120.62 10.0168 121.588 10.2216 122.483 10.6032C123.317 10.9791 124.032 11.5562 124.556 12.2765C125.08 13.0204 125.379 13.885 125.422 14.7775H122.297C122.233 14.1874 121.94 13.6408 121.474 13.2436C120.938 12.8114 120.247 12.5908 119.544 12.6274C118.913 12.6113 118.293 12.7863 117.774 13.1267C117.29 13.4673 116.924 13.9373 116.723 14.4761C116.48 15.0961 116.363 15.7537 116.376 16.4148C116.366 17.0642 116.479 17.7101 116.709 18.322C116.904 18.8609 117.267 19.3313 117.75 19.6715C118.287 20.0093 118.923 20.1778 119.567 20.1528C120.06 20.1647 120.549 20.066 120.994 19.8649C121.38 19.6874 121.708 19.4156 121.945 19.0777C122.188 18.737 122.343 18.3472 122.397 17.9397H125.527C125.485 18.8449 125.175 19.7209 124.632 20.4677C124.094 21.1764 123.376 21.7456 122.545 22.123C121.616 22.5449 120.597 22.7574 119.567 22.7437Z" fill="black"/>
<path d="M131.287 22.699C129.555 22.699 128.205 22.3526 127.22 21.6599C126.743 21.3284 126.354 20.8948 126.087 20.3945C125.821 19.8943 125.682 19.3415 125.684 18.7811H128.576C128.611 19.0028 128.693 19.2157 128.816 19.4073C128.939 19.5988 129.102 19.7652 129.294 19.8966C129.894 20.2787 130.613 20.4564 131.334 20.4004C131.974 20.4306 132.611 20.2937 133.175 20.0046C133.381 19.9019 133.553 19.7478 133.673 19.5591C133.793 19.3704 133.856 19.1542 133.855 18.934C133.86 18.748 133.815 18.5638 133.724 18.3986C133.634 18.2334 133.5 18.0927 133.336 17.9894C132.793 17.7035 132.184 17.549 131.562 17.5396L130.454 17.4316C129.275 17.3626 128.145 16.9598 127.211 16.2756C126.838 15.9739 126.541 15.5962 126.345 15.1709C126.148 14.7455 126.055 14.2836 126.074 13.8196C126.052 13.0901 126.28 12.3735 126.726 11.7774C127.182 11.2026 127.805 10.7651 128.519 10.518C129.357 10.2113 130.25 10.0586 131.149 10.0681C132.474 10.0097 133.785 10.3464 134.896 11.0308C135.371 11.3508 135.756 11.7751 136.019 12.2672C136.281 12.7593 136.414 13.3044 136.404 13.8556H133.508C133.488 13.646 133.42 13.4429 133.309 13.261C133.197 13.079 133.044 12.9227 132.861 12.803C132.35 12.4763 131.74 12.3181 131.125 12.3532C130.572 12.3221 130.022 12.4524 129.551 12.7266C129.376 12.8329 129.233 12.9805 129.138 13.1549C129.042 13.3292 128.995 13.5243 129.004 13.7207C128.996 13.8908 129.033 14.0602 129.112 14.2133C129.191 14.3664 129.309 14.4986 129.455 14.5978C129.903 14.8457 130.407 14.9876 130.925 15.0116L132.038 15.1241C133.289 15.1894 134.494 15.5886 135.515 16.2756C135.923 16.5734 136.25 16.9588 136.469 17.4C136.688 17.8412 136.793 18.3254 136.775 18.8126C136.793 19.5491 136.552 20.2704 136.09 20.8637C135.598 21.4692 134.94 21.9358 134.188 22.2132C133.264 22.5535 132.278 22.7185 131.287 22.699Z" fill="black"/>
<path d="M141.917 22.326V6.33948H145.204V22.326H141.917ZM144.604 15.6912V12.9563H153.608V15.6912H144.604ZM153.008 22.326V6.33948H156.295V22.326H153.008Z" fill="black"/>
<path d="M163.103 22.6993C162.469 22.7349 161.835 22.6316 161.25 22.3975C160.666 22.1635 160.146 21.805 159.731 21.3499C158.939 20.4503 158.542 19.1008 158.542 17.3015V10.4283H161.757V17.5759C161.724 18.2147 161.958 18.8402 162.409 19.3167C162.637 19.5362 162.912 19.7074 163.215 19.8191C163.519 19.9308 163.844 19.9803 164.169 19.9645C164.504 19.9749 164.839 19.92 165.152 19.8032C165.464 19.6864 165.748 19.5101 165.985 19.2852C166.227 19.0388 166.414 18.7489 166.535 18.4329C166.656 18.1169 166.708 17.7811 166.689 17.4455V10.4283H169.904V22.326H167.36V17.2701H167.612C167.645 18.289 167.484 19.3053 167.136 20.2703C166.861 20.9999 166.35 21.6293 165.676 22.0696C164.951 22.5054 164.104 22.7248 163.246 22.6993H163.103Z" fill="black"/>
<path d="M179.612 22.7218C178.66 22.7415 177.719 22.526 176.882 22.0965C176.087 21.675 175.441 21.0394 175.028 20.2703C174.554 19.3631 174.3 18.3672 174.286 17.3555H174.761V22.326H172.212V6.33948H175.432V14.3327L174.576 15.5832C174.594 14.5193 174.859 13.4722 175.351 12.5155C175.758 11.7428 176.398 11.1023 177.192 10.6757C177.992 10.2593 178.894 10.0484 179.807 10.064C180.625 10.0493 181.436 10.2028 182.185 10.5138C182.884 10.8126 183.507 11.2498 184.012 11.7958C184.528 12.3573 184.926 13.008 185.182 13.712C185.459 14.4807 185.596 15.2884 185.586 16.1005V16.5503C185.595 17.3749 185.455 18.1949 185.172 18.9748C184.908 19.6966 184.498 20.3628 183.964 20.936C183.439 21.4996 182.789 21.9479 182.062 22.2495C181.29 22.5701 180.455 22.7311 179.612 22.7218ZM178.894 20.1578C179.538 20.1727 180.172 20.0017 180.711 19.6675C181.238 19.3293 181.658 18.8632 181.929 18.3181C182.235 17.7024 182.386 17.0281 182.371 16.3479C182.389 15.6674 182.238 14.9924 181.929 14.3777C181.659 13.8377 181.228 13.3842 180.688 13.0733C180.149 12.7623 179.525 12.6075 178.894 12.6279C178.287 12.6223 177.688 12.7566 177.149 13.0193C176.612 13.287 176.163 13.6883 175.85 14.1798C175.505 14.7367 175.332 15.3741 175.351 16.0195V16.9192C175.331 17.5375 175.509 18.1471 175.86 18.6689C176.191 19.1441 176.646 19.53 177.182 19.789C177.713 20.0398 178.301 20.1663 178.894 20.1578Z" fill="black"/>
</svg>
