<svg width="151" height="30" viewBox="0 0 151 30" fill="none" xmlns="http://www.w3.org/2000/svg">
<path d="M10.8027 28.8953C7.29634 28.8953 4.40572 26.4864 2.81811 24.1279C-0.647053 18.9762 -0.337407 11.633 3.55554 6.66648C6.68779 2.67623 11.9061 0.32034 17.2166 0.510724C23.5626 0.742837 26.6313 4.01588 27.4439 5.91363C28.1357 7.52886 27.9495 9.39793 26.9705 10.6741C26.2465 11.6182 25.0858 12.2885 23.7013 12.5614C22.2748 12.8422 20.6013 12.5666 18.9823 12.3006C15.3865 11.7086 13.5949 11.6443 12.6999 13.6046C11.7415 15.7076 13.4893 17.2506 16.0649 19.1997C16.3942 19.45 16.7128 19.6908 17.0036 19.9238C17.503 20.3237 18.0003 20.7256 18.4955 21.1296L18.8132 21.3904C19.2544 20.8844 19.6813 20.3794 20.092 19.8934C20.8867 18.9519 21.6385 18.0678 22.3464 17.3332C22.622 17.0498 22.9012 16.7542 23.184 16.4526C25.3748 14.1297 28.099 11.2366 31.9472 11.2366H31.9848C33.7934 11.2453 35.4508 12.0129 36.4165 13.2899C38.1786 15.6198 37.6031 18.6346 34.7063 22.2519C34.487 22.5257 34.2489 22.8387 33.9903 23.1743C32.2962 25.3972 29.9757 28.4398 27.1164 28.7102C25.8778 28.8249 24.5604 28.4024 23.099 27.4114C22.2801 26.8559 21.6671 26.3552 21.0783 25.8709C20.7525 25.6041 20.4455 25.3493 20.1144 25.1007C19.7565 24.8286 19.3985 24.5504 19.0459 24.2714C16.8443 26.5847 14.3153 28.6224 11.4524 28.8658C11.2367 28.8867 11.0175 28.8953 10.8027 28.8953ZM16.6314 2.57626C12.2462 2.57626 7.82972 4.64093 5.25591 7.9244C1.89186 12.2146 1.6198 18.5511 4.60708 22.9917C5.95395 24.9912 8.41143 27.0428 11.2671 26.8003C13.4087 26.6177 15.5011 24.9277 17.3983 22.9465L17.1236 22.7231C16.6322 22.3241 16.1391 21.9242 15.646 21.5286C15.3677 21.3069 15.0652 21.0774 14.7511 20.8392C12.4762 19.1162 9.03877 16.5126 10.7472 12.7657C12.4127 9.11453 16.2537 9.74653 19.3385 10.2534C20.8295 10.4994 22.239 10.7315 23.2762 10.5272C24.1443 10.3533 24.8477 9.96821 25.2567 9.43444C25.7936 8.73289 25.8831 7.66361 25.4715 6.71081C24.3797 4.1628 20.4518 2.70666 17.1361 2.58582C16.9643 2.57974 16.7996 2.57626 16.6314 2.57626ZM20.4599 22.7126C20.7832 22.9682 21.1075 23.2198 21.4327 23.4672C21.7951 23.7428 22.1325 24.0193 22.4582 24.2861C23.0122 24.7408 23.585 25.2094 24.3242 25.711C25.3507 26.4064 26.2035 26.7168 26.9114 26.6455C28.8248 26.4647 30.901 23.7419 32.2747 21.9407C32.5432 21.5929 32.7911 21.2643 33.0193 20.9792C35.2897 18.1443 35.8374 16.0327 34.6946 14.5209C34.1353 13.782 33.0936 13.3195 31.974 13.3143H31.9472C29.0396 13.3143 26.8649 15.6215 24.76 17.8539C24.47 18.1626 24.1837 18.4625 23.9018 18.7563C23.244 19.4344 22.5146 20.2968 21.7432 21.2096C21.3306 21.6981 20.902 22.2041 20.4599 22.7126Z" fill="url(#paint0_linear_106_284)"/>
<path d="M65.8283 11.7216H63.1693C63.067 11.1534 62.8766 10.6534 62.5982 10.2216C62.3198 9.78977 61.9789 9.4233 61.5755 9.12216C61.1721 8.82102 60.7204 8.59375 60.2204 8.44034C59.7261 8.28693 59.2005 8.21023 58.6437 8.21023C57.638 8.21023 56.7374 8.46307 55.942 8.96875C55.1522 9.47443 54.5272 10.2159 54.067 11.1932C53.6124 12.1705 53.3852 13.3636 53.3852 14.7727C53.3852 16.1932 53.6124 17.392 54.067 18.3693C54.5272 19.3466 55.1551 20.0852 55.9505 20.5852C56.746 21.0852 57.6408 21.3352 58.6352 21.3352C59.1863 21.3352 59.709 21.2614 60.2033 21.1136C60.7033 20.9602 61.1551 20.7358 61.5585 20.4403C61.9619 20.1449 62.3028 19.7841 62.5812 19.358C62.8653 18.9261 63.0613 18.4318 63.1693 17.875L65.8283 17.8835C65.6863 18.7415 65.4107 19.5312 65.0016 20.2528C64.5982 20.9688 64.0783 21.5881 63.442 22.1108C62.8113 22.6278 62.0897 23.0284 61.2772 23.3125C60.4647 23.5966 59.5783 23.7386 58.6181 23.7386C57.1068 23.7386 55.7602 23.3807 54.5783 22.6648C53.3965 21.9432 52.4647 20.9119 51.7829 19.571C51.1068 18.2301 50.7687 16.6307 50.7687 14.7727C50.7687 12.9091 51.1096 11.3097 51.7914 9.97443C52.4732 8.63352 53.4051 7.60511 54.5869 6.8892C55.7687 6.16761 57.1124 5.80682 58.6181 5.80682C59.5443 5.80682 60.4079 5.94034 61.209 6.20739C62.0158 6.46875 62.7403 6.85511 63.3823 7.36648C64.0244 7.87216 64.5556 8.49148 64.9761 9.22443C65.3965 9.9517 65.6806 10.7841 65.8283 11.7216ZM71.3234 6.04545V23.5H68.7751V6.04545H71.3234ZM80.3937 23.7642C79.1039 23.7642 77.9931 23.4886 77.0613 22.9375C76.1352 22.3807 75.4193 21.5994 74.9136 20.5938C74.4136 19.5824 74.1636 18.3977 74.1636 17.0398C74.1636 15.6989 74.4136 14.517 74.9136 13.4943C75.4193 12.4716 76.1238 11.6733 77.0272 11.0994C77.9363 10.5256 78.9988 10.2386 80.2147 10.2386C80.9533 10.2386 81.6693 10.3608 82.3624 10.6051C83.0556 10.8494 83.6778 11.233 84.2289 11.7557C84.7801 12.2784 85.2147 12.9574 85.5329 13.7926C85.8511 14.6222 86.0102 15.6307 86.0102 16.8182V17.7216H75.6039V15.8125H83.513C83.513 15.142 83.3766 14.5483 83.1039 14.0312C82.8312 13.5085 82.4477 13.0966 81.9533 12.7955C81.4647 12.4943 80.8908 12.3438 80.2318 12.3438C79.5158 12.3438 78.8908 12.5199 78.3568 12.8722C77.8283 13.2187 77.4193 13.6733 77.1295 14.2358C76.8454 14.7926 76.7033 15.3977 76.7033 16.0511V17.5426C76.7033 18.4176 76.8568 19.1619 77.1636 19.7756C77.4761 20.3892 77.9107 20.858 78.4676 21.1818C79.0244 21.5 79.6749 21.6591 80.4193 21.6591C80.9022 21.6591 81.3426 21.5909 81.7403 21.4545C82.138 21.3125 82.4818 21.1023 82.7715 20.8239C83.0613 20.5455 83.2829 20.2017 83.4363 19.7926L85.8482 20.2273C85.6551 20.9375 85.3085 21.5597 84.8085 22.0938C84.3141 22.6222 83.692 23.0341 82.942 23.3295C82.1977 23.6193 81.3482 23.7642 80.3937 23.7642ZM92.6472 23.7898C91.8177 23.7898 91.0677 23.6364 90.3972 23.3295C89.7268 23.017 89.1955 22.5653 88.8035 21.9744C88.4171 21.3835 88.2239 20.6591 88.2239 19.8011C88.2239 19.0625 88.366 18.4545 88.6501 17.9773C88.9342 17.5 89.3177 17.1222 89.8006 16.8438C90.2836 16.5653 90.8234 16.3551 91.42 16.2131C92.0166 16.071 92.6245 15.9631 93.2438 15.8892C94.0279 15.7983 94.6643 15.7244 95.1529 15.6676C95.6416 15.6051 95.9967 15.5057 96.2183 15.3693C96.4399 15.233 96.5506 15.0114 96.5506 14.7045V14.6449C96.5506 13.9006 96.3404 13.3239 95.92 12.9148C95.5052 12.5057 94.8859 12.3011 94.062 12.3011C93.2041 12.3011 92.5279 12.4915 92.0336 12.8722C91.545 13.2472 91.2069 13.6648 91.0194 14.125L88.6245 13.5795C88.9086 12.7841 89.3234 12.142 89.8688 11.6534C90.42 11.1591 91.0535 10.8011 91.7694 10.5795C92.4853 10.3523 93.2381 10.2386 94.0279 10.2386C94.5506 10.2386 95.1046 10.3011 95.6899 10.4261C96.2808 10.5455 96.8319 10.767 97.3433 11.0909C97.8603 11.4148 98.2836 11.8778 98.6131 12.4801C98.9427 13.0767 99.1075 13.8523 99.1075 14.8068V23.5H96.6188V21.7102H96.5166C96.3518 22.0398 96.1046 22.3636 95.7751 22.6818C95.4455 23 95.0222 23.2642 94.5052 23.4744C93.9881 23.6847 93.3688 23.7898 92.6472 23.7898ZM93.2012 21.7443C93.9058 21.7443 94.508 21.6051 95.008 21.3267C95.5137 21.0483 95.8972 20.6847 96.1586 20.2358C96.4256 19.7812 96.5592 19.2955 96.5592 18.7784V17.0909C96.4683 17.1818 96.2921 17.267 96.0308 17.3466C95.7751 17.4205 95.4825 17.4858 95.1529 17.5426C94.8234 17.5937 94.5024 17.642 94.1899 17.6875C93.8774 17.7273 93.616 17.7614 93.4058 17.7898C92.9114 17.8523 92.4597 17.9574 92.0506 18.1051C91.6472 18.2528 91.3234 18.4659 91.0791 18.7443C90.8404 19.017 90.7211 19.3807 90.7211 19.8352C90.7211 20.4659 90.9541 20.9432 91.42 21.267C91.8859 21.5852 92.4796 21.7443 93.2012 21.7443ZM102.502 23.5V10.4091H104.965V12.4886H105.101C105.34 11.7841 105.76 11.2301 106.362 10.8267C106.97 10.4176 107.658 10.2131 108.425 10.2131C108.584 10.2131 108.772 10.2187 108.987 10.2301C109.209 10.2415 109.382 10.2557 109.507 10.2727V12.7102C109.405 12.6818 109.223 12.6506 108.962 12.6165C108.701 12.5767 108.439 12.5568 108.178 12.5568C107.576 12.5568 107.039 12.6847 106.567 12.9403C106.101 13.1903 105.732 13.5398 105.459 13.9886C105.186 14.4318 105.05 14.9375 105.05 15.5057V23.5H102.502ZM114.261 6.04545V23.5H111.713V6.04545H114.261ZM117.689 23.5V10.4091H120.237V23.5H117.689ZM118.976 8.3892C118.533 8.3892 118.152 8.24148 117.834 7.94602C117.522 7.64489 117.365 7.28693 117.365 6.87216C117.365 6.4517 117.522 6.09375 117.834 5.79829C118.152 5.49716 118.533 5.34659 118.976 5.34659C119.419 5.34659 119.797 5.49716 120.11 5.79829C120.428 6.09375 120.587 6.4517 120.587 6.87216C120.587 7.28693 120.428 7.64489 120.11 7.94602C119.797 8.24148 119.419 8.3892 118.976 8.3892ZM126.214 15.7273V23.5H123.666V10.4091H126.112V12.5398H126.274C126.575 11.8466 127.046 11.2898 127.688 10.8693C128.336 10.4489 129.152 10.2386 130.134 10.2386C131.027 10.2386 131.808 10.4261 132.478 10.8011C133.149 11.1705 133.669 11.7216 134.038 12.4545C134.407 13.1875 134.592 14.0937 134.592 15.1733V23.5H132.044V15.4801C132.044 14.5312 131.796 13.7898 131.302 13.2557C130.808 12.7159 130.129 12.446 129.265 12.446C128.674 12.446 128.149 12.5739 127.688 12.8295C127.234 13.0852 126.873 13.4602 126.606 13.9545C126.345 14.4432 126.214 15.0341 126.214 15.7273ZM143.652 23.7642C142.362 23.7642 141.251 23.4886 140.319 22.9375C139.393 22.3807 138.677 21.5994 138.171 20.5938C137.671 19.5824 137.421 18.3977 137.421 17.0398C137.421 15.6989 137.671 14.517 138.171 13.4943C138.677 12.4716 139.382 11.6733 140.285 11.0994C141.194 10.5256 142.257 10.2386 143.473 10.2386C144.211 10.2386 144.927 10.3608 145.62 10.6051C146.313 10.8494 146.936 11.233 147.487 11.7557C148.038 12.2784 148.473 12.9574 148.791 13.7926C149.109 14.6222 149.268 15.6307 149.268 16.8182V17.7216H138.862V15.8125H146.771C146.771 15.142 146.634 14.5483 146.362 14.0312C146.089 13.5085 145.705 13.0966 145.211 12.7955C144.723 12.4943 144.149 12.3438 143.49 12.3438C142.774 12.3438 142.149 12.5199 141.615 12.8722C141.086 13.2187 140.677 13.6733 140.387 14.2358C140.103 14.7926 139.961 15.3977 139.961 16.0511V17.5426C139.961 18.4176 140.115 19.1619 140.421 19.7756C140.734 20.3892 141.169 20.858 141.725 21.1818C142.282 21.5 142.933 21.6591 143.677 21.6591C144.16 21.6591 144.6 21.5909 144.998 21.4545C145.396 21.3125 145.74 21.1023 146.029 20.8239C146.319 20.5455 146.541 20.2017 146.694 19.7926L149.106 20.2273C148.913 20.9375 148.566 21.5597 148.066 22.0938C147.572 22.6222 146.95 23.0341 146.2 23.3295C145.455 23.6193 144.606 23.7642 143.652 23.7642Z" fill="#181818"/>
<defs>
<linearGradient id="paint0_linear_106_284" x1="-7.7519" y1="1.65998" x2="23.5299" y2="20.8776" gradientUnits="userSpaceOnUse">
<stop offset="0.02" stop-color="#C0C5C8"/>
<stop offset="1" stop-color="#6F767E"/>
</linearGradient>
</defs>
</svg>
