<?xml version="1.0" encoding="UTF-8"?>
<svg version="1.1" xmlns="http://www.w3.org/2000/svg" width="294" height="121">
<path d="M0 0 C6.93 0 13.86 0 21 0 C22.15500945 8.08506616 22.15500945 8.08506616 22.1875 11.75 C22.20167969 12.48734375 22.21585938 13.2246875 22.23046875 13.984375 C22 16 22 16 20 19 C17.90625 19.328125 17.90625 19.328125 15.5 19.25 C14.7059375 19.23453125 13.911875 19.2190625 13.09375 19.203125 C11 19 11 19 9 18 C8.34 21.3 7.68 24.6 7 28 C13.93 28.495 13.93 28.495 21 29 C22.1428342 32.4285026 22.08185906 34.96824972 22.02172852 38.58276367 C22.01212097 39.24644455 22.00251343 39.91012543 21.99261475 40.59391785 C21.95966059 42.78537729 21.91931483 44.97663514 21.87890625 47.16796875 C21.85460162 48.68825064 21.83075823 50.20853998 21.80735779 51.72883606 C21.74455095 55.72871376 21.67547471 59.72845965 21.60510254 63.72821045 C21.53438836 67.8102824 21.46958986 71.89244775 21.40429688 75.97460938 C21.27532834 83.98317837 21.1391914 91.99160215 21 100 C14.4 100 7.8 100 1 100 C0.01 96.535 0.01 96.535 -1 93 C-1.51949219 93.40992187 -2.03898437 93.81984375 -2.57421875 94.2421875 C-3.27160156 94.78101562 -3.96898438 95.31984375 -4.6875 95.875 C-5.37199219 96.40867187 -6.05648437 96.94234375 -6.76171875 97.4921875 C-13.39570189 101.96115345 -20.24161137 101.67758853 -28 101 C-37.86737106 98.6531658 -44.02152157 92.87891817 -49.640625 84.734375 C-50.94914914 82.1022862 -51.76020601 79.6437414 -52.58496094 76.82910156 C-52.98421783 75.47392426 -52.98421783 75.47392426 -53.39154053 74.09136963 C-53.59233215 73.40121765 -53.79312378 72.71106567 -54 72 C-54.54679413 72.00222061 -55.09358826 72.00444122 -55.6569519 72.00672913 C-61.33428292 72.02880686 -67.0116018 72.04391705 -72.68896484 72.05493164 C-74.80941259 72.05996872 -76.92985685 72.06679859 -79.05029297 72.07543945 C-82.09343322 72.08753234 -85.13652766 72.09323447 -88.1796875 72.09765625 C-89.13181122 72.10281754 -90.08393494 72.10797882 -91.06491089 72.11329651 C-91.94567291 72.11337204 -92.82643494 72.11344757 -93.73388672 72.11352539 C-94.51110077 72.115746 -95.28831482 72.11796661 -96.08908081 72.12025452 C-98 72 -98 72 -100 71 C-99.46061668 74.29853647 -98.70707368 77.10874007 -97 80 C-93.80782503 81.88390654 -90.6432181 82.48265214 -87 83 C-85.96939453 83.16822266 -85.96939453 83.16822266 -84.91796875 83.33984375 C-79.60447994 83.7835363 -75.83398792 81.69464275 -71.296875 79.09375 C-69 78 -69 78 -65 78 C-65 78.66 -65 79.32 -65 80 C-64.443125 80.2475 -63.88625 80.495 -63.3125 80.75 C-60.60028873 82.21606015 -58.36412635 84.02989471 -56 86 C-58.01909158 92.35195297 -62.3559292 94.86440511 -68 98 C-78.99362528 102.4442315 -89.92500023 101.96604721 -101 98 C-109.9244975 93.55160916 -116.7844962 86.46787229 -120 77 C-122.37509521 67.4661671 -122.40628382 54.92155699 -118 46 C-111.84267885 36.24693059 -104.36888883 29.63605065 -93 27 C-82.26673357 25.57156778 -71.78360525 28.03146109 -63.0625 34.625 C-58.93709461 38.57507566 -56.23143816 43.79331097 -54 49 C-54 49.99 -54 50.98 -54 52 C-53.34 52 -52.68 52 -52 52 C-51.89816406 51.113125 -51.79632813 50.22625 -51.69140625 49.3125 C-50.10136569 41.69467855 -44.3535655 35.45323688 -38.015625 31.18359375 C-30.58635036 26.82105457 -23.59869148 26.0410773 -15 27 C-9.2485841 28.66893765 -5.00430251 31.66379833 0 35 C0 23.45 0 11.9 0 0 Z M-97 48 C-99.14724978 51.02648576 -101 54.22591087 -101 58 C-91.43 58 -81.86 58 -72 58 C-73.66297454 53.01107638 -74.75387957 49.96748052 -78 46 C-84.93701722 42.75288556 -90.9077256 43.39581768 -97 48 Z M-26.5859375 48.4453125 C-31.09465822 53.34992089 -32.70574614 57.76320756 -33.3125 64.4375 C-32.93067093 68.79035136 -31.69202481 71.98144107 -30 76 C-29.34 76 -28.68 76 -28 76 C-27.814375 76.598125 -27.62875 77.19625 -27.4375 77.8125 C-25.33550778 81.01118381 -22.56652787 82.02984858 -19 83 C-14.7395986 83.68133587 -11.64601329 83.33542998 -7.75 81.3125 C-3.12291532 77.42154243 -0.39778253 73.94057576 1 68 C1.53736809 61.33663572 0.88398052 55.5172355 -3.4765625 50.19921875 C-9.59329666 44.34782237 -19.8356596 42.29358141 -26.5859375 48.4453125 Z " fill="#5E5C5D" transform="translate(121,0)"/>
<path d="M0 0 C0.67998047 0.09152344 1.35996094 0.18304688 2.06054688 0.27734375 C7.04560467 0.98310467 7.04560467 0.98310467 8.1875 2.125 C8.50499203 4.77958615 8.74869711 7.3985373 8.9375 10.0625 C9.03998047 11.1752832 9.03998047 11.1752832 9.14453125 12.31054688 C9.296875 14.46484375 9.296875 14.46484375 9.1875 18.125 C8.1975 18.785 7.2075 19.445 6.1875 20.125 C5.1975 19.795 4.2075 19.465 3.1875 19.125 C-2.14545432 18.781509 -2.14545432 18.781509 -6.8125 21.125 C-7.1425 23.105 -7.4725 25.085 -7.8125 27.125 C4.3975 27.125 16.6075 27.125 29.1875 27.125 C35 44.6875 35 44.6875 36.81567383 50.18969727 C37.30005207 51.64868026 37.78465646 53.1075882 38.26953125 54.56640625 C38.51328491 55.30789917 38.75703857 56.04939209 39.00817871 56.81335449 C40.52386953 61.36193284 42.24028039 65.74312449 44.1875 70.125 C44.39842285 69.46193848 44.6093457 68.79887695 44.82666016 68.11572266 C48.38493215 56.93892582 51.94349936 45.76194386 55.625 34.625 C55.99455811 33.49698975 55.99455811 33.49698975 56.37158203 32.34619141 C58.069392 27.243108 58.069392 27.243108 59.1875 26.125 C60.6762186 26.03830568 62.168945 26.01796506 63.66015625 26.02734375 C64.55927734 26.03056641 65.45839844 26.03378906 66.38476562 26.03710938 C67.33029297 26.04548828 68.27582031 26.05386719 69.25 26.0625 C70.6740918 26.06926758 70.6740918 26.06926758 72.12695312 26.07617188 C74.48053065 26.0879989 76.83398477 26.10447975 79.1875 26.125 C80.28990005 29.43220016 80.1488283 29.96409644 79.03515625 33.08984375 C78.75728271 33.8797168 78.47940918 34.66958984 78.19311523 35.48339844 C77.88188721 36.33450195 77.57065918 37.18560547 77.25 38.0625 C76.93297119 38.9484082 76.61594238 39.83431641 76.28930664 40.74707031 C73.41106189 48.70246293 70.27217124 56.54763916 67.09375 64.38671875 C65.37628239 68.63163495 63.72720076 72.89787593 62.125 77.1875 C61.88773193 77.81954346 61.65046387 78.45158691 61.40600586 79.1027832 C60.05305587 82.72909153 58.74791624 86.36906727 57.47265625 90.0234375 C49.97848682 111.31387874 49.97848682 111.31387874 40.1875 118.125 C31.90119313 120.99758638 21.93682726 119.85063811 14.1875 116.125 C13.1975 115.63 13.1975 115.63 12.1875 115.125 C12.77854765 110.27840923 14.16694157 106.51751833 16.1875 102.125 C16.8475 102.125 17.5075 102.125 18.1875 102.125 C18.1875 101.135 18.1875 100.145 18.1875 99.125 C23.00145349 100.06104651 23.00145349 100.06104651 25.1875 100.8125 C27.95737352 101.24529274 29.69859017 100.30031853 32.1875 99.125 C32.35120472 95.53608888 31.98294599 93.04127729 30.5625 89.75 C30.19382813 88.8734375 29.82515625 87.996875 29.4453125 87.09375 C29.03023437 86.1140625 28.61515625 85.134375 28.1875 84.125 C27.26613538 81.83521811 26.34986711 79.54338181 25.4375 77.25 C24.9247662 75.96733314 24.41173282 74.684786 23.8984375 73.40234375 C21.3046875 66.91796875 18.7109375 60.43359375 16.1171875 53.94921875 C15.80362305 53.16595215 15.49005859 52.38268555 15.16699219 51.57568359 C14.47316644 49.83973572 13.78130512 48.10300211 13.09082031 46.36572266 C12.73342773 45.46772949 12.37603516 44.56973633 12.0078125 43.64453125 C11.68312988 42.82702393 11.35844727 42.0095166 11.02392578 41.16723633 C10.21074364 39.10910903 10.21074364 39.10910903 9.1875 37.125 C8.8575 39.435 8.5275 41.745 8.1875 44.125 C2.96044503 45.51888132 -0.99097012 45.125 -6.8125 45.125 C-7.1425 62.615 -7.4725 80.105 -7.8125 98.125 C-14.4125 98.125 -21.0125 98.125 -27.8125 98.125 C-29.76799208 96.16950792 -28.98995133 92.40633952 -29.00537109 89.73461914 C-29.01354858 88.96049683 -29.02172607 88.18637451 -29.03015137 87.38879395 C-29.05507083 84.8125893 -29.07154579 82.23644036 -29.0859375 79.66015625 C-29.09126118 78.77991728 -29.09658485 77.89967831 -29.10206985 76.99276543 C-29.12884101 72.32583359 -29.14819552 67.65892875 -29.16259766 62.99194336 C-29.17917584 58.18689917 -29.22388396 53.38255022 -29.2749691 48.57776737 C-29.30876906 44.87236317 -29.32018951 41.16712053 -29.32582474 37.46157646 C-29.33251153 35.69186585 -29.3476661 33.92216489 -29.37171555 32.15260506 C-29.60518936 13.92015094 -29.60518936 13.92015094 -23.8125 6.125 C-17.09068778 -0.59681222 -9.05033626 -1.35975784 0 0 Z M8.1875 33.125 C9.1875 35.125 9.1875 35.125 9.1875 35.125 Z " fill="#5E5C5D" transform="translate(213.8125,1.875)"/>
<path d="M0 0 C3.31248187 -0.02888146 6.62493167 -0.04675799 9.9375 -0.0625 C10.88302734 -0.07087891 11.82855469 -0.07925781 12.80273438 -0.08789062 C14.15141602 -0.09272461 14.15141602 -0.09272461 15.52734375 -0.09765625 C16.77632446 -0.10551147 16.77632446 -0.10551147 18.05053711 -0.11352539 C20 0 20 0 21 1 C21.09952293 3.14200324 21.12799679 5.28732705 21.12939453 7.43164062 C21.13114685 8.10317673 21.13289917 8.77471283 21.13470459 9.46659851 C21.1391223 11.69650828 21.13618542 13.92633936 21.1328125 16.15625 C21.13348556 17.69942236 21.13445561 19.24259461 21.13571167 20.7857666 C21.13718853 24.0240174 21.13503447 27.26224067 21.13037109 30.50048828 C21.1246738 34.66042523 21.12795287 38.82029766 21.13394356 42.98023224 C21.13754949 46.16799408 21.13641044 49.35574051 21.13381577 52.54350281 C21.13314658 54.07777412 21.13397461 55.61204682 21.13629532 57.14631653 C21.13882238 59.28703541 21.13498054 61.42764842 21.12939453 63.56835938 C21.12859894 64.78890015 21.12780334 66.00944092 21.12698364 67.26696777 C21 70 21 70 20 71 C18.59651265 71.09860131 17.18819523 71.13078937 15.78125 71.1328125 C14.50701172 71.13474609 14.50701172 71.13474609 13.20703125 71.13671875 C12.31371094 71.13285156 11.42039063 71.12898438 10.5 71.125 C9.60667969 71.12886719 8.71335938 71.13273437 7.79296875 71.13671875 C6.94347656 71.13542969 6.09398437 71.13414063 5.21875 71.1328125 C4.43435547 71.13168457 3.64996094 71.13055664 2.84179688 71.12939453 C1 71 1 71 0 70 C-0.09429342 67.82194281 -0.11742538 65.6407872 -0.11352539 63.46069336 C-0.11367142 62.77779739 -0.11381744 62.09490143 -0.1139679 61.39131165 C-0.11326876 59.12412386 -0.1054764 56.85701726 -0.09765625 54.58984375 C-0.09579207 53.02185613 -0.09436817 51.45386793 -0.09336853 49.88587952 C-0.08954334 45.75123497 -0.07971306 41.61662534 -0.06866455 37.48199463 C-0.05845044 33.26599602 -0.05387091 29.04999178 -0.04882812 24.83398438 C-0.03809079 16.55597353 -0.02101436 8.2779911 0 0 Z " fill="#5D5C5D" transform="translate(155,29)"/>
<path d="M0 0 C6.6 0 13.2 0 20 0 C21 1 21 1 21.12025452 3.73976135 C21.1169236 5.57509682 21.1169236 5.57509682 21.11352539 7.44750977 C21.11367142 8.12065216 21.11381744 8.79379456 21.1139679 9.48733521 C21.11326878 11.72205784 21.10547652 13.9566981 21.09765625 16.19140625 C21.09579206 17.73697362 21.09436816 19.28254157 21.09336853 20.82810974 C21.0895434 24.90357077 21.07971317 28.97899637 21.06866455 33.05444336 C21.05845032 37.21011882 21.05387089 41.36579999 21.04882812 45.52148438 C21.03809089 53.68100587 21.02101454 61.84049853 21 70 C16.86044286 70.91681467 13.42370272 70.94760934 9.1875 70.5625 C8.02605469 70.46066406 6.86460937 70.35882813 5.66796875 70.25390625 C4.34732422 70.12822266 4.34732422 70.12822266 3 70 C3 69.67 3 69.34 3 69 C10.425 68.01 10.425 68.01 18 67 C18 45.88 18 24.76 18 3 C13.38 3 8.76 3 4 3 C3.97494385 4.92303955 3.9498877 6.8460791 3.92407227 8.82739258 C3.84021102 15.1777386 3.75194341 21.52801137 3.66066074 27.87825489 C3.60547233 31.72878482 3.55205887 35.57932241 3.50268555 39.42993164 C3.45498176 43.14526156 3.40263679 46.86049964 3.34705925 50.57571983 C3.32666295 51.99388024 3.30794537 53.41206581 3.29092598 54.83027077 C3.26682194 56.81504721 3.2362214 58.79974155 3.20532227 60.78442383 C3.18977798 61.91471512 3.1742337 63.04500641 3.15821838 64.20954895 C3 67 3 67 2 70 C1.34 70 0.68 70 0 70 C0 46.9 0 23.8 0 0 Z " fill="#575254" transform="translate(155,29)"/>
<path d="M0 0 C6.93 0 13.86 0 21 0 C21 5.94 21 11.88 21 18 C18.72108967 19.13945516 17.43217896 19.12894214 14.90234375 19.1328125 C14.10119141 19.13410156 13.30003906 19.13539062 12.47460938 19.13671875 C11.63736328 19.13285156 10.80011719 19.12898438 9.9375 19.125 C9.09638672 19.12886719 8.25527344 19.13273437 7.38867188 19.13671875 C1.12662682 19.12662682 1.12662682 19.12662682 0 18 C-0.08631874 16.65732587 -0.10706473 15.31025678 -0.09765625 13.96484375 C-0.09515869 13.23644287 -0.09266113 12.50804199 -0.09008789 11.75756836 C-0.08098389 10.8269458 -0.07187988 9.89632324 -0.0625 8.9375 C-0.041875 5.988125 -0.02125 3.03875 0 0 Z " fill="#5C5A5B" transform="translate(155,0)"/>
<path d="M0 0 C2.6875 1.125 2.6875 1.125 5 3 C6.3125 6.6875 6.3125 6.6875 7 10 C7.66 10 8.32 10 9 10 C9 11.32 9 12.64 9 14 C10.32 14 11.64 14 13 14 C13 14.66 13 15.32 13 16 C9.48575476 17.05955248 6.14344126 17.19998141 2.484375 17.31640625 C1.23398437 17.35830078 -0.01640625 17.40019531 -1.3046875 17.44335938 C-2.60664062 17.48267578 -3.90859375 17.52199219 -5.25 17.5625 C-7.22613281 17.62727539 -7.22613281 17.62727539 -9.2421875 17.69335938 C-12.49468788 17.79941917 -15.74726392 17.90148024 -19 18 C-18.67 18.66 -18.34 19.32 -18 20 C-18.93446535 22.03144641 -19.93224776 24.03533587 -21 26 C-11.48821105 26.05903869 -1.99806984 25.92524358 7.50830078 25.62768555 C9.65776523 25.56149097 11.80735858 25.50235762 13.95703125 25.44335938 C15.33855464 25.40146748 16.72006568 25.35916553 18.1015625 25.31640625 C19.33213379 25.27974854 20.56270508 25.24309082 21.83056641 25.20532227 C24.39378914 25.03927156 26.55804827 24.74748196 29 24 C29.79953138 27.28696233 30.09658936 28.71023192 29 32 C29.75103332 34.32595385 29.75103332 34.32595385 30.9375 36.6875 C31.31777344 37.49574219 31.69804688 38.30398437 32.08984375 39.13671875 C32.39019531 39.75160156 32.69054687 40.36648437 33 41 C34.32 40.34 35.64 39.68 37 39 C36.95875 40.0725 36.9175 41.145 36.875 42.25 C36.9885825 45.65747485 37.21273364 47.20739631 39 50 C36.20051843 49.64929572 35.14529827 49.15467235 33.18359375 47.06640625 C32.60738281 46.24011719 32.03117187 45.41382813 31.4375 44.5625 C30.85871094 43.75941406 30.27992187 42.95632812 29.68359375 42.12890625 C28.16259226 39.30217263 27.28362204 36.86616457 26.39477539 33.80444336 C26.13152969 32.90455185 25.868284 32.00466034 25.59706116 31.07749939 C25.40003098 30.39192459 25.20300079 29.70634979 25 29 C24.45320587 29.00222061 23.90641174 29.00444122 23.3430481 29.00672913 C17.66571708 29.02880686 11.9883982 29.04391705 6.31103516 29.05493164 C4.19058741 29.05996872 2.07014315 29.06679859 -0.05029297 29.07543945 C-3.09343322 29.08753234 -6.13652766 29.09323447 -9.1796875 29.09765625 C-10.13181122 29.10281754 -11.08393494 29.10797882 -12.06491089 29.11329651 C-12.94567291 29.11337204 -13.82643494 29.11344757 -14.73388672 29.11352539 C-15.89970779 29.11685631 -15.89970779 29.11685631 -17.08908081 29.12025452 C-19 29 -19 29 -21 28 C-20.525625 29.0725 -20.05125 30.145 -19.5625 31.25 C-18.46233668 33.80839865 -17.54832997 36.25835017 -17 39 C-20.41972906 35.85024955 -22.70176242 33.48947182 -24 29 C-23.86328125 25.73828125 -23.86328125 25.73828125 -23.3125 22.3125 C-23.14363281 21.17425781 -22.97476562 20.03601563 -22.80078125 18.86328125 C-22 16 -22 16 -19 14 C-16.36450195 13.77294922 -16.36450195 13.77294922 -13.23828125 13.8046875 C-11.56088867 13.81435547 -11.56088867 13.81435547 -9.84960938 13.82421875 C-8.09874023 13.84935547 -8.09874023 13.84935547 -6.3125 13.875 C-4.54422852 13.88853516 -4.54422852 13.88853516 -2.74023438 13.90234375 C0.17338026 13.92593577 3.08658892 13.9588546 6 14 C5.52175781 12.89398438 5.04351562 11.78796875 4.55078125 10.6484375 C3.70707084 8.66348656 2.88563643 6.6657065 2.1875 4.625 C1.0270493 2.65605167 1.0270493 2.65605167 -2 2.375 C-3.485 2.189375 -3.485 2.189375 -5 2 C-5.66 1.34 -6.32 0.68 -7 0 C-4.24779828 -1.37610086 -2.93781238 -0.81985462 0 0 Z " fill="#534D51" transform="translate(42,43)"/>
<path d="M0 0 C4.95 0 9.9 0 15 0 C14.67 23.1 14.34 46.2 14 70 C7.4 70 0.8 70 -6 70 C-6.66 67.69 -7.32 65.38 -8 63 C-8.51949219 63.40992188 -9.03898437 63.81984375 -9.57421875 64.2421875 C-10.27160156 64.78101562 -10.96898438 65.31984375 -11.6875 65.875 C-12.37199219 66.40867187 -13.05648437 66.94234375 -13.76171875 67.4921875 C-18.63498188 70.77504888 -22.46350562 71.234327 -28.3125 71.125 C-29.56675781 71.10695313 -30.82101563 71.08890625 -32.11328125 71.0703125 C-33.06589844 71.04710938 -34.01851563 71.02390625 -35 71 C-35.33 70.34 -35.66 69.68 -36 69 C-31.95133044 67.65044348 -28.24522024 67.97753944 -24.0078125 68.0625 C-21.17322055 68.00359939 -18.72544954 67.77521731 -16 67 C-14.90833725 65.06669397 -14.90833725 65.06669397 -14 63 C-12.68352881 62.30062468 -11.34977849 61.63270867 -10 61 C-9.34 60.01 -8.68 59.02 -8 58 C-7.01 58 -6.02 58 -5 58 C-3.77403961 61.67788118 -4.15689923 62.78449613 -5 67 C0.28 67.33 5.56 67.66 11 68 C11.33 45.89 11.66 23.78 12 1 C11.01 1.33 10.02 1.66 9 2 C6.73828125 1.87890625 6.73828125 1.87890625 4.3125 1.5625 C3.50425781 1.46066406 2.69601563 1.35882812 1.86328125 1.25390625 C1.24839844 1.17011719 0.63351563 1.08632813 0 1 C0 0.67 0 0.34 0 0 Z " fill="#524D4F" transform="translate(128,30)"/>
<path d="M0 0 C2.165853 4.33170599 2.2434839 6.3896687 2.22705078 11.15527344 C2.22734283 11.86786819 2.22763489 12.58046295 2.22793579 13.31465149 C2.22654577 15.66301781 2.21100022 18.01106431 2.1953125 20.359375 C2.1915812 21.99033434 2.18873478 23.62129592 2.18673706 25.2522583 C2.1791098 29.53979711 2.15946912 33.8271999 2.1373291 38.11468506 C2.11685112 42.49180257 2.10773117 46.86894212 2.09765625 51.24609375 C2.07622235 59.83079151 2.04209739 68.41537882 2 77 C6.51171315 79.25585658 11.97060926 78.61312379 17 79 C17 60.85 17 42.7 17 24 C18.32 24.33 19.64 24.66 21 25 C22.74690919 25.2143934 24.4974023 25.40107653 26.25 25.5625 C27.14203125 25.64628906 28.0340625 25.73007812 28.953125 25.81640625 C29.62859375 25.87699219 30.3040625 25.93757813 31 26 C31.33 25.34 31.66 24.68 32 24 C32.66 24.33 33.32 24.66 34 25 C34 23.02 34 21.04 34 19 C34.33 19 34.66 19 35 19 C35 21.64 35 24.28 35 27 C31 28 31 28 21 28 C20.67 45.49 20.34 62.98 20 81 C13.4 81 6.8 81 0 81 C0 54.27 0 27.54 0 0 Z " fill="#4D4849" transform="translate(186,19)"/>
<path d="M0 0 C0.66 0 1.32 0 2 0 C2 8.25 2 16.5 2 25 C3.32 23.68 4.64 22.36 6 21 C6.66 20.34 7.32 19.68 8 19 C8.17835515 23.54805635 7.99785435 26.8794254 6 31 C4.68 30.67 3.36 30.34 2 30 C2.33 33.3 2.66 36.6 3 40 C-0.81041134 39.04739717 -2.26914026 38.2725068 -5.25 35.9375 C-5.95640625 35.38964844 -6.6628125 34.84179688 -7.390625 34.27734375 C-7.92171875 33.85582031 -8.4528125 33.43429688 -9 33 C-8.67 32.34 -8.34 31.68 -8 31 C-5.0280615 32.12451727 -2.66559313 33.22293791 0 35 C0 23.45 0 11.9 0 0 Z " fill="#4D494B" transform="translate(121,0)"/>
<path d="M0 0 C0.99 0.33 1.98 0.66 3 1 C3 1.66 3 2.32 3 3 C3.556875 3.2475 4.11375 3.495 4.6875 3.75 C7.39971127 5.21606015 9.63587365 7.02989471 12 9 C10.6549765 13.40189509 8.87257737 15.51048598 5 18 C3.68 18 2.36 18 1 18 C1 17.34 1 16.68 1 16 C1.66 16 2.32 16 3 16 C3.33 15.34 3.66 14.68 4 14 C5.31328657 12.64691687 6.64499081 11.31129922 8 10 C6.71283353 8.99421411 5.42011342 7.99553202 4.125 7 C3.40570313 6.443125 2.68640625 5.88625 1.9453125 5.3125 C0.1147915 3.81356623 0.1147915 3.81356623 -2 4 C-2 4.66 -2 5.32 -2 6 C-3.98 6.99 -3.98 6.99 -6 8 C-6 8.99 -6 9.98 -6 11 C-6.66 10.67 -7.32 10.34 -8 10 C-9.66392045 9.32650839 -11.33032028 8.6590841 -13 8 C-9.82490175 5.3540848 -6.40972747 3.6395356 -2.70703125 1.8671875 C-1.0155053 1.11889274 -1.0155053 1.11889274 0 0 Z " fill="#575054" transform="translate(53,77)"/>
<path d="M0 0 C10.33009709 2.15721892 10.33009709 2.15721892 12.9375 5.4375 C13.288125 6.283125 13.63875 7.12875 14 8 C14.70125 8.598125 15.4025 9.19625 16.125 9.8125 C18.80783849 12.94247824 18.84462987 16.04143941 19 20 C19.03996094 20.85851562 19.07992187 21.71703125 19.12109375 22.6015625 C19.31494389 30.33276216 19.31494389 30.33276216 17 34 C15.11784132 35.85290233 13.08641194 37.36715588 11 39 C11 34.99113032 12.79016755 33.28126636 15 30 C17.32898429 24.17753928 16.41304957 17.46089666 14.03515625 11.8203125 C10.70034154 5.9560723 5.0434536 3.97975204 -1 2 C-0.67 1.34 -0.34 0.68 0 0 Z " fill="#4C4849" transform="translate(105,42)"/>
<path d="M0 0 C2.6875 1.125 2.6875 1.125 5 3 C6.3125 6.6875 6.3125 6.6875 7 10 C7.66 10 8.32 10 9 10 C9 11.32 9 12.64 9 14 C10.32 14 11.64 14 13 14 C13 14.66 13 15.32 13 16 C9.0256168 16.96674186 5.46662709 17.04657372 1.38671875 16.87890625 C0.13955078 16.83056641 -1.10761719 16.78222656 -2.39257812 16.73242188 C-3.68615234 16.67634766 -4.97972656 16.62027344 -6.3125 16.5625 C-7.62541016 16.51029297 -8.93832031 16.45808594 -10.29101562 16.40429688 C-13.52759739 16.2748336 -16.76385421 16.13987458 -20 16 C-19.67 15.34 -19.34 14.68 -19 14 C-10.75 14 -2.5 14 6 14 C5.01 11.69 4.02 9.38 3 7 C2.731875 6.21625 2.46375 5.4325 2.1875 4.625 C1.0270493 2.65605167 1.0270493 2.65605167 -2 2.375 C-3.485 2.189375 -3.485 2.189375 -5 2 C-5.66 1.34 -6.32 0.68 -7 0 C-4.24779828 -1.37610086 -2.93781238 -0.81985462 0 0 Z " fill="#5B5357" transform="translate(42,43)"/>
<path d="M0 0 C0.66 1.32 1.32 2.64 2 4 C1.01 4 0.02 4 -1 4 C-5.20771258 8.00097526 -6.55133578 12.27953121 -7 18 C-7.33 18.66 -7.66 19.32 -8 20 C-9.98 20 -11.96 20 -14 20 C-14.48828125 17.98177083 -14.9765625 15.96354167 -15.46484375 13.9453125 C-15.94846992 11.9414343 -15.94846992 11.9414343 -17 10 C-17.66 10.66 -18.32 11.32 -19 12 C-18.67 10.02 -18.34 8.04 -18 6 C-15 7 -15 7 -13.3125 9.875 C-12 13 -12 13 -12 16 C-11.34 16 -10.68 16 -10 16 C-9.9175 15.13375 -9.835 14.2675 -9.75 13.375 C-8.38558704 7.23514168 -5.0058541 3.61533907 0 0 Z " fill="#524D52" transform="translate(79,36)"/>
<path d="M0 0 C0.33 0 0.66 0 1 0 C1 22.44 1 44.88 1 68 C-4.61 67.67 -10.22 67.34 -16 67 C-16 66.67 -16 66.34 -16 66 C-8.575 65.01 -8.575 65.01 -1 64 C-0.67 42.88 -0.34 21.76 0 0 Z " fill="#453C3F" transform="translate(174,32)"/>
<path d="M0 0 C-1.38456515 6.0135591 -3.21762408 11.68278981 -5.4375 17.4375 C-5.73720703 18.25154297 -6.03691406 19.06558594 -6.34570312 19.90429688 C-6.79139648 21.06348633 -6.79139648 21.06348633 -7.24609375 22.24609375 C-7.51091553 22.94404053 -7.7757373 23.6419873 -8.04858398 24.36108398 C-9 26 -9 26 -12 27 C-12 26.34 -12 25.68 -12 25 C-11.34 25 -10.68 25 -10 25 C-10 21.37 -10 17.74 -10 14 C-9.34 14 -8.68 14 -8 14 C-8 13.01 -8 12.02 -8 11 C-7.525625 10.566875 -7.05125 10.13375 -6.5625 9.6875 C-4.37899018 7.3293094 -4.34733049 5.12597439 -4 2 C-6.97 1.67 -9.94 1.34 -13 1 C-13 0.67 -13 0.34 -13 0 C-4.57142857 -1.28571429 -4.57142857 -1.28571429 0 0 Z " fill="#564F53" transform="translate(294,29)"/>
<path d="M0 0 C0.33 0 0.66 0 1 0 C1 2.31 1 4.62 1 7 C13.21 7 25.42 7 38 7 C37.67 7.66 37.34 8.32 37 9 C31.39 8.67 25.78 8.34 20 8 C20.66 9.65 21.32 11.3 22 13 C21.625 15.3125 21.625 15.3125 21 17 C21 16.34 21 15.68 21 15 C20.34 15 19.68 15 19 15 C18.67 13.02 18.34 11.04 18 9 C16.95199219 9.01160156 15.90398437 9.02320313 14.82421875 9.03515625 C13.44531428 9.04453655 12.06640789 9.0536365 10.6875 9.0625 C9.99720703 9.07087891 9.30691406 9.07925781 8.59570312 9.08789062 C5.4516975 9.10307906 3.00579981 9.00193327 0 8 C0 5.36 0 2.72 0 0 Z " fill="#453E41" transform="translate(204,23)"/>
<path d="M0 0 C0.33 0 0.66 0 1 0 C0.96519531 0.89460938 0.93039063 1.78921875 0.89453125 2.7109375 C0.72254853 10.39283212 1.21793665 16.81300301 4 24 C3.01 24.33 2.02 24.66 1 25 C0.67 24.01 0.34 23.02 0 22 C-0.26039062 21.27425781 -0.52078125 20.54851562 -0.7890625 19.80078125 C-3.025163 13.14472508 -3.76949866 8.16352626 -0.9375 1.5 C-0.628125 1.005 -0.31875 0.51 0 0 Z " fill="#534E4F" transform="translate(88,54)"/>
<path d="M0 0 C2 2 2 2 3 5 C3.99 5.33 4.98 5.66 6 6 C6 6.99 6 7.98 6 9 C6.66 9.33 7.32 9.66 8 10 C7.979375 11.051875 7.95875 12.10375 7.9375 13.1875 C7.98896802 16.32704904 8.26517187 18.96883396 9 22 C8.34 22 7.68 22 7 22 C5.82219564 19.08770867 4.65974925 16.16952322 3.5 13.25 C3.16613281 12.425 2.83226562 11.6 2.48828125 10.75 C2.17246094 9.95078125 1.85664063 9.1515625 1.53125 8.328125 C1.23798828 7.5949707 0.94472656 6.86181641 0.64257812 6.10644531 C0 4 0 4 0 0 Z " fill="#595054" transform="translate(230,51)"/>
<path d="M0 0 C0.99 0 1.98 0 3 0 C4.22596039 3.67788118 3.84310077 4.78449613 3 9 C8.61 9.33 14.22 9.66 20 10 C20 10.33 20 10.66 20 11 C13.73 11 7.46 11 1 11 C0.67 9.02 0.34 7.04 0 5 C-1.32 5.33 -2.64 5.66 -4 6 C-2.1875 3 -2.1875 3 0 0 Z " fill="#4A4244" transform="translate(120,88)"/>
<path d="M0 0 C1.1182778 4.4731112 0.5158947 5.80899701 -1 10 C-1 10.99 -1 11.98 -1 13 C-1.66 13 -2.32 13 -3 13 C-3 13.66 -3 14.32 -3 15 C-3.66 15 -4.32 15 -5 15 C-6.32 11.37 -7.64 7.74 -9 4 C-8.01 4 -7.02 4 -6 4 C-5.34 5.32 -4.68 6.64 -4 8 C-2.68 5.36 -1.36 2.72 0 0 Z " fill="#555051" transform="translate(262,64)"/>
<path d="M0 0 C5.61 0 11.22 0 17 0 C17 2.31 17 4.62 17 7 C15.02 7 13.04 7 11 7 C11 5.02 11 3.04 11 1 C7.37 1 3.74 1 0 1 C0 0.67 0 0.34 0 0 Z " fill="#636263" transform="translate(157,0)"/>
<path d="M0 0 C1.1484375 1.578125 1.1484375 1.578125 2 4 C1.1015625 7.234375 1.1015625 7.234375 -0.375 10.75 C-0.85710937 11.92046875 -1.33921875 13.0909375 -1.8359375 14.296875 C-2.22007812 15.18890625 -2.60421875 16.0809375 -3 17 C-3.66 17 -4.32 17 -5 17 C-4.69075786 14.89535207 -4.3774944 12.7912947 -4.0625 10.6875 C-3.88847656 9.51574219 -3.71445312 8.34398437 -3.53515625 7.13671875 C-3 4 -3 4 -2 1 C-1.34 0.67 -0.68 0.34 0 0 Z " fill="#585355" transform="translate(268,46)"/>
<path d="M0 0 C0.66 1.32 1.32 2.64 2 4 C1.01 4 0.02 4 -1 4 C-5.2252389 8.01764046 -6.65249554 12.3240938 -7 18 C-7.66 18 -8.32 18 -9 18 C-9.81223589 15.15717438 -10.18012368 13.50863496 -9.1796875 10.68359375 C-6.6030944 6.24784215 -4.38673447 2.88271122 0 0 Z " fill="#575054" transform="translate(79,36)"/>
<path d="M0 0 C0.66 0 1.32 0 2 0 C2 5.94 2 11.88 2 18 C-2 19 -2 19 -4 18 C-4 17.34 -4 16.68 -4 16 C-3.01 16 -2.02 16 -1 16 C-0.67 10.72 -0.34 5.44 0 0 Z " fill="#52494F" transform="translate(174,0)"/>
<path d="M0 0 C2.45873768 0.14058476 4.91685175 0.28722999 7.375 0.4375 C8.07367188 0.47681641 8.77234375 0.51613281 9.4921875 0.55664062 C14.7734375 0.88671875 14.7734375 0.88671875 17 2 C17 2.66 17 3.32 17 4 C11.55306686 4.09688221 6.36095333 4.12862175 1 3 C0.67 2.01 0.34 1.02 0 0 Z " fill="#564B4F" transform="translate(25,97)"/>
<path d="M0 0 C0.33 0.66 0.66 1.32 1 2 C-0.89492006 2.33848652 -2.79098466 2.67056911 -4.6875 3 C-5.74324219 3.185625 -6.79898438 3.37125 -7.88671875 3.5625 C-10.64904062 3.95068074 -13.21742043 4.08259976 -16 4 C-15.67 2.68 -15.34 1.36 -15 0 C-9.9594101 -1.16321305 -5.03693964 -1.2194696 0 0 Z " fill="#585355" transform="translate(215,2)"/>
<path d="M0 0 C0.66 0.33 1.32 0.66 2 1 C2 2.32 2 3.64 2 5 C0.865625 5.268125 -0.26875 5.53625 -1.4375 5.8125 C-3.2009375 6.4003125 -3.2009375 6.4003125 -5 7 C-5.33 7.99 -5.66 8.98 -6 10 C-8.5625 11.6875 -8.5625 11.6875 -11 13 C-9.94124926 9.59687262 -8.99097846 6.98646769 -7 4 C-4.375 3.8125 -4.375 3.8125 -2 4 C-2 3.01 -2 2.02 -2 1 C-1.34 0.67 -0.68 0.34 0 0 Z " fill="#555254" transform="translate(101,40)"/>
<path d="M0 0 C0.33 0 0.66 0 1 0 C0.97679688 0.75023437 0.95359375 1.50046875 0.9296875 2.2734375 C0.80880364 9.12927937 1.35063873 15.34364917 3 22 C2.01 22 1.02 22 0 22 C-1.09472258 17.58635658 -1.14938175 13.26875116 -1.125 8.75 C-1.12886719 8.0178125 -1.13273438 7.285625 -1.13671875 6.53125 C-1.12671034 1.12671034 -1.12671034 1.12671034 0 0 Z " fill="#4F454A" transform="translate(1,55)"/>
<path d="M0 0 C2.30143236 3.45214853 2.13833854 4.23479324 1.625 8.1875 C1.51414062 9.08855469 1.40328125 9.98960938 1.2890625 10.91796875 C1.19367187 11.60503906 1.09828125 12.29210938 1 13 C0.01 13.33 -0.98 13.66 -2 14 C-2.24915939 12.23186888 -2.47366632 10.46025018 -2.6875 8.6875 C-2.81511719 7.70136719 -2.94273438 6.71523438 -3.07421875 5.69921875 C-3 3 -3 3 -1.51953125 1.14453125 C-1.01808594 0.76683594 -0.51664062 0.38914063 0 0 Z " fill="#595456" transform="translate(4,48)"/>
<path d="M0 0 C0.33 0 0.66 0 1 0 C0.46246904 6.18160604 -1.54582388 11.326858 -4 17 C-4.99 17 -5.98 17 -7 17 C-6.67 15.68 -6.34 14.36 -6 13 C-5.34 13 -4.68 13 -4 13 C-4 10.69 -4 8.38 -4 6 C-3.34 6 -2.68 6 -2 6 C-1.855625 5.38125 -1.71125 4.7625 -1.5625 4.125 C-1 2 -1 2 0 0 Z " fill="#544D4F" transform="translate(277,70)"/>
<path d="M0 0 C1.1446875 1.175625 1.1446875 1.175625 2.3125 2.375 C4.7475469 4.7534179 6.95957261 6.4797863 10 8 C10.33 8.99 10.66 9.98 11 11 C11.66 11.33 12.32 11.66 13 12 C10.80078125 12.3125 10.80078125 12.3125 8 12 C5.54296875 9.8125 5.54296875 9.8125 3.1875 7 C2.39730469 6.071875 1.60710938 5.14375 0.79296875 4.1875 C0.20128906 3.465625 -0.39039063 2.74375 -1 2 C-0.67 1.34 -0.34 0.68 0 0 Z " fill="#534B50" transform="translate(5,82)"/>
<path d="M0 0 C0.70189453 0.00451172 1.40378906 0.00902344 2.12695312 0.01367188 C3.85550538 0.02543073 5.58401365 0.04336546 7.3125 0.0625 C6.9825 1.0525 6.6525 2.0425 6.3125 3.0625 C4.22945462 3.11668326 2.14600232 3.15537551 0.0625 3.1875 C-1.67773438 3.22230469 -1.67773438 3.22230469 -3.453125 3.2578125 C-6.51536046 3.0728949 -8.12952751 2.67073023 -10.6875 1.0625 C-7.06882441 -0.1437252 -3.76243749 -0.04566918 0 0 Z " fill="#4F4A4E" transform="translate(101.6875,27.9375)"/>
<path d="M0 0 C0.33 1.32 0.66 2.64 1 4 C-3.75 8 -3.75 8 -6 8 C-7.62514468 9.45833358 -7.62514468 9.45833358 -9 11 C-8.4237038 7.11000068 -6.63263979 4.85829463 -4 2 C-1.75 0.6875 -1.75 0.6875 0 0 Z " fill="#534D4F" transform="translate(197,3)"/>
<path d="M0 0 C-0.33 1.65 -0.66 3.3 -1 5 C-4.20601218 5 -7.30801798 4.92554376 -10.5 4.625 C-11.69109375 4.52058594 -11.69109375 4.52058594 -12.90625 4.4140625 C-15 4 -15 4 -17 2 C-16.24074219 2.02320312 -15.48148437 2.04640625 -14.69921875 2.0703125 C-13.20841797 2.09738281 -13.20841797 2.09738281 -11.6875 2.125 C-10.20830078 2.15980469 -10.20830078 2.15980469 -8.69921875 2.1953125 C-5.12922297 1.93699153 -3.65174039 0 0 0 Z " fill="#514C4E" transform="translate(115,81)"/>
<path d="M0 0 C0.33 0 0.66 0 1 0 C1 2.64 1 5.28 1 8 C-1.9280927 8.8356429 -4.58176143 9.16205486 -7.625 9.1875 C-8.78902344 9.20876953 -8.78902344 9.20876953 -9.9765625 9.23046875 C-12 9 -12 9 -14 7 C-10.37 7 -6.74 7 -3 7 C-2.67 6.34 -2.34 5.68 -2 5 C-1.34 5.33 -0.68 5.66 0 6 C0 4.02 0 2.04 0 0 Z " fill="#4C4549" transform="translate(220,38)"/>
<path d="M0 0 C1.47668858 0.0133035 2.95331108 0.03716415 4.4296875 0.0703125 C5.18378906 0.07933594 5.93789062 0.08835937 6.71484375 0.09765625 C8.57826004 0.1212438 10.44151343 0.15711531 12.3046875 0.1953125 C12.3046875 1.1853125 12.3046875 2.1753125 12.3046875 3.1953125 C6.3646875 2.8653125 0.4246875 2.5353125 -5.6953125 2.1953125 C-3.6953125 0.1953125 -3.6953125 0.1953125 0 0 Z " fill="#534C50" transform="translate(162.6953125,28.8046875)"/>
<path d="M0 0 C0.33 0 0.66 0 1 0 C1.17835515 4.54805635 0.99785435 7.8794254 -1 12 C-2.32 11.67 -3.64 11.34 -5 11 C-5.25 8.75 -5.25 8.75 -5 6 C-3.0625 3.8125 -3.0625 3.8125 -1 2 C-0.67 1.34 -0.34 0.68 0 0 Z " fill="#544F51" transform="translate(128,19)"/>
<path d="M0 0 C1.65 0 3.3 0 5 0 C5.33 0.99 5.66 1.98 6 3 C5.0409375 3.1546875 5.0409375 3.1546875 4.0625 3.3125 C3.381875 3.539375 2.70125 3.76625 2 4 C1.67 4.99 1.34 5.98 1 7 C-0.32 6.67 -1.64 6.34 -3 6 C-2.01 4.02 -1.02 2.04 0 0 Z " fill="#4C4549" transform="translate(273,28)"/>
<path d="M0 0 C4.43090471 1.20842856 6.98112756 2.51668565 10 6 C10.66 5.34 11.32 4.68 12 4 C12 5.65 12 7.3 12 9 C8.61638481 8.38271885 6.47997439 7.13020282 3.75 5.0625 C3.04359375 4.53785156 2.3371875 4.01320313 1.609375 3.47265625 C1.07828125 2.98667969 0.5471875 2.50070313 0 2 C0 1.34 0 0.68 0 0 Z " fill="#4D484B" transform="translate(112,31)"/>
<path d="M0 0 C-0.66 2.64 -1.32 5.28 -2 8 C-2.66 8 -3.32 8 -4 8 C-4 6.02 -4 4.04 -4 2 C-6.97 1.67 -9.94 1.34 -13 1 C-13 0.67 -13 0.34 -13 0 C-4.57142857 -1.28571429 -4.57142857 -1.28571429 0 0 Z " fill="#4C444A" transform="translate(294,29)"/>
<path d="M0 0 C0.99 0.33 1.98 0.66 3 1 C2.01 1.66 1.02 2.32 0 3 C-1.1433257 4.91595089 -1.1433257 4.91595089 -2.0625 7.0625 C-3.78763127 10.89381564 -3.78763127 10.89381564 -6 12 C-6 9.36 -6 6.72 -6 4 C-5.01 4 -4.02 4 -3 4 C-1.29467677 2.05990478 -1.29467677 2.05990478 0 0 Z " fill="#4F484C" transform="translate(25,44)"/>
<path d="M0 0 C2.31 0.66 4.62 1.32 7 2 C7 2.33 7 2.66 7 3 C5.865625 3.309375 4.73125 3.61875 3.5625 3.9375 C0.21224901 4.62924531 0.21224901 4.62924531 -1 6 C-1.36760731 8.32817964 -1.70241581 10.6618385 -2 13 C-2.33 13 -2.66 13 -3 13 C-3.4726477 4.80743982 -3.4726477 4.80743982 -1.5 1.4375 C-0.7575 0.7259375 -0.7575 0.7259375 0 0 Z " fill="#5A5457" transform="translate(208,17)"/>
<path d="M0 0 C3.4375 0.8125 3.4375 0.8125 7 2 C7.33 2.99 7.66 3.98 8 5 C3.545 5.495 3.545 5.495 -1 6 C-0.67 5.34 -0.34 4.68 0 4 C-0.33 3.01 -0.66 2.02 -1 1 C-0.67 0.67 -0.34 0.34 0 0 Z " fill="#4F4C4F" transform="translate(27,81)"/>
<path d="M0 0 C0.66 0 1.32 0 2 0 C3.11003253 3.3300976 2.9343162 3.97843441 1.75 7.125 C1.37101562 8.18074219 1.37101562 8.18074219 0.984375 9.2578125 C0 11 0 11 -3 12 C-2.01 8.04 -1.02 4.08 0 0 Z " fill="#534A4C" transform="translate(267,93)"/>
<path d="M0 0 C0 0.99 0 1.98 0 3 C-5.61 2.67 -11.22 2.34 -17 2 C-17 1.67 -17 1.34 -17 1 C-5.47835991 -0.14806378 -5.47835991 -0.14806378 0 0 Z " fill="#4C4647" transform="translate(175,97)"/>
<path d="M0 0 C0.66 0 1.32 0 2 0 C2.50559908 1.43554025 3.0042749 2.8735202 3.5 4.3125 C3.7784375 5.11300781 4.056875 5.91351563 4.34375 6.73828125 C5 9 5 9 5 12 C4.34 12 3.68 12 3 12 C2.49440092 10.56445975 1.9957251 9.1264798 1.5 7.6875 C1.2215625 6.88699219 0.943125 6.08648437 0.65625 5.26171875 C0 3 0 3 0 0 Z " fill="#4D464A" transform="translate(68,72)"/>
<path d="M0 0 C3.3 0 6.6 0 10 0 C8.66272409 2.67455183 7.26711677 2.98881385 4.5625 4.1875 C3.75941406 4.55230469 2.95632812 4.91710938 2.12890625 5.29296875 C0 6 0 6 -2 5 C-0.68 4.34 0.64 3.68 2 3 C2 2.34 2 1.68 2 1 C1.34 0.67 0.68 0.34 0 0 Z " fill="#595558" transform="translate(26,42)"/>
<path d="M0 0 C0.66 0 1.32 0 2 0 C0.60812281 3.36370321 -0.79431396 5.21906331 -4 7 C-7.25 7.1875 -7.25 7.1875 -10 7 C-4 3 -4 3 -1 3 C-0.67 2.01 -0.34 1.02 0 0 Z " fill="#494446" transform="translate(258,113)"/>
<path d="M0 0 C1.41791408 0.45445964 2.83428046 0.91374944 4.25 1.375 C5.43335938 1.75785156 5.43335938 1.75785156 6.640625 2.1484375 C8.86627958 2.95173667 10.90931672 3.89711662 13 5 C8.5214021 5.17563129 4.97415868 5.22085338 1 3 C0.67 2.01 0.34 1.02 0 0 Z " fill="#4C474A" transform="translate(227,115)"/>
<path d="M0 0 C0.99 0.33 1.98 0.66 3 1 C2.34 1 1.68 1 1 1 C0.34 2.65 -0.32 4.3 -1 6 C-0.34 6.33 0.32 6.66 1 7 C0.01 7.33 -0.98 7.66 -2 8 C-2.66 8.99 -3.32 9.98 -4 11 C-4.21952523 7.15830842 -3.72664863 4.45329726 -2 1 C-1.34 0.67 -0.68 0.34 0 0 Z " fill="#534E50" transform="translate(232,103)"/>
<path d="M0 0 C0.99 0.33 1.98 0.66 3 1 C3 2.65 3 4.3 3 6 C0.83125748 5.49396008 -0.99967627 5.00016187 -3 4 C-2.67 3.01 -2.34 2.02 -2 1 C-1.34 0.67 -0.68 0.34 0 0 Z " fill="#595557" transform="translate(85,30)"/>
<path d="M0 0 C0.2475 0.53625 0.495 1.0725 0.75 1.625 C2.29696975 4.56424252 4.13014369 7.25754408 6 10 C5.67 10.66 5.34 11.32 5 12 C3.96386967 10.76265016 2.94652198 9.50955363 1.9375 8.25 C1.36902344 7.55390625 0.80054687 6.8578125 0.21484375 6.140625 C-1 4 -1 4 -0.68359375 1.734375 C-0.45800781 1.16203125 -0.23242188 0.5896875 0 0 Z " fill="#4C474A" transform="translate(19,70)"/>
<path d="M0 0 C3.05936637 3.75467691 5 7.08113061 5 12 C4.34 12 3.68 12 3 12 C-0.42857143 4.71428571 -0.42857143 4.71428571 0 0 Z " fill="#4A4547" transform="translate(234,61)"/>
<path d="M0 0 C0.99 0.66 1.98 1.32 3 2 C2.67 3.65 2.34 5.3 2 7 C0.68 7 -0.64 7 -2 7 C-1.34 4.69 -0.68 2.38 0 0 Z " fill="#585557" transform="translate(21,58)"/>
<path d="M0 0 C0 4 0 4 -1 6 C-1.66 5.67 -2.32 5.34 -3 5 C-4.66392045 4.32650839 -6.33032028 3.6590841 -8 3 C-4.93882432 0.37613513 -4.26826873 0 0 0 Z " fill="#514C50" transform="translate(48,82)"/>
<path d="M0 0 C0.33 0.99 0.66 1.98 1 3 C1.99 3 2.98 3 4 3 C4.33 4.32 4.66 5.64 5 7 C3.02 7 1.04 7 -1 7 C-2 4 -2 4 -1.0625 1.8125 C-0.5365625 0.9153125 -0.5365625 0.9153125 0 0 Z " fill="#484247" transform="translate(66,49)"/>
<path d="M0 0 C0.66 1.32 1.32 2.64 2 4 C1.01 5.32 0.02 6.64 -1 8 C-2.0625 6.1875 -2.0625 6.1875 -3 4 C-2.67 3.01 -2.34 2.02 -2 1 C-1.34 0.67 -0.68 0.34 0 0 Z " fill="#524B4D" transform="translate(268,46)"/>
<path d="M0 0 C0.33 0.66 0.66 1.32 1 2 C2.32 2 3.64 2 5 2 C5.66 1.34 6.32 0.68 7 0 C6.38722388 2.96175123 5.74627478 4.38058783 4 7 C3.34 7 2.68 7 2 7 C0.5393715 4.35261084 0 3.10551666 0 0 Z " fill="#595357" transform="translate(224,38)"/>
<path d="M0 0 C1.53445094 3.06890187 0.54984289 5.70094266 0 9 C-1.65 8.67 -3.3 8.34 -5 8 C-4.34 6.68 -3.68 5.36 -3 4 C-2.34 4 -1.68 4 -1 4 C-0.67 2.68 -0.34 1.36 0 0 Z " fill="#565558" transform="translate(7,72)"/>
<path d="M0 0 C0 0.66 0 1.32 0 2 C-6.4 3.23076923 -6.4 3.23076923 -9.4375 2.0625 C-9.953125 1.711875 -10.46875 1.36125 -11 1 C-7.32589215 -0.17571451 -3.83070817 -0.07366746 0 0 Z " fill="#524B50" transform="translate(139,16)"/>
<path d="M0 0 C0.66 0.33 1.32 0.66 2 1 C2 2.32 2 3.64 2 5 C-0.31 5.66 -2.62 6.32 -5 7 C-5 6.34 -5 5.68 -5 5 C-3.68 4.34 -2.36 3.68 -1 3 C-1.33 2.34 -1.66 1.68 -2 1 C-1.34 0.67 -0.68 0.34 0 0 Z " fill="#504B4F" transform="translate(101,40)"/>
<path d="M0 0 C2.5 1.3125 2.5 1.3125 5 3 C5 3.99 5 4.98 5 6 C3.02 5.01 1.04 4.02 -1 3 C-0.67 2.01 -0.34 1.02 0 0 Z " fill="#524C50" transform="translate(55,79)"/>
<path d="M0 0 C-3 2 -3 2 -5.1875 1.625 C-5.785625 1.41875 -6.38375 1.2125 -7 1 C-7 0.34 -7 -0.32 -7 -1 C-3.51418144 -2.2020064 -3.32007656 -2.21338437 0 0 Z " fill="#5A5456" transform="translate(56,96)"/>
<path d="M0 0 C0.33 0 0.66 0 1 0 C0.67 3.3 0.34 6.6 0 10 C-0.99 10 -1.98 10 -3 10 C-2.01 6.7 -1.02 3.4 0 0 Z " fill="#666364" transform="translate(124,68)"/>
<path d="M0 0 C0.99 0.33 1.98 0.66 3 1 C2.67 2.32 2.34 3.64 2 5 C0.68 5.33 -0.64 5.66 -2 6 C-2 5.01 -2 4.02 -2 3 C-1.34 3 -0.68 3 0 3 C0 2.01 0 1.02 0 0 Z " fill="#5A5356" transform="translate(276,66)"/>
<path d="M0 0 C2.625 0.375 2.625 0.375 5 1 C4.67 1.99 4.34 2.98 4 4 C2.02 3.34 0.04 2.68 -2 2 C-1.34 1.34 -0.68 0.68 0 0 Z " fill="#4C4649" transform="translate(37,42)"/>
<path d="M0 0 C2.76223278 2.76223278 2.57856291 5.20706617 3 9 C2.67 8.34 2.34 7.68 2 7 C1.34 7 0.68 7 0 7 C-0.38133299 5.0085944 -0.71325582 3.00720923 -1 1 C-0.67 0.67 -0.34 0.34 0 0 Z " fill="#50464B" transform="translate(223,31)"/>
<path d="M0 0 C0 3.20395416 -0.74335022 5.09399739 -2 8 C-2.66 7.34 -3.32 6.68 -4 6 C-4 4.68 -4 3.36 -4 2 C-2.68 1.34 -1.36 0.68 0 0 Z " fill="#555152" transform="translate(191,13)"/>
</svg>
