<svg width="527" height="489" viewBox="0 0 527 489" fill="none" xmlns="http://www.w3.org/2000/svg">
<path d="M0 35C0 15.67 15.67 0 35 0H492C511.33 0 527 15.67 527 35V489H0V35Z" fill="white"/>
<g clip-path="url(#clip0_51_1986)">
<rect x="19" y="14" width="490" height="429" rx="14.0143" fill="#FFF6DF"/>
<path d="M382.357 138.832L382.357 146.131C382.357 157.323 373.284 166.396 362.092 166.396L291.592 166.396C280.4 166.396 271.327 175.469 271.327 186.661L271.327 189.941" stroke="url(#paint0_linear_51_1986)" stroke-width="1.84227" stroke-dasharray="1.84 1.84"/>
<path d="M385.881 321.238L385.881 313.939C385.881 302.747 376.808 293.674 365.616 293.674L295.117 293.674C283.925 293.674 274.852 284.601 274.852 273.409L274.852 270.129" stroke="url(#paint1_linear_51_1986)" stroke-width="1.84227" stroke-dasharray="1.84 1.84"/>
<path d="M144.436 138.832L144.436 146.131C144.436 157.323 153.508 166.396 164.701 166.396L235.2 166.396C246.392 166.396 255.465 175.469 255.465 186.661L255.465 189.941" stroke="url(#paint2_linear_51_1986)" stroke-width="1.84227" stroke-dasharray="1.84 1.84"/>
<path d="M147.96 321.238L147.96 313.939C147.96 302.747 157.033 293.674 168.225 293.674L238.725 293.674C249.917 293.674 258.99 284.601 258.99 273.409L258.99 270.129" stroke="url(#paint3_linear_51_1986)" stroke-width="1.84227" stroke-dasharray="1.84 1.84"/>
<path d="M264.277 145.881L263.396 191.703" stroke="url(#paint4_linear_51_1986)" stroke-width="1.84227" stroke-dasharray="1.84 1.84"/>
<path d="M267.802 314.188L266.921 268.367" stroke="url(#paint5_linear_51_1986)" stroke-width="1.84227" stroke-dasharray="1.84 1.84"/>
<rect x="319.372" y="311.124" width="90.485" height="89.8413" rx="29.9369" fill="white"/>
<rect x="319.372" y="311.124" width="90.485" height="89.8413" rx="29.9369" stroke="#FFC379" stroke-width="0.921136"/>
<g clip-path="url(#clip1_51_1986)">
<path d="M375.88 379.525C382.628 379.525 388.099 374.054 388.099 367.306C388.099 360.558 382.628 355.088 375.88 355.088C369.132 355.088 363.662 360.558 363.662 367.306C363.662 374.054 369.132 379.525 375.88 379.525Z" fill="#D8ECFE"/>
<path d="M377.137 355.153C379.038 356.775 380.396 358.94 381.027 361.358C381.659 363.775 381.534 366.329 380.67 368.673C379.806 371.018 378.243 373.041 376.193 374.469C374.143 375.898 371.704 376.664 369.206 376.664C368.786 376.664 368.367 376.643 367.95 376.6C369.407 377.844 371.136 378.727 372.997 379.179C374.858 379.632 376.8 379.64 378.665 379.204C380.53 378.767 382.266 377.899 383.734 376.668C385.201 375.437 386.359 373.878 387.113 372.117C387.867 370.357 388.197 368.443 388.076 366.532C387.954 364.62 387.385 362.764 386.414 361.113C385.443 359.462 384.098 358.062 382.486 357.027C380.875 355.991 379.042 355.349 377.137 355.153Z" fill="#B3DAFE"/>
<path d="M375.88 368.273C378.145 368.273 379.981 366.438 379.981 364.173C379.981 361.909 378.145 360.073 375.88 360.073C373.616 360.073 371.78 361.909 371.78 364.173C371.78 366.438 373.616 368.273 375.88 368.273Z" fill="#FFCEBF"/>
<path d="M375.88 379.525C378.755 379.529 381.538 378.516 383.737 376.664L383.413 373.986C383.33 373.291 382.994 372.652 382.471 372.188C381.948 371.724 381.273 371.468 380.574 371.468H371.188C370.489 371.468 369.814 371.724 369.291 372.188C368.768 372.651 368.432 373.291 368.349 373.985L368.027 376.663C370.225 378.514 373.007 379.528 375.88 379.525Z" fill="#A2E62E"/>
<path d="M376.278 379.518C378.839 379.445 381.598 378.488 383.737 376.663C383.422 372.692 382.961 371.249 379.205 371.467C376.822 374.915 372.503 377.054 368.031 376.608L368.024 376.662C370.281 378.551 373.231 379.637 376.278 379.518Z" fill="#97D729"/>
<path d="M352.927 356.572C359.675 356.572 365.146 351.101 365.146 344.353C365.146 337.605 359.675 332.135 352.927 332.135C346.179 332.135 340.709 337.605 340.709 344.353C340.709 351.101 346.179 356.572 352.927 356.572Z" fill="#D8ECFE"/>
<path d="M354.185 332.203C356.086 333.825 357.444 335.991 358.075 338.408C358.707 340.826 358.582 343.379 357.718 345.723C356.854 348.068 355.291 350.091 353.242 351.52C351.192 352.949 348.753 353.715 346.255 353.715C345.835 353.715 345.415 353.693 344.998 353.651C346.455 354.894 348.184 355.778 350.045 356.23C351.906 356.682 353.848 356.691 355.713 356.254C357.578 355.818 359.314 354.949 360.782 353.718C362.249 352.488 363.407 350.929 364.161 349.168C364.915 347.407 365.245 345.494 365.124 343.583C365.002 341.671 364.433 339.815 363.462 338.164C362.491 336.512 361.146 335.113 359.534 334.077C357.923 333.042 356.09 332.4 354.185 332.203Z" fill="#B3DAFE"/>
<path d="M352.927 341.471C352.738 341.471 352.556 341.395 352.422 341.261C352.288 341.127 352.212 340.945 352.212 340.756V337.755C352.212 337.565 352.288 337.383 352.422 337.249C352.556 337.115 352.738 337.04 352.927 337.04C353.117 337.04 353.299 337.115 353.433 337.249C353.567 337.383 353.642 337.565 353.642 337.755V340.756C353.642 340.945 353.567 341.127 353.433 341.261C353.299 341.395 353.117 341.471 352.927 341.471Z" fill="#9FACBA"/>
<path d="M352.927 337.755C353.767 337.755 354.447 337.074 354.447 336.235C354.447 335.395 353.767 334.715 352.927 334.715C352.088 334.715 351.407 335.395 351.407 336.235C351.407 337.074 352.088 337.755 352.927 337.755Z" fill="#FD4755"/>
<path d="M358.022 343.774H347.833C346.516 343.774 345.449 344.842 345.449 346.158V349.197C345.449 350.514 346.516 351.581 347.833 351.581H358.022C359.338 351.581 360.406 350.514 360.406 349.197V346.158C360.406 344.842 359.338 343.774 358.022 343.774Z" fill="#9FACBA"/>
<path d="M358.257 343.786C357.651 346.957 355.816 349.759 353.152 351.581H358.021C358.653 351.581 359.259 351.33 359.706 350.883C360.154 350.436 360.405 349.83 360.405 349.197V346.158C360.405 345.566 360.185 344.996 359.788 344.558C359.391 344.12 358.846 343.845 358.257 343.786Z" fill="#8D9CA8"/>
<path d="M349.352 349.197C350.191 349.197 350.871 348.517 350.871 347.677C350.871 346.838 350.191 346.157 349.352 346.157C348.512 346.157 347.832 346.838 347.832 347.677C347.832 348.517 348.512 349.197 349.352 349.197Z" fill="white"/>
<path d="M356.502 349.197C357.341 349.197 358.022 348.517 358.022 347.677C358.022 346.838 357.341 346.157 356.502 346.157C355.662 346.157 354.982 346.838 354.982 347.677C354.982 348.517 355.662 349.197 356.502 349.197Z" fill="white"/>
<path d="M356.502 349.197C356.821 349.198 357.131 349.098 357.39 348.912C357.649 348.726 357.843 348.464 357.944 348.162C358.045 347.86 358.049 347.533 357.954 347.229C357.86 346.925 357.672 346.658 357.417 346.466C357.006 347.389 356.481 348.258 355.855 349.051C356.058 349.147 356.278 349.197 356.502 349.197Z" fill="#E8EDF2"/>
<path d="M349.709 340.756H356.144C356.249 340.756 356.352 340.776 356.448 340.816C356.545 340.856 356.632 340.915 356.706 340.988C356.78 341.062 356.838 341.15 356.878 341.246C356.918 341.343 356.939 341.446 356.939 341.55V343.775H348.915V341.55C348.915 341.339 348.998 341.137 349.147 340.988C349.296 340.84 349.498 340.756 349.709 340.756Z" fill="#B6C4CF"/>
<path d="M378.731 332.135C373.487 332.135 369.237 335.208 369.237 339C369.237 340.449 369.86 341.793 370.921 342.901L368.613 345.627L374.61 345.188C375.936 345.643 377.329 345.873 378.731 345.867C383.976 345.867 388.226 342.794 388.226 339.002C388.226 335.21 383.975 332.135 378.731 332.135Z" fill="#FEDF30"/>
<path d="M383.6 333.105C384.714 334.23 385.365 335.606 385.365 337.092C385.365 340.883 381.114 343.957 375.871 343.957C374.468 343.963 373.073 343.733 371.746 343.278L370.522 343.367L368.613 345.627L374.61 345.188C375.936 345.644 377.329 345.873 378.731 345.867C383.976 345.867 388.226 342.794 388.226 339.002C388.226 336.495 386.371 334.304 383.6 333.105Z" fill="#FED402"/>
<path d="M382.779 341.275H374.73C374.541 341.275 374.359 341.2 374.225 341.066C374.091 340.932 374.015 340.75 374.015 340.56C374.015 340.37 374.091 340.189 374.225 340.054C374.359 339.92 374.541 339.845 374.73 339.845H382.779C382.969 339.845 383.151 339.92 383.285 340.054C383.419 340.189 383.494 340.37 383.494 340.56C383.494 340.75 383.419 340.932 383.285 341.066C383.151 341.2 382.969 341.275 382.779 341.275ZM382.779 337.789H374.73C374.541 337.789 374.359 337.714 374.225 337.58C374.091 337.446 374.015 337.264 374.015 337.074C374.015 336.884 374.091 336.702 374.225 336.568C374.359 336.434 374.541 336.359 374.73 336.359H382.779C382.969 336.359 383.151 336.434 383.285 336.568C383.419 336.702 383.494 336.884 383.494 337.074C383.494 337.264 383.419 337.446 383.285 337.58C383.151 337.714 382.969 337.789 382.779 337.789Z" fill="#FEF48B"/>
<path d="M350.203 379.525C355.447 379.525 359.697 376.451 359.697 372.659C359.697 371.21 359.075 369.866 358.014 368.758L360.322 366.032L354.324 366.471C352.998 366.016 351.605 365.786 350.203 365.792C344.959 365.792 340.709 368.865 340.709 372.657C340.709 376.45 344.96 379.525 350.203 379.525Z" fill="#FEDF30"/>
<path d="M360.322 366.032L355.549 366.381L355.155 366.852C356.215 367.96 356.838 369.304 356.838 370.753C356.838 374.545 352.587 377.619 347.343 377.619C345.671 377.629 344.013 377.299 342.473 376.647C344.195 378.389 347.015 379.525 350.202 379.525C355.446 379.525 359.696 376.452 359.696 372.659C359.696 371.21 359.074 369.867 358.013 368.759L360.322 366.032Z" fill="#FED402"/>
<path d="M354.201 371.815H346.155C345.966 371.815 345.784 371.739 345.65 371.605C345.516 371.471 345.44 371.289 345.44 371.099C345.44 370.91 345.516 370.728 345.65 370.594C345.784 370.46 345.966 370.384 346.155 370.384H354.201C354.391 370.384 354.573 370.46 354.707 370.594C354.841 370.728 354.916 370.91 354.916 371.099C354.916 371.289 354.841 371.471 354.707 371.605C354.573 371.739 354.391 371.815 354.201 371.815ZM354.201 375.301H346.155C345.966 375.301 345.784 375.225 345.65 375.091C345.516 374.957 345.44 374.775 345.44 374.585C345.44 374.396 345.516 374.214 345.65 374.08C345.784 373.946 345.966 373.87 346.155 373.87H354.201C354.391 373.87 354.573 373.946 354.707 374.08C354.841 374.214 354.916 374.396 354.916 374.585C354.916 374.775 354.841 374.957 354.707 375.091C354.573 375.225 354.391 375.301 354.201 375.301Z" fill="#FEF48B"/>
</g>
<rect x="319.372" y="56.4606" width="90.485" height="89.8413" rx="29.9369" fill="white"/>
<rect x="319.372" y="56.4606" width="90.485" height="89.8413" rx="29.9369" stroke="#FFC379" stroke-width="0.921136"/>
<g clip-path="url(#clip2_51_1986)">
<path d="M369.485 96.4619H392.062C392.865 96.4619 393.523 97.12 393.523 97.9231V116.718C393.523 117.521 392.865 118.179 392.062 118.179H369.485C368.682 118.179 368.024 117.521 368.024 116.718V97.9231C368.013 97.1089 368.671 96.4619 369.485 96.4619Z" fill="url(#paint6_linear_51_1986)"/>
<path d="M368.013 105.899V116.707C368.013 117.51 368.671 118.168 369.474 118.168H392.051C392.854 118.168 393.512 117.51 393.512 116.707V105.899H368.013Z" fill="url(#paint7_linear_51_1986)"/>
<path d="M392.062 96.4619H378.13V118.179H392.062C392.865 118.179 393.523 117.521 393.523 116.718V97.9231C393.523 97.1089 392.865 96.4619 392.062 96.4619Z" fill="url(#paint8_linear_51_1986)"/>
<path d="M337.874 96.4619H360.45C361.253 96.4619 361.912 97.12 361.912 97.9231V116.718C361.912 117.521 361.253 118.179 360.45 118.179H337.874C337.071 118.179 336.413 117.521 336.413 116.718V97.9231C336.413 97.1089 337.071 96.4619 337.874 96.4619Z" fill="url(#paint9_linear_51_1986)"/>
<path d="M336.413 105.899V116.707C336.413 117.51 337.071 118.168 337.874 118.168H360.45C361.253 118.168 361.912 117.51 361.912 116.707V105.899H336.413Z" fill="url(#paint10_linear_51_1986)"/>
<path d="M360.45 96.4619H346.53V118.179H360.461C361.265 118.179 361.923 117.521 361.923 116.718V97.9231C361.923 97.1089 361.265 96.4619 360.45 96.4619Z" fill="url(#paint11_linear_51_1986)"/>
<path d="M361.923 116.707V110.07H349.764L357.874 118.18H360.461C361.265 118.18 361.923 117.521 361.923 116.707Z" fill="url(#paint12_linear_51_1986)"/>
<path d="M351.136 84.0918H378.799C379.792 84.0918 380.595 84.8949 380.595 85.8877V108.91C380.595 109.903 379.792 110.706 378.799 110.706H351.136C350.144 110.706 349.341 109.903 349.341 108.91V85.8877C349.341 84.8949 350.144 84.0918 351.136 84.0918Z" fill="url(#paint13_linear_51_1986)"/>
<path d="M349.341 95.67V108.921C349.341 109.914 350.144 110.717 351.136 110.717H378.799C379.792 110.717 380.595 109.914 380.595 108.921V95.67H349.341Z" fill="url(#paint14_linear_51_1986)"/>
<path d="M378.799 84.0918H361.733V110.706H378.799C379.792 110.706 380.595 109.903 380.595 108.91V85.8877C380.595 84.8949 379.792 84.0918 378.799 84.0918Z" fill="url(#paint15_linear_51_1986)"/>
<path d="M340.361 106.635L342.369 104.627C342.726 104.27 342.726 103.679 342.369 103.322C342.012 102.965 341.421 102.965 341.064 103.322L338.097 106.289C337.528 106.858 337.528 107.784 338.097 108.353L341.064 111.32C341.421 111.677 342.012 111.677 342.369 111.32C342.726 110.963 342.726 110.371 342.369 110.015L340.361 108.007C339.982 107.616 339.982 107.014 340.361 106.635Z" fill="url(#paint16_linear_51_1986)"/>
<path d="M340.361 106.635L342.369 104.627C342.726 104.27 342.726 103.679 342.369 103.322C342.012 102.965 341.421 102.965 341.064 103.322L338.097 106.289C337.528 106.858 337.528 107.784 338.097 108.353L341.064 111.32C341.421 111.677 342.012 111.677 342.369 111.32C342.726 110.963 342.726 110.371 342.369 110.015L340.361 108.007C339.982 107.616 339.982 107.014 340.361 106.635Z" fill="url(#paint17_linear_51_1986)"/>
<path d="M389.574 106.635L387.567 104.627C387.21 104.27 387.21 103.679 387.567 103.322C387.923 102.965 388.515 102.965 388.872 103.322L391.839 106.289C392.408 106.858 392.408 107.784 391.839 108.353L388.872 111.32C388.515 111.677 387.923 111.677 387.567 111.32C387.21 110.963 387.21 110.371 387.567 110.015L389.574 108.007C389.954 107.616 389.954 107.014 389.574 106.635Z" fill="url(#paint18_linear_51_1986)"/>
<path d="M389.574 106.635L387.567 104.627C387.21 104.27 387.21 103.679 387.567 103.322C387.923 102.965 388.515 102.965 388.872 103.322L391.839 106.289C392.408 106.858 392.408 107.784 391.839 108.353L388.872 111.32C388.515 111.677 387.923 111.677 387.567 111.32C387.21 110.963 387.21 110.371 387.567 110.015L389.574 108.007C389.954 107.616 389.954 107.014 389.574 106.635Z" fill="url(#paint19_linear_51_1986)"/>
<path opacity="0.55" d="M369.485 96.4619C368.682 96.4619 368.024 97.12 368.024 97.9231V110.706H378.799C379.792 110.706 380.595 109.903 380.595 108.91V96.4619H369.485Z" fill="url(#paint20_linear_51_1986)"/>
<path d="M360.45 96.4619H349.329V108.921C349.329 109.914 350.132 110.717 351.125 110.717H361.911V97.9231C361.923 97.1089 361.265 96.4619 360.45 96.4619Z" fill="url(#paint21_linear_51_1986)"/>
</g>
<rect x="118.461" y="311.124" width="90.485" height="89.8413" rx="29.9369" fill="white"/>
<rect x="118.461" y="311.124" width="90.485" height="89.8413" rx="29.9369" stroke="#FFC379" stroke-width="0.921136"/>
<g clip-path="url(#clip3_51_1986)">
<path d="M157.425 377.354V358.286C157.425 357.846 157.25 357.425 156.939 357.114C156.628 356.803 156.206 356.628 155.767 356.628H149.134C148.695 356.628 148.273 356.803 147.962 357.114C147.651 357.425 147.476 357.846 147.476 358.286V377.354H157.425Z" fill="#E84D4D"/>
<path d="M170.689 377.354V352.483C170.689 352.043 170.514 351.622 170.203 351.311C169.892 351 169.471 350.825 169.031 350.825H162.399C161.959 350.825 161.537 351 161.226 351.311C160.915 351.622 160.741 352.043 160.741 352.483V377.354H170.689Z" fill="#5E72E5"/>
<path d="M183.954 377.354V361.602C183.954 361.163 183.779 360.741 183.468 360.43C183.157 360.119 182.735 359.944 182.295 359.944H175.663C175.224 359.944 174.802 360.119 174.491 360.43C174.18 360.741 174.005 361.163 174.005 361.602V377.354H183.954Z" fill="#FFCB57"/>
<path d="M188.099 378.183C188.099 378.623 187.924 379.044 187.613 379.355C187.302 379.666 186.88 379.841 186.44 379.841H144.16C143.616 379.841 143.077 379.734 142.574 379.525C142.071 379.317 141.614 379.012 141.229 378.627C140.452 377.849 140.015 376.795 140.015 375.696V333.416C140.015 332.976 140.19 332.554 140.501 332.243C140.812 331.932 141.234 331.758 141.673 331.758C142.113 331.758 142.535 331.932 142.846 332.243C143.157 332.554 143.331 332.976 143.331 333.416V375.696C143.331 375.916 143.419 376.126 143.574 376.282C143.73 376.437 143.94 376.525 144.16 376.525H186.44C186.88 376.525 187.302 376.699 187.613 377.01C187.924 377.321 188.099 377.743 188.099 378.183Z" fill="#DCEDFF"/>
<path d="M188.098 340.048C188.098 342.247 187.225 344.355 185.67 345.91C184.116 347.465 182.007 348.338 179.808 348.338L178.979 339.219L185.669 334.187C186.44 334.956 187.052 335.869 187.469 336.875C187.886 337.881 188.1 338.959 188.098 340.048Z" fill="#5E72E5"/>
<path d="M179.808 339.219V348.338C177.61 348.338 175.501 347.465 173.946 345.91C172.391 344.355 171.518 342.246 171.518 340.048L179.808 339.219Z" fill="#E84D4D"/>
<path d="M185.669 334.187L179.808 340.048H171.518C171.518 338.408 172.005 336.806 172.916 335.443C173.827 334.08 175.121 333.018 176.636 332.39C178.151 331.763 179.817 331.599 181.425 331.918C183.033 332.238 184.51 333.027 185.669 334.187Z" fill="#FFCB57"/>
</g>
<rect x="118.461" y="56.4606" width="90.485" height="89.8413" rx="29.9369" fill="white"/>
<rect x="118.461" y="56.4606" width="90.485" height="89.8413" rx="29.9369" stroke="#FFC379" stroke-width="0.921136"/>
<g clip-path="url(#clip4_51_1986)">
<path d="M138.265 122.69V79.5812C138.265 78.2241 139.313 77.1863 140.683 77.1863H187.431C188.801 77.1863 189.849 78.2241 189.849 79.5812V122.69C189.849 124.048 188.801 125.085 187.431 125.085H140.683C139.313 125.085 138.265 124.048 138.265 122.69Z" fill="#CAD1D8"/>
<path d="M140.683 81.1777C141.128 81.1777 141.489 80.8203 141.489 80.3794C141.489 79.9385 141.128 79.5811 140.683 79.5811C140.238 79.5811 139.877 79.9385 139.877 80.3794C139.877 80.8203 140.238 81.1777 140.683 81.1777Z" fill="#9BA7AF"/>
<path d="M143.907 81.1777C144.352 81.1777 144.713 80.8203 144.713 80.3794C144.713 79.9385 144.352 79.5811 143.907 79.5811C143.462 79.5811 143.101 79.9385 143.101 80.3794C143.101 80.8203 143.462 81.1777 143.907 81.1777Z" fill="#9BA7AF"/>
<path d="M147.131 81.1777C147.576 81.1777 147.937 80.8203 147.937 80.3794C147.937 79.9385 147.576 79.5811 147.131 79.5811C146.686 79.5811 146.325 79.9385 146.325 80.3794C146.325 80.8203 146.686 81.1777 147.131 81.1777Z" fill="#9BA7AF"/>
<path d="M140.683 83.5729H187.431C187.914 83.5729 188.237 83.8922 188.237 84.3712V122.69C188.237 123.169 187.914 123.489 187.431 123.489H140.683C140.199 123.489 139.877 123.169 139.877 122.69V84.3712C139.877 83.8922 140.199 83.5729 140.683 83.5729Z" fill="white"/>
<path d="M187.431 81.1777H150.355C149.871 81.1777 149.549 80.8584 149.549 80.3794C149.549 79.9004 149.871 79.5811 150.355 79.5811H187.431C187.914 79.5811 188.237 79.9004 188.237 80.3794C188.237 80.8584 187.914 81.1777 187.431 81.1777Z" fill="#E2E5E7"/>
<path d="M143.907 89.161C143.907 88.682 144.23 88.3627 144.713 88.3627H152.773C153.257 88.3627 153.579 88.682 153.579 89.161C153.579 89.64 153.257 89.9593 152.773 89.9593H144.713C144.23 89.9593 143.907 89.64 143.907 89.161ZM143.907 95.5475C143.907 95.0685 144.23 94.7492 144.713 94.7492H152.773C153.257 94.7492 153.579 95.0685 153.579 95.5475C153.579 96.0265 153.257 96.3458 152.773 96.3458H144.713C144.23 96.3458 143.907 96.0265 143.907 95.5475ZM143.907 101.934C143.907 101.455 144.23 101.136 144.713 101.136H152.773C153.257 101.136 153.579 101.455 153.579 101.934C153.579 102.413 153.257 102.732 152.773 102.732H144.713C144.23 102.732 143.907 102.413 143.907 101.934Z" fill="#CAD1D8"/>
<path d="M183.401 88.3627H159.221C158.737 88.3627 158.415 88.682 158.415 89.161V92.3543C158.415 92.8332 158.737 93.1526 159.221 93.1526H183.401C183.884 93.1526 184.207 92.8332 184.207 92.3543V89.161C184.207 88.682 183.884 88.3627 183.401 88.3627ZM183.401 92.3543H159.221V89.161H183.401V92.3543ZM183.401 94.7492H159.221C158.737 94.7492 158.415 95.0685 158.415 95.5475V98.7408C158.415 99.2198 158.737 99.5391 159.221 99.5391H183.401C183.884 99.5391 184.207 99.2198 184.207 98.7408V95.5475C184.207 95.0685 183.884 94.7492 183.401 94.7492ZM183.401 98.7408H159.221V95.5475H183.401V98.7408Z" fill="#9BA7AF"/>
<path d="M181.789 119.497H170.505C169.135 119.497 168.087 118.459 168.087 117.102C168.087 115.745 169.135 114.707 170.505 114.707H181.789C183.159 114.707 184.207 115.745 184.207 117.102C184.207 118.459 183.159 119.497 181.789 119.497Z" fill="#E2E5E7"/>
<path d="M181.789 118.699H170.505C169.135 118.699 168.087 117.661 168.087 116.304C168.087 114.947 169.135 113.909 170.505 113.909H181.789C183.159 113.909 184.207 114.947 184.207 116.304C184.207 117.661 183.159 118.699 181.789 118.699Z" fill="#3BB54A"/>
<path d="M176.147 117.102C176.592 117.102 176.953 116.745 176.953 116.304C176.953 115.863 176.592 115.505 176.147 115.505C175.702 115.505 175.341 115.863 175.341 116.304C175.341 116.745 175.702 117.102 176.147 117.102Z" fill="#0E9347"/>
<path d="M179.371 117.102C179.816 117.102 180.177 116.745 180.177 116.304C180.177 115.863 179.816 115.505 179.371 115.505C178.926 115.505 178.565 115.863 178.565 116.304C178.565 116.745 178.926 117.102 179.371 117.102Z" fill="#0E9347"/>
<path d="M172.923 117.102C173.368 117.102 173.729 116.745 173.729 116.304C173.729 115.863 173.368 115.505 172.923 115.505C172.478 115.505 172.117 115.863 172.117 116.304C172.117 116.745 172.478 117.102 172.923 117.102Z" fill="#0E9347"/>
<path d="M159.221 89.1609H183.401V92.3542H159.221V89.1609ZM159.221 95.5474H183.401V98.7407H159.221V95.5474Z" fill="#E2E5E7"/>
<path d="M183.401 101.136H159.221C158.737 101.136 158.415 101.455 158.415 101.934V109.917C158.415 110.396 158.737 110.716 159.221 110.716H183.401C183.884 110.716 184.207 110.396 184.207 109.917V101.934C184.207 101.455 183.884 101.136 183.401 101.136ZM183.401 109.917H159.221V101.934H183.401V109.917Z" fill="#9BA7AF"/>
<path d="M159.221 101.934H183.401V109.917H159.221V101.934Z" fill="#E2E5E7"/>
</g>
<rect x="218.916" y="311.124" width="90.485" height="89.8413" rx="29.9369" fill="white"/>
<rect x="218.916" y="311.124" width="90.485" height="89.8413" rx="29.9369" stroke="#FFC379" stroke-width="0.921136"/>
<g clip-path="url(#clip5_51_1986)">
<path d="M238.72 377.354V334.245C238.72 332.887 239.768 331.85 241.138 331.85H287.886C289.256 331.85 290.304 332.887 290.304 334.245V377.354C290.304 378.711 289.256 379.749 287.886 379.749H241.138C239.768 379.749 238.72 378.711 238.72 377.354Z" fill="#CAD1D8"/>
<path d="M241.139 335.841C241.584 335.841 241.945 335.484 241.945 335.043C241.945 334.602 241.584 334.245 241.139 334.245C240.693 334.245 240.333 334.602 240.333 335.043C240.333 335.484 240.693 335.841 241.139 335.841Z" fill="#9BA7AF"/>
<path d="M244.363 335.841C244.808 335.841 245.169 335.484 245.169 335.043C245.169 334.602 244.808 334.245 244.363 334.245C243.917 334.245 243.557 334.602 243.557 335.043C243.557 335.484 243.917 335.841 244.363 335.841Z" fill="#9BA7AF"/>
<path d="M247.586 335.841C248.032 335.841 248.392 335.484 248.392 335.043C248.392 334.602 248.032 334.245 247.586 334.245C247.141 334.245 246.78 334.602 246.78 335.043C246.78 335.484 247.141 335.841 247.586 335.841Z" fill="#9BA7AF"/>
<path d="M241.139 338.236H287.886C288.37 338.236 288.692 338.556 288.692 339.035V377.354C288.692 377.833 288.37 378.152 287.886 378.152H241.139C240.655 378.152 240.333 377.833 240.333 377.354V339.035C240.333 338.556 240.655 338.236 241.139 338.236Z" fill="white"/>
<path d="M287.886 335.841H250.81C250.327 335.841 250.004 335.522 250.004 335.043C250.004 334.564 250.327 334.245 250.81 334.245H287.886C288.37 334.245 288.692 334.564 288.692 335.043C288.692 335.522 288.37 335.841 287.886 335.841Z" fill="#E2E5E7"/>
<path d="M275.796 343.026C275.796 342.547 276.119 342.228 276.602 342.228H284.662C285.146 342.228 285.468 342.547 285.468 343.026C285.468 343.505 285.146 343.824 284.662 343.824H276.602C276.119 343.824 275.796 343.505 275.796 343.026ZM275.796 346.219C275.796 345.74 276.119 345.421 276.602 345.421H283.05C283.534 345.421 283.856 345.74 283.856 346.219C283.856 346.698 283.534 347.018 283.05 347.018H276.602C276.119 347.018 275.796 346.698 275.796 346.219ZM275.796 352.606C275.796 352.127 276.119 351.808 276.602 351.808H284.662C285.146 351.808 285.468 352.127 285.468 352.606C285.468 353.085 285.146 353.404 284.662 353.404H276.602C276.119 353.404 275.796 353.085 275.796 352.606ZM275.796 349.413C275.796 348.934 276.119 348.614 276.602 348.614H284.662C285.146 348.614 285.468 348.934 285.468 349.413C285.468 349.892 285.146 350.211 284.662 350.211H276.602C276.119 350.211 275.796 349.892 275.796 349.413ZM275.796 355.799C275.796 355.32 276.119 355.001 276.602 355.001H283.05C283.534 355.001 283.856 355.32 283.856 355.799C283.856 356.278 283.534 356.597 283.05 356.597H276.602C276.119 356.597 275.796 356.278 275.796 355.799Z" fill="#CAD1D8"/>
<path d="M243.153 343.026C243.153 342.547 243.476 342.228 243.959 342.228H256.049C256.533 342.228 256.855 342.547 256.855 343.026C256.855 343.505 256.533 343.824 256.049 343.824H243.959C243.476 343.824 243.153 343.505 243.153 343.026Z" fill="#595A66"/>
<path d="M257.258 374.161H245.974C244.604 374.161 243.557 373.123 243.557 371.766C243.557 370.408 244.604 369.371 245.974 369.371H257.258C258.629 369.371 259.676 370.408 259.676 371.766C259.676 373.123 258.629 374.161 257.258 374.161Z" fill="#E2E5E7"/>
<path d="M257.258 373.362H245.974C244.604 373.362 243.557 372.324 243.557 370.967C243.557 369.61 244.604 368.572 245.974 368.572H257.258C258.629 368.572 259.676 369.61 259.676 370.967C259.676 372.324 258.629 373.362 257.258 373.362Z" fill="#3BB54A"/>
<path d="M251.616 371.766C252.061 371.766 252.422 371.408 252.422 370.967C252.422 370.526 252.061 370.169 251.616 370.169C251.171 370.169 250.81 370.526 250.81 370.967C250.81 371.408 251.171 371.766 251.616 371.766Z" fill="#0E9347"/>
<path d="M254.84 371.766C255.286 371.766 255.646 371.408 255.646 370.967C255.646 370.526 255.286 370.169 254.84 370.169C254.395 370.169 254.034 370.526 254.034 370.967C254.034 371.408 254.395 371.766 254.84 371.766Z" fill="#0E9347"/>
<path d="M248.392 371.766C248.838 371.766 249.198 371.408 249.198 370.967C249.198 370.526 248.838 370.169 248.392 370.169C247.947 370.169 247.586 370.526 247.586 370.967C247.586 371.408 247.947 371.766 248.392 371.766Z" fill="#0E9347"/>
<path d="M271.766 346.219H244.363C243.879 346.219 243.557 346.539 243.557 347.018V350.211C243.557 350.69 243.879 351.009 244.363 351.009H271.766C272.25 351.009 272.572 350.69 272.572 350.211V347.018C272.572 346.539 272.25 346.219 271.766 346.219ZM271.766 350.211H244.363V347.018H271.766V350.211Z" fill="#CAD1D8"/>
<path d="M271.766 347.018H244.362V350.211H271.766V347.018Z" fill="#E2E5E7"/>
<path d="M271.766 353.404H244.363C243.879 353.404 243.557 353.724 243.557 354.203V357.396C243.557 357.875 243.879 358.194 244.363 358.194H271.766C272.25 358.194 272.572 357.875 272.572 357.396V354.203C272.572 353.724 272.25 353.404 271.766 353.404ZM271.766 357.396H244.363V354.203H271.766V357.396Z" fill="#CAD1D8"/>
<path d="M271.766 354.202H244.362V357.396H271.766V354.202Z" fill="#E2E5E7"/>
<path d="M271.766 360.589H244.363C243.879 360.589 243.557 360.908 243.557 361.387V364.581C243.557 365.06 243.879 365.379 244.363 365.379H271.766C272.25 365.379 272.572 365.06 272.572 364.581V361.387C272.572 360.908 272.25 360.589 271.766 360.589ZM271.766 364.581H244.363V361.387H271.766V364.581Z" fill="#CAD1D8"/>
<path d="M271.766 361.387H244.362V364.581H271.766V361.387Z" fill="#E2E5E7"/>
</g>
<rect x="218.916" y="56.4606" width="90.485" height="89.8413" rx="29.9369" fill="white"/>
<rect x="218.916" y="56.4606" width="90.485" height="89.8413" rx="29.9369" stroke="#FFC379" stroke-width="0.921136"/>
<g clip-path="url(#clip6_51_1986)">
<path d="M282.043 104.439C282.043 115.947 272.717 125.276 261.207 125.276V115.77C264.211 115.767 267.091 114.572 269.215 112.448C271.339 110.323 272.533 107.443 272.536 104.439H282.043Z" fill="#FE9738"/>
<path d="M279.077 104.439C278.397 114.295 270.863 122.263 261.207 123.614V125.276C272.715 125.276 282.043 115.949 282.043 104.439H279.077Z" fill="#FE860A"/>
<path d="M261.209 115.77V125.278C249.699 125.278 240.37 115.949 240.37 104.439H249.877C249.88 107.443 251.075 110.324 253.199 112.449C255.324 114.573 258.205 115.768 261.209 115.77Z" fill="#FD4755"/>
<path d="M261.209 83.6049V93.1121C258.205 93.1146 255.325 94.3087 253.201 96.4322C251.077 98.5557 249.881 101.435 249.877 104.439H240.37C240.37 92.9333 249.699 83.6049 261.209 83.6049Z" fill="#26A6FE"/>
<path d="M267.815 86.5009C270.82 86.5034 273.701 87.6981 275.825 89.8227C277.95 91.9472 279.145 94.828 279.147 97.8325H288.654C288.654 86.3221 279.326 76.9937 267.815 76.9937V86.5009Z" fill="#FED402"/>
<path d="M285.691 97.8325H288.654C288.654 86.3221 279.326 76.9937 267.815 76.9937V78.6549C277.473 80.0063 285.011 87.9746 285.691 97.8325Z" fill="#FAC600"/>
<path d="M257.828 108.414C257.684 108.414 257.544 108.371 257.424 108.291C257.304 108.211 257.211 108.098 257.156 107.964C257.101 107.831 257.086 107.685 257.114 107.544C257.142 107.402 257.212 107.273 257.313 107.171L263.087 101.397C263.224 101.264 263.408 101.191 263.6 101.192C263.791 101.194 263.973 101.27 264.109 101.406C264.244 101.541 264.32 101.723 264.322 101.914C264.324 102.105 264.251 102.289 264.118 102.427L258.344 108.202C258.207 108.338 258.022 108.415 257.828 108.414ZM264.256 110.922C263.627 110.921 263.017 110.703 262.531 110.303C262.045 109.903 261.712 109.348 261.59 108.73C261.467 108.113 261.563 107.472 261.86 106.918C262.157 106.363 262.637 105.928 263.219 105.688C263.8 105.447 264.447 105.416 265.049 105.599C265.651 105.782 266.171 106.168 266.521 106.692C266.87 107.215 267.027 107.844 266.965 108.47C266.903 109.096 266.626 109.681 266.18 110.126C265.928 110.379 265.628 110.579 265.298 110.716C264.967 110.853 264.613 110.923 264.256 110.922ZM264.256 106.939C263.964 106.939 263.681 107.04 263.455 107.226C263.229 107.411 263.075 107.669 263.018 107.955C262.961 108.242 263.005 108.539 263.143 108.797C263.28 109.055 263.503 109.257 263.773 109.368C264.043 109.48 264.343 109.495 264.623 109.41C264.903 109.325 265.144 109.146 265.306 108.903C265.469 108.66 265.542 108.369 265.513 108.078C265.485 107.787 265.356 107.515 265.15 107.309C265.033 107.191 264.893 107.097 264.74 107.034C264.586 106.97 264.422 106.937 264.256 106.938V106.939ZM257.313 103.98C256.684 103.98 256.074 103.762 255.588 103.363C255.101 102.964 254.768 102.408 254.646 101.791C254.523 101.173 254.618 100.533 254.915 99.9777C255.211 99.4227 255.691 98.9877 256.273 98.7469C256.854 98.5061 257.501 98.4744 258.103 98.6571C258.706 98.8398 259.226 99.2257 259.575 99.749C259.925 100.272 260.082 100.901 260.021 101.527C259.959 102.153 259.682 102.739 259.237 103.184C258.985 103.437 258.685 103.638 258.355 103.775C258.025 103.912 257.671 103.981 257.313 103.98ZM257.313 99.9972C257.106 99.9976 256.902 100.049 256.719 100.147C256.536 100.245 256.38 100.387 256.265 100.56C256.15 100.732 256.079 100.93 256.059 101.137C256.039 101.343 256.07 101.552 256.149 101.743C256.228 101.935 256.354 102.104 256.514 102.236C256.675 102.368 256.865 102.458 257.068 102.499C257.272 102.539 257.482 102.529 257.681 102.469C257.879 102.409 258.06 102.301 258.207 102.155C258.384 101.978 258.505 101.753 258.554 101.508C258.603 101.262 258.578 101.008 258.483 100.777C258.387 100.546 258.225 100.348 258.017 100.209C257.808 100.071 257.564 99.9967 257.313 99.9972Z" fill="#8AC9FE"/>
<path d="M257.751 93.1032C254.744 93.1032 251.86 94.2973 249.734 96.4231C247.608 98.5488 246.413 101.432 246.412 104.439H249.877C249.881 101.729 250.854 99.11 252.621 97.0555C254.388 95.0009 256.831 93.6465 259.51 93.2372C258.928 93.1472 258.34 93.1024 257.751 93.1032Z" fill="#0593FC"/>
<path d="M249.877 104.439H246.412C246.413 106.076 246.768 107.694 247.453 109.182C248.139 110.669 249.138 111.99 250.382 113.055C251.627 114.119 253.087 114.902 254.662 115.349C256.238 115.796 257.891 115.896 259.509 115.643C256.83 115.234 254.386 113.879 252.62 111.824C250.853 109.768 249.88 107.149 249.877 104.439Z" fill="#FB2B3A"/>
</g>
<g clip-path="url(#clip7_51_1986)">
<path d="M218.455 224.748C218.455 199.684 239.095 179.366 264.158 179.366C289.222 179.366 309.862 199.684 309.862 224.748C309.862 249.811 289.222 270.129 264.158 270.129C239.095 270.129 218.455 249.811 218.455 224.748Z" fill="white"/>
<rect x="218.455" y="178.445" width="92.1136" height="91.4649" rx="45.7324" fill="white"/>
<path d="M274.5 246.272H255.343C250.134 246.272 245.923 242.061 245.923 236.852V217.822C245.923 212.55 250.197 208.275 255.469 208.275H274.389C279.645 208.275 283.92 212.55 283.92 217.822V236.868C283.92 242.061 279.708 246.272 274.5 246.272Z" fill="url(#paint22_radial_51_1986)"/>
<path d="M245.923 217.775C245.923 212.528 250.176 208.275 255.422 208.275H258.588V246.272H255.422C250.176 246.272 245.923 242.019 245.923 236.773V217.775Z" fill="url(#paint23_linear_51_1986)"/>
<path d="M245.923 236.773H283.92C283.92 242.019 279.667 246.272 274.42 246.272H255.422C250.176 246.272 245.923 242.019 245.923 236.773Z" fill="url(#paint24_linear_51_1986)"/>
<path d="M271.254 208.275H274.42C279.667 208.275 283.92 212.528 283.92 217.775V236.773C283.92 242.019 279.667 246.272 274.42 246.272H271.254V208.275Z" fill="url(#paint25_radial_51_1986)"/>
<path d="M245.131 205.03V219.437" stroke="url(#paint26_linear_51_1986)" stroke-width="0.0989501" stroke-miterlimit="10"/>
<path d="M245.923 217.775V235.19C244.181 235.19 242.756 233.766 242.756 232.026V220.938C242.756 219.198 244.181 217.775 245.923 217.775Z" fill="url(#paint27_linear_51_1986)"/>
<path d="M275.612 228.065H254.23C250.526 228.065 247.506 225.043 247.506 221.337C247.506 217.63 250.526 214.608 254.23 214.608H275.612C279.316 214.608 282.336 217.63 282.336 221.337C282.336 225.027 279.3 228.065 275.612 228.065Z" fill="url(#paint28_linear_51_1986)"/>
<path d="M268.924 239.939H260.919C259.635 239.939 258.588 238.873 258.588 237.565C258.588 236.256 259.635 235.19 260.919 235.19H268.924C270.208 235.19 271.254 236.256 271.254 237.565C271.254 238.873 270.208 239.939 268.924 239.939Z" fill="url(#paint29_linear_51_1986)"/>
<path d="M245.131 206.692C246.443 206.692 247.506 205.629 247.506 204.317C247.506 203.006 246.443 201.943 245.131 201.943C243.82 201.943 242.756 203.006 242.756 204.317C242.756 205.629 243.82 206.692 245.131 206.692Z" fill="url(#paint30_radial_51_1986)"/>
<path d="M284.711 205.109V219.5" stroke="url(#paint31_linear_51_1986)" stroke-width="0.0989501" stroke-miterlimit="10"/>
<path d="M284.711 206.85C286.067 206.85 287.165 205.752 287.165 204.396C287.165 203.041 286.067 201.943 284.711 201.943C283.356 201.943 282.257 203.041 282.257 204.396C282.257 205.752 283.356 206.85 284.711 206.85Z" fill="url(#paint32_radial_51_1986)"/>
<path d="M254.63 217.775H253.839C252.09 217.775 250.672 219.192 250.672 220.941V224.107C250.672 225.856 252.09 227.274 253.839 227.274H254.63C256.379 227.274 257.797 225.856 257.797 224.107V220.941C257.797 219.192 256.379 217.775 254.63 217.775Z" fill="url(#paint33_radial_51_1986)"/>
<path d="M272.837 217.775H272.046C270.297 217.775 268.879 219.192 268.879 220.941V224.107C268.879 225.856 270.297 227.274 272.046 227.274H272.837C274.586 227.274 276.004 225.856 276.004 224.107V220.941C276.004 219.192 274.586 217.775 272.837 217.775Z" fill="url(#paint34_radial_51_1986)"/>
<path d="M270.462 203.526H259.38C258.068 203.526 257.005 204.589 257.005 205.9C257.005 207.212 258.068 208.275 259.38 208.275H270.462C271.774 208.275 272.837 207.212 272.837 205.9C272.837 204.589 271.774 203.526 270.462 203.526Z" fill="url(#paint35_linear_51_1986)"/>
<path d="M270.462 203.526H259.38C258.068 203.526 257.005 204.589 257.005 205.9C257.005 207.212 258.068 208.275 259.38 208.275H270.462C271.774 208.275 272.837 207.212 272.837 205.9C272.837 204.589 271.774 203.526 270.462 203.526Z" fill="url(#paint36_radial_51_1986)"/>
<path d="M283.92 235.095V217.664C285.661 217.664 287.086 219.089 287.086 220.83V231.929C287.086 233.67 285.661 235.095 283.92 235.095Z" fill="url(#paint37_linear_51_1986)"/>
<path d="M257.797 219.754C257.797 218.661 256.911 217.775 255.818 217.775C254.725 217.775 253.839 218.661 253.839 219.754V223.712C253.839 224.805 254.725 225.691 255.818 225.691C256.911 225.691 257.797 224.805 257.797 223.712V219.754Z" fill="url(#paint38_linear_51_1986)"/>
<path d="M257.797 219.754C257.797 218.661 256.911 217.775 255.818 217.775C254.725 217.775 253.839 218.661 253.839 219.754V223.712C253.839 224.805 254.725 225.691 255.818 225.691C256.911 225.691 257.797 224.805 257.797 223.712V219.754Z" fill="url(#paint39_radial_51_1986)"/>
<path d="M276.004 219.754C276.004 218.661 275.118 217.775 274.025 217.775C272.932 217.775 272.046 218.661 272.046 219.754V223.712C272.046 224.805 272.932 225.691 274.025 225.691C275.118 225.691 276.004 224.805 276.004 223.712V219.754Z" fill="url(#paint40_linear_51_1986)"/>
<path d="M276.004 219.754C276.004 218.661 275.118 217.775 274.025 217.775C272.932 217.775 272.046 218.661 272.046 219.754V223.712C272.046 224.805 272.932 225.691 274.025 225.691C275.118 225.691 276.004 224.805 276.004 223.712V219.754Z" fill="url(#paint41_radial_51_1986)"/>
<g filter="url(#filter0_f_51_1986)">
<path d="M245.329 206.692V216.191" stroke="url(#paint42_linear_51_1986)" stroke-width="0.0247375"/>
</g>
<g filter="url(#filter1_f_51_1986)">
<path d="M284.909 206.692V216.191" stroke="url(#paint43_linear_51_1986)" stroke-width="0.0247375"/>
</g>
<path d="M285.503 222.524C286.377 222.524 287.086 221.461 287.086 220.149C287.086 218.838 286.377 217.775 285.503 217.775C284.629 217.775 283.92 218.838 283.92 220.149C283.92 221.461 284.629 222.524 285.503 222.524Z" fill="url(#paint44_radial_51_1986)"/>
<path d="M285.503 232.023C286.377 232.023 287.086 228.834 287.086 224.899C287.086 220.964 286.377 217.775 285.503 217.775C284.629 217.775 283.92 220.964 283.92 224.899C283.92 228.834 284.629 232.023 285.503 232.023Z" fill="url(#paint45_radial_51_1986)"/>
<path fill-rule="evenodd" clip-rule="evenodd" d="M270.899 203.566C271.861 203.744 272.619 204.502 272.797 205.464C272.636 206.167 272.006 206.692 271.254 206.692C270.38 206.692 269.671 205.983 269.671 205.109C269.671 204.357 270.195 203.727 270.899 203.566Z" fill="url(#paint46_radial_51_1986)"/>
</g>
<path d="M264.159 179.827C288.972 179.827 309.401 199.943 309.401 224.747C309.401 249.552 288.972 269.668 264.159 269.668C239.345 269.668 218.916 249.552 218.916 224.747C218.917 199.943 239.345 179.827 264.159 179.827Z" stroke="#FF8E00" stroke-width="0.921136"/>
<path d="M-90.9999 421.5C13.3819 421.5 98.0001 336.882 98.0001 232.5C98.0001 128.118 13.3819 43.5003 -91 43.5003" stroke="url(#paint47_linear_51_1986)" stroke-opacity="0.5"/>
<path d="M-90.9999 384.5C-7.05263 384.5 61.0001 316.448 61.0001 232.5C61.0001 148.553 -7.05267 80.5003 -91 80.5003" stroke="url(#paint48_linear_51_1986)" stroke-opacity="0.5"/>
<path d="M610 421.5C505.618 421.5 421 336.882 421 232.5C421 128.118 505.618 43.5003 610 43.5003" stroke="url(#paint49_linear_51_1986)" stroke-opacity="0.5"/>
<path d="M610 384.5C526.053 384.5 458 316.448 458 232.5C458 148.553 526.053 80.5003 610 80.5003" stroke="url(#paint50_linear_51_1986)" stroke-opacity="0.5"/>
<path d="M610 333.5C554.219 333.5 509 288.281 509 232.5C509 176.719 554.219 131.5 610 131.5" stroke="url(#paint51_linear_51_1986)" stroke-opacity="0.5"/>
</g>
<defs>
<filter id="filter0_f_51_1986" x="245.267" y="206.643" width="0.123608" height="9.59822" filterUnits="userSpaceOnUse" color-interpolation-filters="sRGB">
<feFlood flood-opacity="0" result="BackgroundImageFix"/>
<feBlend mode="normal" in="SourceGraphic" in2="BackgroundImageFix" result="shape"/>
<feGaussianBlur stdDeviation="0.0247375" result="effect1_foregroundBlur_51_1986"/>
</filter>
<filter id="filter1_f_51_1986" x="284.847" y="206.643" width="0.123608" height="9.59822" filterUnits="userSpaceOnUse" color-interpolation-filters="sRGB">
<feFlood flood-opacity="0" result="BackgroundImageFix"/>
<feBlend mode="normal" in="SourceGraphic" in2="BackgroundImageFix" result="shape"/>
<feGaussianBlur stdDeviation="0.0247375" result="effect1_foregroundBlur_51_1986"/>
</filter>
<linearGradient id="paint0_linear_51_1986" x1="382.357" y1="164.386" x2="271.327" y2="164.386" gradientUnits="userSpaceOnUse">
<stop stop-color="#EFF5FF"/>
<stop offset="1" stop-color="#F69D2E"/>
</linearGradient>
<linearGradient id="paint1_linear_51_1986" x1="385.881" y1="295.684" x2="274.852" y2="295.684" gradientUnits="userSpaceOnUse">
<stop stop-color="#EFF5FF"/>
<stop offset="1" stop-color="#F69D2E"/>
</linearGradient>
<linearGradient id="paint2_linear_51_1986" x1="144.436" y1="164.386" x2="255.465" y2="164.386" gradientUnits="userSpaceOnUse">
<stop stop-color="#EFF5FF"/>
<stop offset="1" stop-color="#F69D2E"/>
</linearGradient>
<linearGradient id="paint3_linear_51_1986" x1="147.96" y1="295.684" x2="258.99" y2="295.684" gradientUnits="userSpaceOnUse">
<stop stop-color="#EFF5FF"/>
<stop offset="1" stop-color="#F69D2E"/>
</linearGradient>
<linearGradient id="paint4_linear_51_1986" x1="264.507" y1="133.928" x2="263.348" y2="194.193" gradientUnits="userSpaceOnUse">
<stop stop-color="#FFF6EB"/>
<stop offset="1" stop-color="#F69D2E"/>
</linearGradient>
<linearGradient id="paint5_linear_51_1986" x1="268.032" y1="326.142" x2="266.873" y2="265.876" gradientUnits="userSpaceOnUse">
<stop stop-color="#FFF6EB"/>
<stop offset="1" stop-color="#F69D2E"/>
</linearGradient>
<linearGradient id="paint6_linear_51_1986" x1="378.56" y1="101.091" x2="384.656" y2="118.26" gradientUnits="userSpaceOnUse">
<stop stop-color="#FD4755"/>
<stop offset="1" stop-color="#A72B2B"/>
</linearGradient>
<linearGradient id="paint7_linear_51_1986" x1="380.77" y1="115.482" x2="380.77" y2="117.935" gradientUnits="userSpaceOnUse">
<stop stop-color="#C41926" stop-opacity="0"/>
<stop offset="0.162" stop-color="#BF1A26" stop-opacity="0.051"/>
<stop offset="0.371" stop-color="#B21E26" stop-opacity="0.198"/>
<stop offset="0.605" stop-color="#9D2426" stop-opacity="0.441"/>
<stop offset="0.856" stop-color="#802D26" stop-opacity="0.776"/>
<stop offset="1" stop-color="#6D3326"/>
</linearGradient>
<linearGradient id="paint8_linear_51_1986" x1="391.27" y1="107.317" x2="393.635" y2="107.317" gradientUnits="userSpaceOnUse">
<stop stop-color="#C41926" stop-opacity="0"/>
<stop offset="0.162" stop-color="#BF1A26" stop-opacity="0.051"/>
<stop offset="0.371" stop-color="#B21E26" stop-opacity="0.198"/>
<stop offset="0.605" stop-color="#9D2426" stop-opacity="0.441"/>
<stop offset="0.856" stop-color="#802D26" stop-opacity="0.776"/>
<stop offset="1" stop-color="#6D3326"/>
</linearGradient>
<linearGradient id="paint9_linear_51_1986" x1="346.955" y1="101.091" x2="353.051" y2="118.26" gradientUnits="userSpaceOnUse">
<stop stop-color="#BBEC6C"/>
<stop offset="0.198" stop-color="#B5E665"/>
<stop offset="0.48" stop-color="#A4D552"/>
<stop offset="0.812" stop-color="#89BA33"/>
<stop offset="1" stop-color="#78A91F"/>
</linearGradient>
<linearGradient id="paint10_linear_51_1986" x1="349.165" y1="113.566" x2="349.165" y2="118.945" gradientUnits="userSpaceOnUse">
<stop stop-color="#334C0F" stop-opacity="0"/>
<stop offset="0.29" stop-color="#334B11" stop-opacity="0.045"/>
<stop offset="0.513" stop-color="#364A18" stop-opacity="0.188"/>
<stop offset="0.713" stop-color="#3A4825" stop-opacity="0.429"/>
<stop offset="0.899" stop-color="#404537" stop-opacity="0.767"/>
<stop offset="1" stop-color="#444444"/>
</linearGradient>
<linearGradient id="paint11_linear_51_1986" x1="357.676" y1="107.317" x2="362.827" y2="107.317" gradientUnits="userSpaceOnUse">
<stop stop-color="#334C0F" stop-opacity="0"/>
<stop offset="0.29" stop-color="#334B11" stop-opacity="0.045"/>
<stop offset="0.513" stop-color="#364A18" stop-opacity="0.188"/>
<stop offset="0.713" stop-color="#3A4825" stop-opacity="0.429"/>
<stop offset="0.899" stop-color="#404537" stop-opacity="0.767"/>
<stop offset="1" stop-color="#444444"/>
</linearGradient>
<linearGradient id="paint12_linear_51_1986" x1="355.84" y1="114.56" x2="355.84" y2="109.272" gradientUnits="userSpaceOnUse">
<stop stop-color="#334C0F" stop-opacity="0"/>
<stop offset="0.29" stop-color="#334B11" stop-opacity="0.045"/>
<stop offset="0.513" stop-color="#364A18" stop-opacity="0.188"/>
<stop offset="0.713" stop-color="#3A4825" stop-opacity="0.429"/>
<stop offset="0.899" stop-color="#404537" stop-opacity="0.767"/>
<stop offset="1" stop-color="#444444"/>
</linearGradient>
<linearGradient id="paint13_linear_51_1986" x1="362.259" y1="89.7732" x2="369.729" y2="110.812" gradientUnits="userSpaceOnUse">
<stop stop-color="#FEF0AE"/>
<stop offset="1" stop-color="#FAC600"/>
</linearGradient>
<linearGradient id="paint14_linear_51_1986" x1="364.968" y1="107.409" x2="364.968" y2="110.415" gradientUnits="userSpaceOnUse">
<stop stop-color="#FE9738" stop-opacity="0"/>
<stop offset="0.102" stop-color="#FE9738" stop-opacity="0.02"/>
<stop offset="0.227" stop-color="#FE9738" stop-opacity="0.078"/>
<stop offset="0.361" stop-color="#FE9738" stop-opacity="0.175"/>
<stop offset="0.505" stop-color="#FE9738" stop-opacity="0.31"/>
<stop offset="0.654" stop-color="#FE9738" stop-opacity="0.483"/>
<stop offset="0.808" stop-color="#FE9738" stop-opacity="0.695"/>
<stop offset="0.965" stop-color="#FE9738" stop-opacity="0.94"/>
<stop offset="1" stop-color="#FE9738"/>
</linearGradient>
<linearGradient id="paint15_linear_51_1986" x1="377.835" y1="97.4026" x2="380.734" y2="97.4026" gradientUnits="userSpaceOnUse">
<stop stop-color="#FE9738" stop-opacity="0"/>
<stop offset="0.102" stop-color="#FE9738" stop-opacity="0.02"/>
<stop offset="0.227" stop-color="#FE9738" stop-opacity="0.078"/>
<stop offset="0.361" stop-color="#FE9738" stop-opacity="0.175"/>
<stop offset="0.505" stop-color="#FE9738" stop-opacity="0.31"/>
<stop offset="0.654" stop-color="#FE9738" stop-opacity="0.483"/>
<stop offset="0.808" stop-color="#FE9738" stop-opacity="0.695"/>
<stop offset="0.965" stop-color="#FE9738" stop-opacity="0.94"/>
<stop offset="1" stop-color="#FE9738"/>
</linearGradient>
<linearGradient id="paint16_linear_51_1986" x1="339.43" y1="104.85" x2="342.556" y2="108.695" gradientUnits="userSpaceOnUse">
<stop stop-color="#F3FAFF"/>
<stop offset="1" stop-color="#D5DAF3"/>
</linearGradient>
<linearGradient id="paint17_linear_51_1986" x1="340.554" y1="108.477" x2="339.338" y2="109.693" gradientUnits="userSpaceOnUse">
<stop stop-color="#DBD5EF" stop-opacity="0"/>
<stop offset="0.267" stop-color="#D8D2EC" stop-opacity="0.023"/>
<stop offset="0.443" stop-color="#D1C9E2" stop-opacity="0.098"/>
<stop offset="0.593" stop-color="#C4B9D1" stop-opacity="0.225"/>
<stop offset="0.729" stop-color="#B2A4BA" stop-opacity="0.405"/>
<stop offset="0.855" stop-color="#9A889C" stop-opacity="0.638"/>
<stop offset="0.971" stop-color="#7E6678" stop-opacity="0.92"/>
<stop offset="1" stop-color="#765D6E"/>
</linearGradient>
<linearGradient id="paint18_linear_51_1986" x1="387.036" y1="105.262" x2="390.163" y2="109.403" gradientUnits="userSpaceOnUse">
<stop stop-color="#F3FAFF"/>
<stop offset="1" stop-color="#D5DAF3"/>
</linearGradient>
<linearGradient id="paint19_linear_51_1986" x1="389.381" y1="108.477" x2="390.598" y2="109.693" gradientUnits="userSpaceOnUse">
<stop stop-color="#DBD5EF" stop-opacity="0"/>
<stop offset="0.267" stop-color="#D8D2EC" stop-opacity="0.023"/>
<stop offset="0.443" stop-color="#D1C9E2" stop-opacity="0.098"/>
<stop offset="0.593" stop-color="#C4B9D1" stop-opacity="0.225"/>
<stop offset="0.729" stop-color="#B2A4BA" stop-opacity="0.405"/>
<stop offset="0.855" stop-color="#9A889C" stop-opacity="0.638"/>
<stop offset="0.971" stop-color="#7E6678" stop-opacity="0.92"/>
<stop offset="1" stop-color="#765D6E"/>
</linearGradient>
<linearGradient id="paint20_linear_51_1986" x1="345.219" y1="74.4958" x2="375.71" y2="104.987" gradientUnits="userSpaceOnUse">
<stop stop-color="#FD4755"/>
<stop offset="1" stop-color="#A72B2B" stop-opacity="0"/>
</linearGradient>
<linearGradient id="paint21_linear_51_1986" x1="374.769" y1="81.3496" x2="354.85" y2="104.489" gradientUnits="userSpaceOnUse">
<stop stop-color="#BBEC6C"/>
<stop offset="0.746" stop-color="#89BA32" stop-opacity="0.258"/>
<stop offset="1" stop-color="#78A91F" stop-opacity="0"/>
</linearGradient>
<radialGradient id="paint22_radial_51_1986" cx="0" cy="0" r="1" gradientUnits="userSpaceOnUse" gradientTransform="translate(279.17 216.983) rotate(141.911) scale(37.2136)">
<stop stop-color="#EEEBF0"/>
<stop offset="0.493" stop-color="#D1BEE3"/>
<stop offset="1" stop-color="#D0BCE2"/>
</radialGradient>
<linearGradient id="paint23_linear_51_1986" x1="258.588" y1="227.274" x2="245.923" y2="227.274" gradientUnits="userSpaceOnUse">
<stop stop-color="#D5B2C0" stop-opacity="0"/>
<stop offset="1" stop-color="#B4878D"/>
</linearGradient>
<linearGradient id="paint24_linear_51_1986" x1="264.921" y1="241.523" x2="264.921" y2="247.855" gradientUnits="userSpaceOnUse">
<stop stop-color="#B17EDB" stop-opacity="0"/>
<stop offset="1" stop-color="#A56BD6"/>
</linearGradient>
<radialGradient id="paint25_radial_51_1986" cx="0" cy="0" r="1" gradientUnits="userSpaceOnUse" gradientTransform="translate(279.17 220.149) rotate(-5.71059) scale(7.95549 30.4076)">
<stop stop-color="#F0EAF6"/>
<stop offset="1" stop-color="#E7E0EF" stop-opacity="0"/>
</radialGradient>
<linearGradient id="paint26_linear_51_1986" x1="-nan" y1="-nan" x2="-nan" y2="-nan" gradientUnits="userSpaceOnUse">
<stop stop-color="#EA248A"/>
<stop offset="1" stop-color="#DF2232"/>
</linearGradient>
<linearGradient id="paint27_linear_51_1986" x1="244.34" y1="217.775" x2="244.34" y2="235.19" gradientUnits="userSpaceOnUse">
<stop stop-color="#E93273"/>
<stop offset="1" stop-color="#D21844"/>
</linearGradient>
<linearGradient id="paint28_linear_51_1986" x1="264.918" y1="226.8" x2="264.918" y2="216.81" gradientUnits="userSpaceOnUse">
<stop offset="0.006" stop-color="#443E75"/>
<stop offset="1" stop-color="#2F1A3B"/>
</linearGradient>
<linearGradient id="paint29_linear_51_1986" x1="264.918" y1="239.442" x2="264.918" y2="235.014" gradientUnits="userSpaceOnUse">
<stop offset="0.006" stop-color="#39325E"/>
<stop offset="1" stop-color="#2B1831"/>
</linearGradient>
<radialGradient id="paint30_radial_51_1986" cx="0" cy="0" r="1" gradientUnits="userSpaceOnUse" gradientTransform="translate(245.923 203.526) rotate(104.036) scale(3.26385)">
<stop stop-color="#FF6C82"/>
<stop offset="0.441" stop-color="#FF2455"/>
<stop offset="1" stop-color="#D9206C"/>
</radialGradient>
<linearGradient id="paint31_linear_51_1986" x1="-nan" y1="-nan" x2="-nan" y2="-nan" gradientUnits="userSpaceOnUse">
<stop stop-color="#EA248A"/>
<stop offset="1" stop-color="#DF2232"/>
</linearGradient>
<radialGradient id="paint32_radial_51_1986" cx="0" cy="0" r="1" gradientUnits="userSpaceOnUse" gradientTransform="translate(285.528 203.578) rotate(104.036) scale(3.37265 3.37265)">
<stop stop-color="#FF6C82"/>
<stop offset="0.441" stop-color="#FF2455"/>
<stop offset="1" stop-color="#D9206C"/>
</radialGradient>
<radialGradient id="paint33_radial_51_1986" cx="0" cy="0" r="1" gradientUnits="userSpaceOnUse" gradientTransform="translate(254.63 222.524) rotate(168.69) scale(4.03639 5.52398)">
<stop stop-color="#322649"/>
<stop offset="1" stop-color="#342950" stop-opacity="0"/>
</radialGradient>
<radialGradient id="paint34_radial_51_1986" cx="0" cy="0" r="1" gradientUnits="userSpaceOnUse" gradientTransform="translate(272.837 222.524) rotate(168.69) scale(4.03639 5.52398)">
<stop stop-color="#322649"/>
<stop offset="1" stop-color="#342950" stop-opacity="0"/>
</radialGradient>
<linearGradient id="paint35_linear_51_1986" x1="264.921" y1="203.526" x2="262.546" y2="209.067" gradientUnits="userSpaceOnUse">
<stop stop-color="#FFCE2B"/>
<stop offset="1" stop-color="#D9862D"/>
</linearGradient>
<radialGradient id="paint36_radial_51_1986" cx="0" cy="0" r="1" gradientUnits="userSpaceOnUse" gradientTransform="translate(264.921 205.109) rotate(90) scale(4.74961 15.832)">
<stop offset="0.431" stop-color="#CA7E29" stop-opacity="0"/>
<stop offset="1" stop-color="#673F13"/>
</radialGradient>
<linearGradient id="paint37_linear_51_1986" x1="285.503" y1="217.664" x2="285.503" y2="235.095" gradientUnits="userSpaceOnUse">
<stop stop-color="#FF30AA"/>
<stop offset="1" stop-color="#FF2353"/>
</linearGradient>
<linearGradient id="paint38_linear_51_1986" x1="257.797" y1="220.941" x2="253.839" y2="220.941" gradientUnits="userSpaceOnUse">
<stop stop-color="#29B6FE"/>
<stop offset="1" stop-color="#1769A8"/>
</linearGradient>
<radialGradient id="paint39_radial_51_1986" cx="0" cy="0" r="1" gradientUnits="userSpaceOnUse" gradientTransform="translate(257.005 220.149) rotate(90) scale(3.958 1.81107)">
<stop stop-color="#54C8FF"/>
<stop offset="1" stop-color="#54C8FF" stop-opacity="0"/>
</radialGradient>
<linearGradient id="paint40_linear_51_1986" x1="276.004" y1="220.941" x2="272.046" y2="220.941" gradientUnits="userSpaceOnUse">
<stop stop-color="#29B6FE"/>
<stop offset="1" stop-color="#1769A8"/>
</linearGradient>
<radialGradient id="paint41_radial_51_1986" cx="0" cy="0" r="1" gradientUnits="userSpaceOnUse" gradientTransform="translate(275.212 220.149) rotate(90) scale(3.958 1.81107)">
<stop stop-color="#54C8FF"/>
<stop offset="1" stop-color="#54C8FF" stop-opacity="0"/>
</radialGradient>
<linearGradient id="paint42_linear_51_1986" x1="-nan" y1="-nan" x2="-nan" y2="-nan" gradientUnits="userSpaceOnUse">
<stop stop-color="#FF96CB"/>
<stop offset="1" stop-color="#FF6DB7" stop-opacity="0"/>
</linearGradient>
<linearGradient id="paint43_linear_51_1986" x1="-nan" y1="-nan" x2="-nan" y2="-nan" gradientUnits="userSpaceOnUse">
<stop stop-color="#FF96CB"/>
<stop offset="1" stop-color="#FF6DB7" stop-opacity="0"/>
</linearGradient>
<radialGradient id="paint44_radial_51_1986" cx="0" cy="0" r="1" gradientUnits="userSpaceOnUse" gradientTransform="translate(285.503 220.149) rotate(90) scale(2.3748 1.5832)">
<stop stop-color="#FF72C1"/>
<stop offset="1" stop-color="#FF6EBF" stop-opacity="0"/>
</radialGradient>
<radialGradient id="paint45_radial_51_1986" cx="0" cy="0" r="1" gradientUnits="userSpaceOnUse" gradientTransform="translate(285.503 224.899) rotate(90) scale(7.12441 0.885706)">
<stop stop-color="#FF4B9C"/>
<stop offset="1" stop-color="#FF73C1" stop-opacity="0"/>
</radialGradient>
<radialGradient id="paint46_radial_51_1986" cx="0" cy="0" r="1" gradientUnits="userSpaceOnUse" gradientTransform="translate(271.254 205.109) rotate(90) scale(1.5832)">
<stop stop-color="#FFEA60"/>
<stop offset="1" stop-color="#FFEF66" stop-opacity="0"/>
</radialGradient>
<linearGradient id="paint47_linear_51_1986" x1="98.0001" y1="232.5" x2="-90.9999" y2="232.5" gradientUnits="userSpaceOnUse">
<stop stop-color="#F69D2E" stop-opacity="0.6"/>
<stop offset="1" stop-color="#E5F2FF"/>
</linearGradient>
<linearGradient id="paint48_linear_51_1986" x1="61.0001" y1="232.5" x2="-90.9999" y2="232.5" gradientUnits="userSpaceOnUse">
<stop stop-color="#F69D2E" stop-opacity="0.6"/>
<stop offset="1" stop-color="#E5F2FF"/>
</linearGradient>
<linearGradient id="paint49_linear_51_1986" x1="421" y1="232.5" x2="610" y2="232.5" gradientUnits="userSpaceOnUse">
<stop stop-color="#F69D2E" stop-opacity="0.6"/>
<stop offset="1" stop-color="#E5F2FF"/>
</linearGradient>
<linearGradient id="paint50_linear_51_1986" x1="458" y1="232.5" x2="610" y2="232.5" gradientUnits="userSpaceOnUse">
<stop stop-color="#F69D2E" stop-opacity="0.6"/>
<stop offset="1" stop-color="#E5F2FF"/>
</linearGradient>
<linearGradient id="paint51_linear_51_1986" x1="509" y1="232.5" x2="610" y2="232.5" gradientUnits="userSpaceOnUse">
<stop stop-color="#A3D3FF"/>
<stop offset="1" stop-color="#E5F2FF"/>
</linearGradient>
<clipPath id="clip0_51_1986">
<rect x="19" y="14" width="490" height="429" rx="14.0143" fill="white"/>
</clipPath>
<clipPath id="clip1_51_1986">
<rect width="48.8202" height="48.8202" fill="white" transform="translate(339.994 331.42)"/>
</clipPath>
<clipPath id="clip2_51_1986">
<rect width="57.1104" height="57.1104" fill="white" transform="translate(336.413 72.5804)"/>
</clipPath>
<clipPath id="clip3_51_1986">
<rect width="49.7413" height="49.7413" fill="white" transform="translate(139.186 330.928)"/>
</clipPath>
<clipPath id="clip4_51_1986">
<rect width="51.5836" height="47.8991" fill="white" transform="translate(138.265 77.1863)"/>
</clipPath>
<clipPath id="clip5_51_1986">
<rect width="51.5836" height="47.8991" fill="white" transform="translate(238.72 331.85)"/>
</clipPath>
<clipPath id="clip6_51_1986">
<rect width="49.7413" height="49.7413" fill="white" transform="translate(239.642 76.265)"/>
</clipPath>
<clipPath id="clip7_51_1986">
<path d="M218.455 224.748C218.455 199.684 239.095 179.366 264.158 179.366C289.222 179.366 309.862 199.684 309.862 224.748C309.862 249.811 289.222 270.129 264.158 270.129C239.095 270.129 218.455 249.811 218.455 224.748Z" fill="white"/>
</clipPath>
</defs>
</svg>
