<svg width="527" height="477" viewBox="0 0 527 477" fill="none" xmlns="http://www.w3.org/2000/svg">
<path d="M0 35C0 15.67 15.67 0 35 0H492C511.33 0 527 15.67 527 35V489H0V35Z" fill="white"/>
<g clip-path="url(#clip0_51_755)">
<rect x="19" y="14" width="490" height="429" rx="14.0143" fill="#FFF5F7"/>
<path d="M520.396 292.39L374.754 292.788C351.772 292.851 333.193 311.533 333.256 334.514L333.53 434.761" stroke="url(#paint0_linear_51_755)" stroke-width="1.89146"/>
<path d="M520.313 262.127L359.54 262.567C324.022 262.664 295.309 291.535 295.406 327.052L295.701 434.865" stroke="url(#paint1_linear_51_755)" stroke-width="1.89146"/>
<path d="M520.236 233.755L344.33 234.236C294.188 234.373 253.652 275.133 253.789 325.274L254.089 434.979" stroke="url(#paint2_linear_51_755)" stroke-width="1.89146"/>
<g filter="url(#filter0_d_51_755)">
<rect x="94.7278" y="312.961" width="344" height="78.901" rx="11.2716" transform="rotate(3.49838 94.7278 312.961)" fill="white"/>
<rect x="95.388" y="313.707" width="342.591" height="77.492" rx="10.5671" transform="rotate(3.49838 95.388 313.707)" stroke="#D9EDFF" stroke-width="1.40895"/>
<path d="M188.655 367.451C187.566 367.385 186.645 367.138 185.894 366.71C185.157 366.269 184.6 365.688 184.222 364.967C183.845 364.246 183.658 363.411 183.664 362.463L185.318 362.564C185.349 363.554 185.643 364.349 186.199 364.95C186.756 365.537 187.606 365.866 188.748 365.935C189.758 365.997 190.565 365.849 191.166 365.49C191.768 365.132 192.093 364.546 192.143 363.732C192.176 363.194 192.045 362.751 191.75 362.404C191.455 362.056 191.077 361.783 190.614 361.583C190.166 361.385 189.541 361.155 188.74 360.896C187.783 360.6 187.016 360.316 186.44 360.044C185.865 359.758 185.376 359.346 184.974 358.808C184.585 358.27 184.417 357.575 184.469 356.722C184.513 356 184.749 355.375 185.177 354.848C185.604 354.321 186.182 353.928 186.909 353.669C187.65 353.398 188.473 353.291 189.379 353.346C190.285 353.401 191.081 353.621 191.769 354.006C192.471 354.378 193.013 354.886 193.396 355.528C193.778 356.171 193.977 356.901 193.993 357.719L192.339 357.618C192.308 356.839 192.017 356.202 191.468 355.707C190.919 355.199 190.192 354.917 189.286 354.862C188.368 354.806 187.627 354.952 187.066 355.299C186.518 355.648 186.223 356.157 186.182 356.826C186.15 357.351 186.275 357.781 186.558 358.114C186.854 358.448 187.226 358.715 187.675 358.914C188.138 359.1 188.758 359.309 189.534 359.541C190.53 359.839 191.316 360.131 191.891 360.416C192.481 360.69 192.976 361.102 193.377 361.653C193.778 362.205 193.951 362.934 193.895 363.839C193.846 364.653 193.586 365.342 193.117 365.906C192.661 366.471 192.042 366.888 191.262 367.156C190.495 367.412 189.626 367.511 188.655 367.451ZM200.084 368.15C199.074 368.088 198.215 367.799 197.509 367.281C196.816 366.765 196.303 366.108 195.97 365.31C195.65 364.5 195.518 363.642 195.574 362.736C195.629 361.831 195.864 361.002 196.279 360.25C196.708 359.486 197.298 358.889 198.048 358.461C198.812 358.033 199.7 357.85 200.71 357.912C201.459 357.958 202.145 358.145 202.771 358.473C203.41 358.789 203.93 359.229 204.33 359.794C204.731 360.345 204.956 360.978 205.005 361.692L203.449 361.597C203.381 360.987 203.084 360.468 202.556 360.041C202.029 359.613 201.392 359.377 200.643 359.331C199.948 359.288 199.347 359.416 198.841 359.715C198.349 360.014 197.961 360.438 197.677 360.987C197.407 361.524 197.25 362.141 197.208 362.836C197.142 363.913 197.364 364.815 197.872 365.545C198.394 366.275 199.167 366.671 200.191 366.734C200.939 366.78 201.579 366.647 202.112 366.337C202.659 366.015 203.036 365.557 203.244 364.964L204.779 365.058C204.633 365.734 204.347 366.309 203.923 366.784C203.499 367.259 202.956 367.621 202.295 367.87C201.648 368.107 200.911 368.201 200.084 368.15ZM209.786 368.743C209.103 368.702 208.507 368.54 207.997 368.258C207.501 367.978 207.121 367.605 206.86 367.142C206.612 366.665 206.507 366.132 206.543 365.541C206.581 364.911 206.773 364.37 207.116 363.916C207.474 363.451 207.956 363.111 208.562 362.898C209.182 362.672 209.886 362.584 210.673 362.632L212.977 362.773C213.187 362.785 213.34 362.755 213.437 362.682C213.533 362.609 213.587 362.494 213.596 362.336C213.638 361.654 213.435 361.088 212.989 360.639C212.542 360.19 211.905 359.94 211.078 359.89C210.592 359.86 210.147 359.925 209.742 360.085C209.337 360.245 209 360.468 208.733 360.754C208.478 361.042 208.326 361.368 208.277 361.734L206.761 361.642C206.866 361.016 207.124 360.458 207.536 359.97C207.961 359.482 208.49 359.112 209.125 358.861C209.773 358.611 210.458 358.508 211.179 358.552C212.033 358.604 212.765 358.807 213.375 359.161C213.987 359.501 214.446 359.957 214.754 360.53C215.075 361.103 215.213 361.757 215.168 362.492L214.777 368.89L213.201 368.794L213.306 367.081L213.176 367.271C212.958 367.6 212.671 367.879 212.315 368.107C211.971 368.337 211.585 368.511 211.156 368.629C210.728 368.735 210.271 368.773 209.786 368.743ZM210.104 367.419C211.101 367.48 211.893 367.238 212.48 366.695C213.081 366.138 213.412 365.349 213.475 364.325L213.488 364.108L210.692 363.937C209.957 363.892 209.356 364.02 208.89 364.321C208.437 364.623 208.193 365.056 208.159 365.62C208.127 366.132 208.286 366.55 208.635 366.875C208.997 367.2 209.487 367.381 210.104 367.419ZM218.484 355.066L220.059 355.162L219.203 369.161L217.628 369.065L218.484 355.066ZM225.148 369.682C224.466 369.641 223.869 369.479 223.36 369.198C222.863 368.917 222.484 368.545 222.222 368.081C221.975 367.604 221.869 367.071 221.905 366.48C221.944 365.85 222.135 365.309 222.479 364.855C222.837 364.39 223.319 364.05 223.924 363.837C224.544 363.612 225.248 363.523 226.036 363.571L228.339 363.712C228.549 363.725 228.702 363.694 228.799 363.621C228.896 363.548 228.949 363.433 228.959 363.275C229 362.593 228.798 362.027 228.351 361.578C227.904 361.129 227.267 360.88 226.44 360.829C225.955 360.799 225.509 360.864 225.104 361.024C224.699 361.184 224.363 361.407 224.095 361.693C223.84 361.981 223.689 362.308 223.64 362.674L222.124 362.581C222.228 361.955 222.486 361.398 222.898 360.909C223.323 360.421 223.853 360.052 224.487 359.801C225.135 359.55 225.82 359.447 226.542 359.491C227.395 359.544 228.127 359.746 228.738 360.1C229.349 360.44 229.809 360.897 230.116 361.469C230.437 362.042 230.575 362.696 230.53 363.431L230.139 369.829L228.564 369.733L228.669 368.02L228.538 368.21C228.321 368.539 228.034 368.818 227.677 369.047C227.334 369.276 226.947 369.45 226.519 369.569C226.091 369.674 225.634 369.712 225.148 369.682ZM225.466 368.358C226.464 368.419 227.256 368.178 227.842 367.634C228.443 367.078 228.774 366.288 228.837 365.264L228.85 365.047L226.055 364.876C225.32 364.831 224.719 364.959 224.252 365.26C223.799 365.562 223.555 365.995 223.521 366.559C223.49 367.071 223.649 367.489 223.998 367.814C224.36 368.139 224.849 368.32 225.466 368.358ZM237.884 370.461C237.188 370.419 236.542 370.214 235.945 369.848C235.361 369.483 234.935 369.023 234.666 368.466L234.566 370.1L232.991 370.004L233.847 356.005L235.422 356.102L235.074 361.792C235.421 361.286 235.906 360.887 236.53 360.596C237.154 360.305 237.814 360.18 238.51 360.223C239.507 360.284 240.347 360.559 241.028 361.049C241.723 361.539 242.23 362.183 242.55 362.98C242.884 363.778 243.021 364.662 242.961 365.633C242.902 366.605 242.658 367.466 242.23 368.217C241.815 368.969 241.233 369.546 240.484 369.948C239.748 370.351 238.881 370.522 237.884 370.461ZM237.793 369.033C238.463 369.074 239.049 368.958 239.553 368.686C240.071 368.414 240.484 368.005 240.794 367.457C241.105 366.91 241.282 366.268 241.327 365.533C241.396 364.405 241.149 363.487 240.586 362.781C240.037 362.075 239.263 361.692 238.265 361.631C237.596 361.59 237.003 361.705 236.485 361.977C235.981 362.249 235.574 362.659 235.264 363.206C234.954 363.754 234.776 364.395 234.731 365.13C234.662 366.259 234.903 367.176 235.452 367.882C236.015 368.588 236.796 368.972 237.793 369.033ZM245.576 360.813L247.151 360.909L246.544 370.832L244.969 370.736L245.576 360.813ZM247.518 356.841L247.383 359.046L245.572 358.935L245.707 356.73L247.518 356.841ZM250.42 357.019L251.995 357.115L251.14 371.113L249.565 371.017L250.42 357.019ZM254.747 361.374L256.322 361.47L255.716 371.393L254.141 371.297L254.747 361.374ZM256.69 357.402L256.555 359.607L254.743 359.496L254.878 357.291L256.69 357.402ZM262.654 371.817C262.024 371.779 261.48 371.62 261.023 371.342C260.579 371.065 260.24 370.682 260.006 370.193C259.786 369.705 259.695 369.146 259.733 368.516L260.064 363.102L257.997 362.976L258.082 361.578L260.15 361.704L260.343 358.534L261.919 358.631L261.725 361.8L264.776 361.987L264.691 363.385L261.639 363.198L261.311 368.573C261.277 369.124 261.388 369.566 261.645 369.898C261.915 370.217 262.3 370.392 262.798 370.423L264.255 370.512L264.17 371.91L262.654 371.817ZM268.683 372.423L265.681 362.042L267.315 362.142L269.599 370.364L272.848 362.48L274.482 362.58L268.668 376.216L267.093 376.12L268.683 372.423Z" fill="#121010"/>
<g clip-path="url(#clip1_51_755)">
<path d="M155.071 354.808L154.043 354.756C153.455 355.719 152.724 355.515 151.911 354.647L149.781 354.539C148.961 355.326 148.238 355.388 147.649 354.43L146.622 354.378C146.012 354.347 145.492 354.817 145.461 355.429L145.382 356.975C146.318 358.071 146.273 358.955 145.247 359.629L145.112 362.282C145.658 363.366 145.518 364.218 144.976 364.936L144.841 367.59C145.513 368.644 145.374 369.506 144.706 370.244L144.571 372.897L147.099 375.687C148.129 375.088 149.035 375.052 149.764 375.823C150.556 375.148 151.467 375.364 152.428 375.958L155.228 373.441L155.363 370.787C154.978 369.775 154.881 368.848 155.498 368.133L155.634 365.479C154.739 364.494 154.656 363.596 155.769 362.826L155.904 360.172C155.161 359.304 154.949 358.425 156.039 357.518L156.118 355.972C156.149 355.361 155.68 354.839 155.071 354.808ZM139.256 369.966L136.728 367.176L134.063 367.041C133.248 368.161 132.343 367.84 131.398 366.905L129.838 366.825C129.229 366.794 128.709 367.264 128.678 367.876L128.599 369.423C129.216 370.457 129.095 371.324 128.464 372.076L128.385 373.624C128.354 374.235 128.823 374.755 129.432 374.786L130.993 374.866C131.845 374.016 132.737 374.15 133.657 375.002L136.322 375.138L139.121 372.62C138.643 371.708 138.689 370.824 139.256 369.966ZM121.971 369.085L120.944 369.033C120.204 369.58 119.494 369.544 118.813 368.924L116.682 368.815C115.943 369.334 115.233 369.297 114.55 368.707L113.523 368.654C112.913 368.623 112.394 369.093 112.362 369.705L112.284 371.252L114.812 374.041C115.83 373.542 116.758 373.418 117.477 374.177C118.152 373.077 119.063 373.243 120.141 374.313L122.941 371.795L123.02 370.248C123.051 369.636 122.582 369.116 121.971 369.085Z" fill="#FFC05A"/>
<path d="M151.265 332.843L153.032 347.546L148.337 344.543C139.774 357.215 128.864 364.445 114.377 363.377C125.781 360.303 135.023 352.853 141.94 340.45L137.214 337.427L151.265 332.843Z" fill="#A7D676"/>
<path d="M155.228 373.44L155.149 374.988C155.118 375.599 154.598 376.069 153.989 376.038L152.428 375.958L152.564 373.305L153.096 373.332L155.228 373.44Z" fill="#E58E1A"/>
<path d="M155.498 368.133L155.363 370.787L153.231 370.678L152.699 370.651L152.834 367.997L153.367 368.024L155.498 368.133Z" fill="#E58E1A"/>
<path d="M155.769 362.825L155.634 365.479L153.502 365.371L152.969 365.343L153.105 362.69L153.637 362.717L155.769 362.825Z" fill="#E58E1A"/>
<path d="M150.441 362.554L150.305 365.208L149.24 365.153L147.64 365.072L147.776 362.418L149.375 362.5L150.441 362.554Z" fill="#E58E1A"/>
<path d="M150.17 367.862L150.035 370.515L148.969 370.461L147.37 370.38L147.505 367.726L149.104 367.807L150.17 367.862Z" fill="#E58E1A"/>
<path d="M149.9 373.169L149.764 375.822L147.099 375.687L147.235 373.033L148.834 373.114L149.9 373.169Z" fill="#E58E1A"/>
<path d="M152.564 373.304L152.428 375.958L149.764 375.822L149.9 373.169L150.965 373.223L152.564 373.304Z" fill="#EF9D26"/>
<path d="M147.235 373.033L147.099 375.687L145.54 375.607C144.93 375.576 144.461 375.056 144.492 374.444L144.571 372.897L146.702 373.006L147.235 373.033Z" fill="#EF9D26"/>
<path d="M152.834 367.997L152.699 370.651L151.1 370.57L150.035 370.515L150.17 367.862L151.235 367.916L152.834 367.997Z" fill="#EF9D26"/>
<path d="M147.505 367.726L147.37 370.38L146.837 370.352L144.706 370.244L144.841 367.59L146.973 367.699L147.505 367.726Z" fill="#EF9D26"/>
<path d="M153.105 362.69L152.969 365.343L151.37 365.262L150.305 365.208L150.441 362.554L151.506 362.608L153.105 362.69Z" fill="#EF9D26"/>
<path d="M147.776 362.418L147.64 365.072L147.108 365.045L144.976 364.936L145.112 362.282L147.243 362.391L147.776 362.418Z" fill="#EF9D26"/>
<path d="M153.772 360.063L153.637 362.717L153.105 362.69L151.506 362.609L151.641 359.955L153.24 360.036L153.772 360.063Z" fill="#F9B132"/>
<path d="M149.51 359.846L149.375 362.5L147.776 362.418L147.243 362.391L147.378 359.738L147.911 359.765L149.51 359.846Z" fill="#F9B132"/>
<path d="M153.502 365.371L153.367 368.024L152.834 367.997L151.235 367.916L151.37 365.262L152.969 365.343L153.502 365.371Z" fill="#F9B132"/>
<path d="M149.24 365.153L149.104 367.807L147.505 367.726L146.973 367.698L147.108 365.045L147.64 365.072L149.24 365.153Z" fill="#F9B132"/>
<path d="M153.231 370.678L153.096 373.332L152.564 373.305L150.965 373.223L151.1 370.57L152.699 370.651L153.231 370.678Z" fill="#F9B132"/>
<path d="M148.969 370.461L148.834 373.115L147.235 373.033L146.702 373.006L146.837 370.353L147.37 370.38L148.969 370.461Z" fill="#F9B132"/>
<path d="M155.363 370.787L153.231 370.678L153.096 373.332L155.228 373.441L155.363 370.787Z" fill="#FFC05A"/>
<path d="M151.1 370.57L150.965 373.223L149.9 373.169L148.834 373.115L148.969 370.461L150.035 370.516L151.1 370.57Z" fill="#FFC05A"/>
<path d="M146.837 370.353L144.706 370.244L144.57 372.898L146.702 373.006L146.837 370.353Z" fill="#FFC05A"/>
<path d="M155.634 365.479L153.502 365.371L153.367 368.024L155.498 368.133L155.634 365.479Z" fill="#FFC05A"/>
<path d="M151.37 365.262L151.235 367.916L150.17 367.861L149.104 367.807L149.24 365.153L150.305 365.208L151.37 365.262Z" fill="#FFC05A"/>
<path d="M147.108 365.045L144.976 364.936L144.841 367.59L146.973 367.698L147.108 365.045Z" fill="#FFC05A"/>
<path d="M155.904 360.172L153.772 360.063L153.637 362.717L155.769 362.826L155.904 360.172Z" fill="#FFC05A"/>
<path d="M151.641 359.955L151.506 362.609L150.441 362.554L149.375 362.5L149.51 359.846L150.576 359.901L151.641 359.955Z" fill="#FFC05A"/>
<path d="M147.378 359.738L145.247 359.629L145.112 362.283L147.243 362.391L147.378 359.738Z" fill="#FFC05A"/>
<path d="M156.039 357.518L155.904 360.172L153.772 360.063L153.24 360.036L153.375 357.383L153.908 357.41L156.039 357.518Z" fill="#E58E1A"/>
<path d="M150.711 357.247L150.576 359.9L149.51 359.846L147.911 359.765L148.046 357.111L149.645 357.192L150.711 357.247Z" fill="#E58E1A"/>
<path d="M153.375 357.383L153.24 360.036L151.641 359.955L150.576 359.901L150.711 357.247L151.776 357.301L153.375 357.383Z" fill="#EF9D26"/>
<path d="M148.046 357.111L147.911 359.765L147.378 359.737L145.247 359.629L145.382 356.975L147.514 357.084L148.046 357.111Z" fill="#EF9D26"/>
<path d="M149.781 354.539L149.645 357.192L148.046 357.111L147.514 357.084L147.649 354.43L149.781 354.539Z" fill="#F9B132"/>
<path d="M154.043 354.756L153.908 357.41L153.375 357.382L151.776 357.301L151.911 354.647L154.043 354.756Z" fill="#F9B132"/>
<path d="M156.118 355.972L156.039 357.518L153.908 357.41L154.043 354.756L155.071 354.808C155.68 354.839 156.149 355.361 156.118 355.972Z" fill="#FFC05A"/>
<path d="M151.911 354.647L151.776 357.301L150.711 357.247L149.645 357.192L149.781 354.539L151.911 354.647Z" fill="#FFC05A"/>
<path d="M147.649 354.43L147.514 357.084L145.382 356.975L145.461 355.429C145.492 354.817 146.012 354.346 146.622 354.378L147.649 354.43Z" fill="#FFC05A"/>
<path d="M139.121 372.619L139.042 374.167C139.011 374.778 138.491 375.248 137.881 375.217L136.322 375.137L136.457 372.484L136.989 372.511L139.121 372.619Z" fill="#F9B132"/>
<path d="M133.792 372.348L133.657 375.002L130.993 374.866L131.128 372.212L132.726 372.294L133.792 372.348Z" fill="#F9B132"/>
<path d="M136.457 372.484L136.322 375.137L133.657 375.002L133.792 372.348L134.858 372.402L136.457 372.484Z" fill="#FFC05A"/>
<path d="M131.128 372.212L130.993 374.866L129.432 374.786C128.823 374.755 128.354 374.235 128.385 373.623L128.464 372.076L130.595 372.185L131.128 372.212Z" fill="#FFC05A"/>
<path d="M137.125 369.857L136.989 372.511L136.457 372.484L134.858 372.402L134.993 369.749L136.592 369.83L137.125 369.857Z" fill="#E58E1A"/>
<path d="M132.861 369.64L132.726 372.294L131.128 372.212L130.595 372.185L130.731 369.531L131.263 369.559L132.861 369.64Z" fill="#E58E1A"/>
<path d="M139.256 369.966L137.125 369.857L136.989 372.511L139.121 372.62L139.256 369.966Z" fill="#EF9D26"/>
<path d="M134.993 369.749L134.858 372.402L133.792 372.348L132.726 372.294L132.861 369.64L133.927 369.694L134.993 369.749Z" fill="#EF9D26"/>
<path d="M130.731 369.531L128.599 369.423L128.464 372.077L130.595 372.185L130.731 369.531Z" fill="#EF9D26"/>
<path d="M139.335 368.419L139.256 369.966L137.125 369.857L136.592 369.83L136.727 367.177L138.287 367.256C138.897 367.287 139.366 367.808 139.335 368.419Z" fill="#F9B132"/>
<path d="M134.063 367.041L133.927 369.694L132.861 369.64L131.263 369.558L131.398 366.905L134.063 367.041Z" fill="#F9B132"/>
<path d="M136.728 367.176L136.592 369.83L134.993 369.749L133.927 369.694L134.063 367.041L136.728 367.176Z" fill="#FFC05A"/>
<path d="M131.398 366.905L131.263 369.559L130.731 369.531L128.599 369.423L128.678 367.876C128.709 367.264 129.229 366.794 129.838 366.825L131.398 366.905Z" fill="#FFC05A"/>
<path d="M122.941 371.795L122.862 373.342C122.831 373.953 122.311 374.423 121.701 374.392L120.141 374.313L120.277 371.659L120.809 371.686L122.941 371.795Z" fill="#E58E1A"/>
<path d="M117.612 371.523L117.476 374.177L114.812 374.041L114.948 371.387L116.547 371.469L117.612 371.523Z" fill="#E58E1A"/>
<path d="M120.277 371.659L120.141 374.313L117.476 374.177L117.612 371.523L118.678 371.578L120.277 371.659Z" fill="#EF9D26"/>
<path d="M114.948 371.387L114.812 374.041L113.252 373.962C112.643 373.931 112.174 373.41 112.205 372.799L112.284 371.252L114.415 371.36L114.948 371.387Z" fill="#EF9D26"/>
<path d="M120.944 369.033L120.809 371.686L120.277 371.659L118.678 371.578L118.813 368.924L120.944 369.033Z" fill="#F9B132"/>
<path d="M116.682 368.815L116.547 371.469L114.948 371.388L114.415 371.36L114.55 368.707L116.682 368.815Z" fill="#F9B132"/>
<path d="M123.02 370.248L122.941 371.795L120.809 371.686L120.944 369.033L121.971 369.085C122.582 369.116 123.051 369.637 123.02 370.248Z" fill="#FFC05A"/>
<path d="M118.813 368.924L118.678 371.578L117.612 371.523L116.547 371.469L116.682 368.815L118.813 368.924Z" fill="#FFC05A"/>
<path d="M114.55 368.707L114.415 371.361L112.284 371.252L112.362 369.705C112.394 369.093 112.913 368.623 113.523 368.654L114.55 368.707Z" fill="#FFC05A"/>
</g>
</g>
<path d="M19 158.096H164.643C187.624 158.096 206.255 139.466 206.255 116.484V16.2368" stroke="url(#paint3_linear_51_755)" stroke-width="1.89146"/>
<path d="M19 188.36H179.774C215.292 188.36 244.084 159.567 244.084 124.05V16.2368" stroke="url(#paint4_linear_51_755)" stroke-width="1.89146"/>
<path d="M19 216.732H194.906C245.048 216.732 285.696 176.084 285.696 125.942V16.2368" stroke="url(#paint5_linear_51_755)" stroke-width="1.89146"/>
<g filter="url(#filter1_d_51_755)">
<rect x="90.9164" y="245.094" width="344" height="78.901" rx="11.2716" transform="rotate(-1.6815 90.9164 245.094)" fill="white"/>
<rect x="91.6413" y="245.778" width="342.591" height="77.492" rx="10.5671" transform="rotate(-1.6815 91.6413 245.778)" stroke="#FFDEDE" stroke-width="1.40895"/>
<path d="M181.953 279.27L184.161 279.205L189.035 290.607L193.231 278.939L195.439 278.874L195.844 292.676L194.208 292.724L193.885 281.722L189.831 292.853L188.372 292.895L183.672 282.022L183.995 293.024L182.358 293.072L181.953 279.27ZM203.236 292.617C202.277 292.645 201.403 292.454 200.615 292.043C199.826 291.618 199.203 291.025 198.747 290.262C198.304 289.499 198.067 288.625 198.038 287.639C198.01 286.653 198.194 285.766 198.592 284.978C199.003 284.19 199.59 283.567 200.353 283.111C201.115 282.641 201.976 282.392 202.935 282.364C203.908 282.336 204.782 282.534 205.558 282.958C206.346 283.369 206.968 283.956 207.425 284.719C207.881 285.482 208.124 286.356 208.153 287.342C208.182 288.328 207.991 289.215 207.58 290.003C207.169 290.791 206.582 291.42 205.82 291.89C205.07 292.346 204.209 292.588 203.236 292.617ZM203.195 291.197C203.865 291.178 204.459 291.002 204.975 290.671C205.492 290.34 205.88 289.888 206.139 289.315C206.412 288.741 206.538 288.1 206.517 287.39C206.496 286.68 206.333 286.047 206.027 285.49C205.734 284.933 205.32 284.504 204.785 284.204C204.25 283.904 203.648 283.764 202.977 283.784C202.307 283.803 201.713 283.979 201.197 284.31C200.693 284.64 200.305 285.092 200.033 285.666C199.76 286.24 199.634 286.881 199.655 287.591C199.676 288.301 199.839 288.934 200.145 289.491C200.451 290.048 200.865 290.476 201.387 290.777C201.922 291.077 202.524 291.217 203.195 291.197ZM210.309 282.306L211.886 282.259L211.945 284.27C212.135 283.581 212.443 283.065 212.867 282.724C213.304 282.382 213.878 282.201 214.587 282.18L215.849 282.143L215.89 283.543L214.53 283.583C213.583 283.611 212.924 284.005 212.552 284.766C212.179 285.513 212.012 286.531 212.049 287.819L212.178 292.196L210.6 292.243L210.309 282.306ZM221.775 292.073C220.816 292.101 219.955 291.896 219.192 291.458C218.429 291.007 217.825 290.393 217.382 289.616C216.951 288.84 216.722 287.978 216.694 287.032C216.665 286.059 216.831 285.186 217.189 284.412C217.561 283.638 218.096 283.024 218.793 282.57C219.503 282.101 220.337 281.853 221.297 281.825C222.243 281.797 223.071 281.977 223.78 282.364C224.488 282.751 225.037 283.294 225.426 283.993C225.827 284.678 226.041 285.462 226.067 286.342C226.074 286.592 226.068 286.829 226.048 287.053L217.629 287.3L217.591 285.999L224.413 285.799C224.323 284.959 224.008 284.304 223.467 283.833C222.927 283.363 222.217 283.14 221.336 283.166C220.679 283.185 220.112 283.353 219.634 283.67C219.17 283.973 218.82 284.404 218.587 284.963C218.353 285.523 218.248 286.19 218.271 286.966C218.292 287.689 218.456 288.335 218.762 288.905C219.068 289.475 219.482 289.917 220.005 290.23C220.527 290.544 221.103 290.691 221.734 290.673C222.523 290.65 223.162 290.466 223.652 290.123C224.155 289.766 224.476 289.27 224.615 288.635L226.232 288.587C226.09 289.604 225.615 290.434 224.805 291.076C224.008 291.704 222.998 292.037 221.775 292.073ZM233.113 277.768L234.808 277.719L235.213 291.52L233.518 291.57L233.113 277.768ZM233.157 279.286L233.113 277.768L234.808 277.719L234.853 279.237L233.157 279.286ZM233.518 291.57L233.473 290.052L235.169 290.002L235.213 291.52L233.518 291.57ZM238.055 281.491L239.632 281.445L239.688 283.357C239.931 282.666 240.33 282.141 240.885 281.783C241.453 281.411 242.131 281.213 242.92 281.19C243.656 281.169 244.305 281.321 244.867 281.646C245.442 281.958 245.89 282.412 246.21 283.008C246.543 283.603 246.721 284.302 246.745 285.104L246.923 291.176L245.326 291.223L245.155 285.407C245.13 284.553 244.887 283.876 244.425 283.376C243.962 282.863 243.357 282.618 242.607 282.64C242.042 282.657 241.54 282.816 241.102 283.118C240.663 283.408 240.326 283.806 240.091 284.312C239.856 284.819 239.748 285.388 239.766 286.019L239.924 291.382L238.346 291.428L238.055 281.491ZM252.943 291.158C252.167 291.18 251.493 291.069 250.92 290.822C250.347 290.576 249.889 290.208 249.546 289.718C249.203 289.228 249.001 288.636 248.941 287.94L250.42 287.897C250.504 288.513 250.761 288.992 251.192 289.334C251.623 289.664 252.193 289.818 252.903 289.797C253.547 289.778 254.056 289.619 254.428 289.318C254.814 289.004 254.999 288.598 254.984 288.098C254.974 287.73 254.86 287.451 254.644 287.26C254.428 287.055 254.16 286.912 253.842 286.829C253.524 286.747 253.074 286.661 252.493 286.573C251.779 286.475 251.197 286.361 250.746 286.23C250.294 286.085 249.906 285.84 249.58 285.494C249.254 285.135 249.081 284.621 249.061 283.95C249.044 283.372 249.18 282.862 249.47 282.419C249.759 281.963 250.163 281.603 250.681 281.337C251.2 281.072 251.801 280.93 252.484 280.91C253.234 280.888 253.881 280.987 254.427 281.208C254.986 281.428 255.43 281.764 255.759 282.215C256.088 282.665 256.288 283.205 256.359 283.835L254.861 283.879C254.793 283.355 254.544 282.947 254.114 282.657C253.698 282.354 253.174 282.211 252.543 282.23C251.991 282.246 251.522 282.398 251.135 282.686C250.762 282.973 250.582 283.347 250.596 283.807C250.606 284.148 250.712 284.415 250.915 284.606C251.132 284.797 251.399 284.934 251.717 285.017C252.035 285.087 252.464 285.153 253.005 285.216C253.745 285.313 254.347 285.433 254.812 285.577C255.276 285.708 255.672 285.967 255.999 286.352C256.339 286.736 256.519 287.284 256.54 287.993C256.558 288.611 256.423 289.154 256.134 289.623C255.859 290.092 255.448 290.459 254.904 290.725C254.359 290.991 253.705 291.135 252.943 291.158ZM258.676 280.886L260.254 280.839L260.545 290.777L258.968 290.823L258.676 280.886ZM260.252 276.755L260.317 278.963L258.503 279.016L258.438 276.808L260.252 276.755ZM264.279 293.331L268.873 293.196C269.517 293.177 270.037 292.945 270.431 292.499C270.826 292.067 271.014 291.515 270.995 290.845L270.943 289.09C270.72 289.557 270.304 289.944 269.694 290.251C269.085 290.546 268.405 290.704 267.656 290.726C266.657 290.755 265.796 290.557 265.073 290.131C264.35 289.705 263.787 289.109 263.383 288.345C262.992 287.58 262.782 286.712 262.754 285.739C262.725 284.766 262.884 283.887 263.229 283.1C263.587 282.314 264.115 281.686 264.812 281.219C265.508 280.751 266.363 280.502 267.375 280.472C268.045 280.453 268.687 280.585 269.301 280.87C269.927 281.154 270.405 281.528 270.735 281.992L270.692 280.533L272.269 280.487L272.574 290.858C272.594 291.567 272.462 292.196 272.175 292.744C271.889 293.292 271.467 293.725 270.911 294.044C270.354 294.363 269.721 294.533 269.012 294.554L264.319 294.692L264.279 293.331ZM267.792 289.301C268.449 289.282 269.016 289.114 269.494 288.797C269.984 288.48 270.359 288.035 270.619 287.462C270.878 286.888 270.997 286.234 270.976 285.498C270.942 284.367 270.614 283.476 269.989 282.823C269.378 282.17 268.573 281.858 267.574 281.887C266.917 281.907 266.343 282.075 265.852 282.392C265.362 282.709 264.987 283.154 264.727 283.727C264.481 284.3 264.369 284.955 264.39 285.691C264.423 286.821 264.746 287.713 265.357 288.366C265.981 289.019 266.793 289.33 267.792 289.301ZM275.154 276.317L276.731 276.271L276.907 282.265C277.15 281.573 277.549 281.049 278.104 280.69C278.672 280.318 279.351 280.121 280.139 280.098C280.875 280.076 281.525 280.228 282.087 280.554C282.661 280.866 283.109 281.32 283.429 281.915C283.762 282.511 283.941 283.209 283.964 284.011L284.142 290.084L282.545 290.131L282.375 284.314C282.35 283.46 282.106 282.783 281.644 282.283C281.182 281.771 280.576 281.525 279.827 281.547C279.261 281.564 278.76 281.724 278.321 282.026C277.882 282.315 277.545 282.713 277.31 283.22C277.075 283.727 276.967 284.295 276.986 284.926L277.143 290.289L275.566 290.336L275.154 276.317ZM290.773 289.889C290.142 289.908 289.586 289.799 289.105 289.563C288.638 289.327 288.266 288.976 287.989 288.511C287.725 288.045 287.584 287.496 287.566 286.865L287.407 281.443L285.336 281.504L285.295 280.104L287.366 280.043L287.272 276.869L288.85 276.823L288.943 279.997L291.999 279.907L292.04 281.307L288.984 281.397L289.142 286.78C289.158 287.332 289.309 287.762 289.594 288.069C289.892 288.363 290.291 288.502 290.791 288.488L292.25 288.445L292.291 289.845L290.773 289.889ZM297.44 289.851C296.665 289.874 295.991 289.762 295.418 289.516C294.845 289.27 294.387 288.902 294.043 288.412C293.7 287.922 293.499 287.329 293.439 286.634L294.917 286.59C295.001 287.206 295.259 287.686 295.69 288.028C296.12 288.357 296.691 288.512 297.401 288.491C298.045 288.472 298.553 288.312 298.926 288.012C299.311 287.698 299.497 287.291 299.482 286.792C299.471 286.424 299.358 286.144 299.142 285.953C298.925 285.749 298.658 285.606 298.34 285.523C298.021 285.44 297.572 285.355 296.99 285.267C296.277 285.169 295.695 285.055 295.243 284.923C294.792 284.779 294.403 284.533 294.077 284.188C293.751 283.829 293.578 283.314 293.558 282.644C293.541 282.066 293.678 281.555 293.967 281.113C294.257 280.657 294.66 280.296 295.179 280.031C295.697 279.766 296.298 279.623 296.982 279.603C297.731 279.581 298.379 279.681 298.924 279.901C299.483 280.122 299.927 280.457 300.256 280.908C300.585 281.359 300.785 281.899 300.857 282.529L299.358 282.573C299.29 282.048 299.041 281.641 298.612 281.351C298.195 281.048 297.671 280.905 297.04 280.924C296.488 280.94 296.019 281.092 295.633 281.379C295.26 281.667 295.08 282.04 295.093 282.5C295.103 282.842 295.21 283.109 295.413 283.3C295.629 283.491 295.896 283.628 296.214 283.711C296.532 283.78 296.962 283.847 297.503 283.91C298.242 284.006 298.845 284.127 299.309 284.271C299.774 284.402 300.169 284.66 300.496 285.045C300.836 285.43 301.017 285.977 301.038 286.687C301.056 287.305 300.921 287.848 300.632 288.317C300.356 288.786 299.946 289.153 299.401 289.419C298.856 289.685 298.203 289.829 297.44 289.851Z" fill="#121010"/>
<path fill-rule="evenodd" clip-rule="evenodd" d="M135.247 305.999L133.885 305.999C132.789 305.999 131.896 305.107 131.896 304.011L131.896 303.567C131.896 303.367 132.058 303.206 132.258 303.206C132.67 303.206 136.462 303.206 136.874 303.206C137.074 303.206 137.235 303.367 137.235 303.567L137.235 304.011C137.235 305.107 136.343 305.999 135.247 305.999Z" fill="#4E6575"/>
<path fill-rule="evenodd" clip-rule="evenodd" d="M137.225 303.928L131.907 303.928C130.811 303.928 129.919 303.036 129.919 301.939L129.919 300.312C129.919 300.113 130.08 299.951 130.28 299.951L138.852 299.951C139.051 299.951 139.213 300.113 139.213 300.312L139.213 301.939C139.213 303.036 138.322 303.928 137.225 303.928Z" fill="#607483"/>
<path fill-rule="evenodd" clip-rule="evenodd" d="M140.171 297.418L128.961 297.418C128.762 297.418 128.6 297.257 128.6 297.056C128.6 290.782 127.072 288.947 125.595 287.173C124.343 285.67 123.16 284.25 123.16 280.407C123.16 274.118 128.277 269.001 134.566 269.001C140.855 269.001 145.972 274.118 145.972 280.407C145.972 284.249 144.789 285.67 143.538 287.173C142.06 288.947 140.532 290.782 140.532 297.056C140.532 297.257 140.37 297.418 140.171 297.418Z" fill="#FFAB03"/>
<path fill-rule="evenodd" clip-rule="evenodd" d="M134.566 297.418C134.366 297.418 134.205 297.256 134.205 297.056L134.205 288.265L131.25 285.31C131.108 285.169 131.108 284.94 131.25 284.799C131.391 284.658 131.62 284.658 131.761 284.799L134.566 287.605L137.372 284.799C137.513 284.658 137.741 284.658 137.883 284.799C138.024 284.94 138.024 285.169 137.883 285.31L134.927 288.265L134.927 297.056C134.927 297.256 134.765 297.418 134.566 297.418ZM126.133 281.141C125.933 281.141 125.771 280.979 125.771 280.78C125.771 275.725 129.884 271.612 134.939 271.612C135.138 271.612 135.3 271.774 135.3 271.974C135.3 272.173 135.138 272.335 134.939 272.335C130.283 272.335 126.494 276.123 126.494 280.78C126.494 280.979 126.333 281.141 126.133 281.141Z" fill="white"/>
<path fill-rule="evenodd" clip-rule="evenodd" d="M138.543 300.673L130.588 300.673C129.492 300.673 128.6 299.781 128.6 298.685L128.6 297.149L128.6 297.056L128.6 296.695L128.961 296.695L129.054 296.695L139.976 296.695L140.171 296.695L140.532 296.695L140.532 297.056L140.532 297.252L140.532 298.685C140.532 299.781 139.64 300.673 138.543 300.673Z" fill="#4E6575"/>
</g>
<g filter="url(#filter2_d_51_755)">
<rect x="92" y="73.8472" width="344" height="78.901" rx="11.2716" transform="rotate(-1.18946 92 73.8472)" fill="white"/>
<rect x="92.7189" y="74.5369" width="342.591" height="77.492" rx="10.5671" transform="rotate(-1.18946 92.7189 74.5369)" stroke="#FFDEDE" stroke-width="1.40895"/>
<path d="M191.324 122.049C190.233 122.071 189.296 121.9 188.512 121.535C187.741 121.156 187.138 120.623 186.703 119.935C186.268 119.247 186.014 118.43 185.942 117.485L187.599 117.45C187.711 118.434 188.069 119.203 188.672 119.756C189.276 120.296 190.149 120.554 191.293 120.53C192.305 120.509 193.096 120.295 193.667 119.889C194.237 119.483 194.514 118.872 194.497 118.057C194.486 117.518 194.319 117.087 193.996 116.765C193.674 116.443 193.275 116.201 192.798 116.04C192.334 115.879 191.692 115.701 190.873 115.508C189.895 115.291 189.108 115.071 188.511 114.847C187.915 114.609 187.394 114.239 186.949 113.735C186.518 113.231 186.293 112.551 186.276 111.697C186.261 110.974 186.445 110.332 186.828 109.772C187.211 109.211 187.754 108.773 188.458 108.455C189.174 108.125 189.986 107.95 190.893 107.931C191.8 107.912 192.612 108.067 193.329 108.394C194.059 108.707 194.641 109.169 195.075 109.778C195.508 110.387 195.766 111.099 195.849 111.912L194.192 111.947C194.097 111.173 193.756 110.562 193.168 110.114C192.58 109.652 191.832 109.431 190.925 109.45C190.004 109.469 189.279 109.675 188.747 110.067C188.23 110.459 187.977 110.991 187.991 111.661C188.002 112.187 188.162 112.605 188.471 112.914C188.793 113.223 189.186 113.458 189.65 113.62C190.126 113.767 190.761 113.925 191.554 114.093C192.571 114.309 193.378 114.535 193.975 114.773C194.585 114.997 195.112 115.367 195.557 115.884C196.001 116.401 196.233 117.113 196.252 118.02C196.269 118.835 196.067 119.543 195.645 120.144C195.237 120.744 194.654 121.21 193.898 121.541C193.155 121.859 192.297 122.028 191.324 122.049ZM198.422 111.8L200.019 111.767L200.059 113.68C200.23 113.045 200.581 112.538 201.112 112.158C201.643 111.766 202.284 111.562 203.033 111.546C203.835 111.53 204.536 111.706 205.135 112.075C205.735 112.431 206.133 112.942 206.331 113.609C206.503 113 206.887 112.486 207.483 112.065C208.092 111.645 208.759 111.427 209.482 111.412C210.192 111.398 210.813 111.543 211.345 111.847C211.878 112.139 212.288 112.571 212.576 113.143C212.864 113.716 213.016 114.397 213.033 115.186L213.162 121.437L211.565 121.471L211.444 115.633C211.426 114.779 211.208 114.099 210.79 113.595C210.385 113.077 209.833 112.826 209.137 112.84C208.611 112.851 208.147 113.018 207.746 113.342C207.358 113.653 207.057 114.06 206.844 114.565C206.644 115.069 206.55 115.61 206.562 116.188L206.674 121.572L205.096 121.605L204.975 115.767C204.958 114.913 204.74 114.233 204.321 113.729C203.916 113.211 203.372 112.96 202.688 112.974C202.162 112.985 201.699 113.152 201.297 113.476C200.896 113.787 200.596 114.195 200.396 114.699C200.196 115.203 200.102 115.744 200.114 116.322L200.225 121.706L198.628 121.739L198.422 111.8ZM218.98 121.474C218.296 121.489 217.689 121.376 217.158 121.137C216.64 120.898 216.232 120.558 215.933 120.117C215.648 119.663 215.499 119.14 215.486 118.548C215.473 117.917 215.62 117.362 215.925 116.882C216.244 116.388 216.696 116.011 217.283 115.749C217.882 115.473 218.576 115.327 219.365 115.311L221.672 115.263C221.883 115.259 222.033 115.216 222.124 115.135C222.214 115.054 222.258 114.935 222.254 114.777C222.24 114.094 221.992 113.546 221.51 113.136C221.028 112.725 220.373 112.528 219.544 112.545C219.058 112.555 218.619 112.656 218.229 112.849C217.838 113.041 217.521 113.291 217.278 113.598C217.047 113.906 216.923 114.244 216.904 114.612L215.386 114.644C215.438 114.011 215.65 113.435 216.021 112.914C216.404 112.393 216.902 111.982 217.514 111.68C218.139 111.377 218.813 111.219 219.536 111.204C220.391 111.186 221.137 111.328 221.775 111.631C222.412 111.92 222.907 112.337 223.261 112.882C223.627 113.427 223.818 114.068 223.833 114.804L223.966 121.213L222.389 121.246L222.353 119.53L222.239 119.73C222.049 120.076 221.785 120.377 221.449 120.634C221.125 120.891 220.754 121.096 220.337 121.249C219.919 121.389 219.467 121.464 218.98 121.474ZM219.189 120.129C220.188 120.108 220.958 119.802 221.498 119.212C222.051 118.609 222.317 117.795 222.296 116.769L222.291 116.552L219.491 116.61C218.754 116.626 218.166 116.802 217.726 117.14C217.299 117.478 217.091 117.929 217.103 118.495C217.114 119.008 217.306 119.411 217.681 119.706C218.068 120.001 218.571 120.141 219.189 120.129ZM236.309 120.957C235.349 120.977 234.581 120.717 234.004 120.176C233.44 119.622 233.148 118.865 233.128 117.906L232.92 107.907L234.498 107.874L234.564 111.049L237.601 110.986L237.63 112.387L234.593 112.45L234.705 117.833C234.716 118.386 234.863 118.817 235.146 119.126C235.442 119.423 235.839 119.566 236.339 119.555L237.778 119.526L237.807 120.926L236.309 120.957ZM226.616 111.214L228.194 111.182L228.236 113.193C228.432 112.505 228.744 111.992 229.171 111.655C229.611 111.317 230.186 111.14 230.896 111.126L232.059 111.101L232.089 112.502L230.826 112.528C229.88 112.547 229.217 112.936 228.838 113.694C228.459 114.438 228.283 115.455 228.31 116.743L228.401 121.121L226.823 121.154L226.616 111.214ZM244.432 106.978L248.494 106.893C249.809 106.866 250.991 107.111 252.041 107.628C253.091 108.146 253.929 108.924 254.556 109.964C255.182 110.99 255.51 112.219 255.54 113.652C255.57 115.085 255.293 116.334 254.71 117.398C254.127 118.45 253.322 119.255 252.294 119.816C251.267 120.377 250.096 120.671 248.781 120.698L244.718 120.782L244.432 106.978ZM248.71 119.18C249.657 119.161 250.514 118.952 251.282 118.555C252.062 118.157 252.681 117.552 253.138 116.74C253.594 115.915 253.81 114.898 253.785 113.689C253.76 112.479 253.502 111.478 253.012 110.686C252.522 109.881 251.879 109.296 251.082 108.931C250.298 108.566 249.433 108.393 248.486 108.413L246.159 108.461L246.383 119.229L248.71 119.18ZM257.854 110.566L259.432 110.533L259.638 120.472L258.061 120.505L257.854 110.566ZM259.465 106.448L259.511 108.657L257.697 108.695L257.651 106.486L259.465 106.448ZM263.35 123.059L267.945 122.963C268.589 122.95 269.11 122.722 269.509 122.28C269.908 121.851 270.1 121.301 270.086 120.63L270.05 118.875C269.823 119.34 269.403 119.724 268.791 120.026C268.179 120.315 267.498 120.467 266.749 120.483C265.75 120.503 264.891 120.298 264.171 119.865C263.452 119.433 262.894 118.833 262.496 118.065C262.112 117.297 261.91 116.427 261.89 115.454C261.87 114.481 262.035 113.603 262.387 112.82C262.753 112.036 263.286 111.413 263.986 110.951C264.687 110.49 265.543 110.248 266.556 110.227C267.226 110.213 267.867 110.351 268.478 110.641C269.102 110.931 269.577 111.309 269.902 111.776L269.872 110.316L271.45 110.284L271.665 120.657C271.68 121.367 271.542 121.994 271.251 122.54C270.959 123.085 270.534 123.515 269.975 123.829C269.416 124.143 268.782 124.307 268.072 124.322L263.378 124.42L263.35 123.059ZM266.897 119.059C267.554 119.045 268.123 118.882 268.603 118.57C269.097 118.257 269.475 117.815 269.74 117.244C270.004 116.673 270.129 116.019 270.113 115.283C270.09 114.152 269.769 113.258 269.15 112.6C268.545 111.942 267.742 111.623 266.743 111.644C266.086 111.658 265.51 111.821 265.017 112.134C264.524 112.446 264.145 112.888 263.88 113.459C263.629 114.03 263.511 114.684 263.527 115.42C263.55 116.551 263.865 117.445 264.47 118.103C265.089 118.761 265.898 119.08 266.897 119.059ZM274.455 110.221L276.033 110.188L276.239 120.128L274.662 120.161L274.455 110.221ZM276.067 106.104L276.112 108.312L274.298 108.35L274.252 106.141L276.067 106.104ZM283.189 119.983C282.558 119.997 282.003 119.883 281.525 119.643C281.059 119.403 280.69 119.049 280.418 118.581C280.158 118.113 280.022 117.563 280.008 116.932L279.896 111.509L277.825 111.552L277.796 110.152L279.867 110.109L279.801 106.934L281.378 106.901L281.444 110.076L284.501 110.013L284.53 111.413L281.473 111.476L281.585 116.86C281.597 117.412 281.744 117.843 282.026 118.153C282.322 118.449 282.72 118.592 283.219 118.582L284.678 118.552L284.708 119.952L283.189 119.983ZM289.66 120.007C288.976 120.021 288.369 119.909 287.838 119.67C287.32 119.431 286.912 119.091 286.613 118.65C286.327 118.195 286.178 117.672 286.166 117.081C286.153 116.45 286.299 115.894 286.605 115.414C286.924 114.921 287.376 114.543 287.963 114.281C288.562 114.006 289.256 113.86 290.045 113.843L292.352 113.795C292.563 113.791 292.713 113.749 292.803 113.668C292.894 113.587 292.937 113.468 292.934 113.31C292.92 112.626 292.672 112.079 292.19 111.668C291.708 111.257 291.052 111.06 290.224 111.078C289.738 111.088 289.299 111.189 288.909 111.381C288.518 111.573 288.201 111.823 287.957 112.131C287.727 112.438 287.603 112.776 287.584 113.145L286.065 113.176C286.118 112.544 286.33 111.967 286.7 111.447C287.084 110.926 287.582 110.514 288.194 110.212C288.819 109.91 289.493 109.751 290.216 109.736C291.071 109.718 291.817 109.861 292.454 110.163C293.092 110.452 293.587 110.87 293.94 111.415C294.307 111.959 294.498 112.6 294.513 113.336L294.646 119.746L293.068 119.778L293.033 118.063L292.918 118.262C292.728 118.608 292.465 118.91 292.128 119.167C291.805 119.423 291.434 119.628 291.017 119.781C290.599 119.922 290.146 119.997 289.66 120.007ZM289.869 118.661C290.868 118.64 291.638 118.335 292.178 117.745C292.731 117.142 292.997 116.327 292.975 115.302L292.971 115.085L290.17 115.143C289.434 115.158 288.846 115.335 288.406 115.673C287.979 116.01 287.771 116.462 287.783 117.027C287.794 117.54 287.986 117.944 288.36 118.239C288.748 118.533 289.251 118.674 289.869 118.661ZM297.211 105.665L298.789 105.632L299.08 119.654L297.503 119.686L297.211 105.665ZM305.413 105.711L307.168 105.675L310.814 116.865L314.051 105.532L315.55 105.501L319.254 116.69L322.452 105.358L324.188 105.322L320.234 119.214L318.518 119.25L314.854 108.1L311.675 119.392L309.979 119.427L305.413 105.711ZM329.732 119.175C328.772 119.195 327.9 118.996 327.115 118.578C326.33 118.147 325.713 117.549 325.263 116.782C324.826 116.015 324.597 115.138 324.577 114.152C324.556 113.166 324.748 112.281 325.153 111.497C325.571 110.712 326.163 110.095 326.93 109.645C327.696 109.181 328.559 108.94 329.519 108.92C330.492 108.9 331.364 109.105 332.136 109.536C332.921 109.954 333.538 110.546 333.988 111.313C334.438 112.08 334.673 112.956 334.694 113.942C334.714 114.928 334.515 115.814 334.098 116.598C333.68 117.383 333.088 118.007 332.321 118.47C331.568 118.92 330.705 119.155 329.732 119.175ZM329.702 117.755C330.373 117.741 330.968 117.571 331.487 117.244C332.006 116.918 332.398 116.469 332.663 115.898C332.94 115.327 333.071 114.686 333.057 113.976C333.042 113.266 332.884 112.632 332.583 112.072C332.295 111.513 331.885 111.081 331.353 110.776C330.82 110.471 330.219 110.326 329.548 110.34C328.878 110.354 328.283 110.524 327.763 110.851C327.257 111.177 326.865 111.625 326.588 112.197C326.31 112.768 326.179 113.409 326.194 114.119C326.209 114.829 326.366 115.463 326.667 116.023C326.968 116.582 327.378 117.014 327.898 117.319C328.43 117.624 329.032 117.769 329.702 117.755ZM336.892 108.925L338.47 108.892L338.512 110.904C338.708 110.216 339.02 109.703 339.447 109.365C339.887 109.027 340.462 108.851 341.172 108.836L342.434 108.81L342.463 110.21L341.102 110.238C340.156 110.258 339.493 110.646 339.114 111.404C338.735 112.148 338.559 113.165 338.585 114.453L338.676 118.831L337.099 118.864L336.892 108.925ZM345.335 113.504L350.482 108.643L352.592 108.599L345.355 115.437L345.335 113.504ZM344.126 104.691L345.723 104.657L346.014 118.679L344.417 118.712L344.126 104.691ZM346.765 113.041L348.171 112.301L353.173 118.53L351.181 118.572L346.765 113.041ZM362.498 104.309L362.79 118.331L361.212 118.363L361.035 109.824L356.834 109.912L357.011 118.451L355.434 118.483L355.256 109.944L353.186 109.987L353.157 108.587L355.227 108.544L355.206 107.538C355.194 106.92 355.307 106.379 355.548 105.913C355.787 105.435 356.142 105.066 356.61 104.806C357.078 104.547 357.621 104.41 358.239 104.398L359.383 104.374L359.412 105.774L358.327 105.797C357.841 105.807 357.456 105.972 357.173 106.294C356.903 106.602 356.774 107.019 356.785 107.545L356.805 108.511L361.006 108.424L360.921 104.342L362.498 104.309ZM370.156 118.336C369.196 118.356 368.324 118.157 367.539 117.739C366.754 117.308 366.137 116.709 365.687 115.942C365.25 115.176 365.021 114.299 365.001 113.313C364.98 112.327 365.172 111.442 365.577 110.657C365.995 109.873 366.587 109.255 367.354 108.805C368.12 108.342 368.983 108.101 369.943 108.081C370.916 108.06 371.788 108.266 372.56 108.697C373.345 109.115 373.962 109.707 374.412 110.474C374.862 111.241 375.097 112.117 375.118 113.103C375.138 114.089 374.94 114.974 374.522 115.759C374.104 116.544 373.512 117.168 372.746 117.631C371.992 118.08 371.129 118.315 370.156 118.336ZM370.126 116.916C370.797 116.902 371.392 116.732 371.911 116.405C372.431 116.079 372.822 115.63 373.087 115.059C373.364 114.488 373.496 113.847 373.481 113.137C373.466 112.427 373.308 111.792 373.007 111.233C372.719 110.673 372.309 110.241 371.777 109.937C371.244 109.632 370.643 109.487 369.972 109.501C369.302 109.515 368.707 109.685 368.188 110.011C367.681 110.337 367.29 110.786 367.012 111.357C366.735 111.929 366.603 112.569 366.618 113.279C366.633 113.989 366.791 114.624 367.092 115.183C367.393 115.743 367.803 116.175 368.322 116.48C368.854 116.784 369.456 116.93 370.126 116.916ZM376.175 108.109L377.753 108.076L380.106 115.919L382.388 107.98L383.926 107.948L386.496 115.787L388.521 107.853L390.118 107.82L387.307 117.822L385.789 117.853L383.179 109.996L380.918 117.954L379.399 117.986L376.175 108.109Z" fill="#121010"/>
<path d="M162.48 97.0406L162.956 130.426C162.986 132.542 161.279 134.299 159.163 134.33L120.676 134.884C118.559 134.914 116.803 133.207 116.772 131.09L116.296 97.7053L162.48 97.0406Z" fill="#DEDDFF"/>
<path d="M162.405 92.149L162.48 97.0406L116.306 97.7051L116.231 92.8135C116.2 90.6872 117.898 88.9401 120.024 88.9095L158.501 88.3557C160.618 88.3253 162.375 90.0323 162.405 92.149Z" fill="#5B5E8B"/>
<path d="M123.006 134.85L120.678 134.883C118.561 134.914 116.804 133.207 116.774 131.09L116.298 97.7145L118.627 97.681L119.102 131.056C119.133 133.173 120.89 134.88 123.006 134.85Z" fill="#C6C6F7"/>
<path d="M122.345 88.8757C120.218 88.9063 118.521 90.6534 118.551 92.7797L118.627 97.681L116.298 97.7145L116.223 92.8133C116.192 90.6869 117.899 88.9397 120.016 88.9092L122.345 88.8757Z" fill="#312E4B"/>
<path d="M132.718 93.1022C132.731 94.0068 132.009 94.7502 131.111 94.7631C130.206 94.7762 129.463 94.0538 129.45 93.1493C129.437 92.2447 130.159 91.5012 131.064 91.4882C131.962 91.4753 132.705 92.1977 132.718 93.1022ZM128.199 93.1673C128.212 94.0718 127.489 94.8153 126.591 94.8282C125.687 94.8412 124.943 94.1189 124.93 93.2143C124.917 92.3097 125.64 91.5663 126.544 91.5532C127.442 91.5403 128.186 92.2627 128.199 93.1673ZM123.679 93.2323C123.692 94.1369 122.97 94.8803 122.072 94.8932C121.167 94.9062 120.424 94.1839 120.411 93.2793C120.398 92.3748 121.12 91.6313 122.024 91.6183C122.922 91.6054 123.666 92.3277 123.679 93.2323ZM158.239 92.9306C158.247 93.5091 157.784 93.9856 157.205 93.9939L141.929 94.2138C141.345 94.2222 140.874 93.7591 140.866 93.1806C140.857 92.602 141.315 92.1256 141.899 92.1172L157.175 91.8973C157.754 91.889 158.23 92.352 158.239 92.9306Z" fill="#DEDDFF"/>
<path d="M130.632 101.145C130.637 101.501 130.356 101.798 130.001 101.803L120.847 101.935C120.492 101.94 120.202 101.651 120.197 101.296C120.192 100.941 120.474 100.651 120.829 100.646L129.982 100.514C130.337 100.509 130.627 100.79 130.632 101.145ZM130.671 103.871C130.676 104.226 130.395 104.524 130.04 104.529L120.886 104.661C120.531 104.666 120.242 104.376 120.236 104.021C120.231 103.666 120.513 103.377 120.868 103.372L130.021 103.24C130.376 103.235 130.666 103.516 130.671 103.871ZM126.299 106.66C126.304 107.015 126.023 107.313 125.668 107.318L120.926 107.386C120.571 107.391 120.281 107.102 120.276 106.747C120.271 106.392 120.552 106.102 120.907 106.097L125.649 106.029C126.004 106.024 126.294 106.305 126.299 106.66Z" fill="#C6C6F7"/>
<path d="M152.379 119.116L150.871 119.137L150.812 114.994C150.804 114.479 150.386 114.067 149.88 114.074L129.823 114.363C129.316 114.37 128.91 114.794 128.917 115.309L128.958 118.11L127.45 118.132L127.409 115.33C127.39 113.984 128.463 112.874 129.801 112.855L149.858 112.566C151.196 112.547 152.3 113.626 152.32 114.972L152.379 119.116Z" fill="#5B5E8B"/>
<path d="M140.513 107.82L139.005 107.842L139.153 118.104L140.661 118.083L140.513 107.82Z" fill="#5B5E8B"/>
<path d="M128.967 118.713L127.459 118.735L127.607 128.997L129.114 128.975L128.967 118.713Z" fill="#5B5E8B"/>
<path d="M139.612 128.072L129.35 128.219L129.371 129.727L139.634 129.58L139.612 128.072Z" fill="#5B5E8B"/>
<path d="M143.88 108.965L135.674 109.083C135.088 109.091 134.606 108.623 134.597 108.037L134.543 104.238C134.534 103.652 135.003 103.17 135.589 103.161L143.795 103.043C144.381 103.035 144.863 103.503 144.872 104.09L144.927 107.888C144.935 108.474 144.467 108.957 143.88 108.965Z" fill="#FCB73E"/>
<path d="M131.611 122.611L124.927 122.707C124.439 122.714 124.038 122.324 124.031 121.837L123.972 117.739C123.965 117.252 124.355 116.85 124.843 116.843L131.527 116.747C132.015 116.74 132.416 117.13 132.423 117.618L132.482 121.715C132.489 122.203 132.099 122.604 131.611 122.611Z" fill="#65B9FF"/>
<path d="M154.57 122.281L147.886 122.377C147.398 122.384 146.996 121.994 146.989 121.506L146.93 117.409C146.923 116.921 147.313 116.52 147.801 116.513L154.485 116.416C154.973 116.409 155.375 116.799 155.382 117.287L155.441 121.384C155.448 121.872 155.058 122.274 154.57 122.281Z" fill="#E83D62"/>
<path d="M136.349 104.319L136.4 107.914C136.41 108.557 136.933 109.066 137.576 109.057L135.774 109.082C135.131 109.092 134.607 108.583 134.598 107.94L134.546 104.335C134.537 103.702 135.046 103.168 135.689 103.158L143.689 103.043C143.732 103.043 143.774 103.042 143.806 103.052L137.491 103.143C136.848 103.152 136.339 103.676 136.349 104.319Z" fill="#FD982E"/>
<path d="M126.719 122.68L125.011 122.705C124.474 122.713 124.035 122.287 124.028 121.749L123.971 117.828C123.963 117.29 124.389 116.852 124.927 116.844L126.73 116.818C126.192 116.826 125.766 117.264 125.774 117.802L125.83 121.734C125.838 122.229 126.223 122.645 126.719 122.68Z" fill="#3E7FFF"/>
<path d="M149.678 122.35L147.97 122.374C147.432 122.382 146.994 121.956 146.986 121.418L146.93 117.497C146.922 116.96 147.348 116.521 147.886 116.513L149.688 116.487C149.151 116.495 148.725 116.934 148.732 117.471L148.789 121.403C148.796 121.898 149.182 122.315 149.678 122.35Z" fill="#CE2955"/>
<path d="M143.313 122.443L136.629 122.539C136.141 122.546 135.74 122.156 135.733 121.668L135.674 117.571C135.667 117.083 136.057 116.682 136.545 116.675L143.229 116.579C143.717 116.572 144.118 116.961 144.125 117.449L144.184 121.546C144.191 122.034 143.801 122.436 143.313 122.443Z" fill="#46CC6B"/>
<path d="M138.421 122.512L136.713 122.536C136.176 122.544 135.737 122.118 135.73 121.581L135.673 117.659C135.665 117.122 136.091 116.683 136.629 116.675L138.432 116.65C137.894 116.657 137.468 117.096 137.476 117.633L137.532 121.565C137.539 122.061 137.925 122.477 138.421 122.512Z" fill="#179C5F"/>
<path d="M143.447 131.703L136.763 131.799C136.275 131.806 135.874 131.416 135.867 130.928L135.808 126.831C135.801 126.343 136.191 125.942 136.679 125.935L143.363 125.839C143.851 125.832 144.252 126.221 144.259 126.709L144.318 130.807C144.325 131.294 143.935 131.696 143.447 131.703Z" fill="#FCB73E"/>
<path d="M138.555 131.772L136.848 131.796C136.31 131.804 135.872 131.378 135.864 130.841L135.807 126.919C135.8 126.382 136.226 125.943 136.763 125.936L138.566 125.91C138.028 125.917 137.602 126.356 137.61 126.893L137.666 130.825C137.674 131.321 138.059 131.737 138.555 131.772Z" fill="#E87F21"/>
<path d="M131.746 131.871L125.061 131.967C124.573 131.974 124.172 131.585 124.165 131.097L124.106 126.999C124.099 126.512 124.489 126.11 124.977 126.103L131.661 126.007C132.149 126 132.55 126.39 132.557 126.878L132.616 130.975C132.623 131.463 132.234 131.864 131.746 131.871Z" fill="#E83D62"/>
<path d="M126.853 131.94L125.146 131.965C124.608 131.973 124.17 131.547 124.162 131.009L124.106 127.088C124.098 126.55 124.524 126.112 125.061 126.104L126.864 126.078C126.326 126.086 125.9 126.524 125.908 127.062L125.965 130.994C125.972 131.489 126.357 131.905 126.853 131.94Z" fill="#CE2955"/>
</g>
<g filter="url(#filter3_d_51_755)">
<g clip-path="url(#clip2_51_755)">
<rect x="93.9678" y="147.731" width="344" height="78.901" rx="11.2716" transform="rotate(2.6014 93.9678 147.731)" fill="white"/>
<path d="M183.762 184.254L192.393 184.646L192.324 186.163L185.388 185.848L185.188 190.242L190.844 190.499L190.775 192.017L185.119 191.76L184.899 196.607L192.052 196.932L191.983 198.449L183.135 198.047L183.762 184.254ZM195.123 190.042L193.054 189.948L193.118 188.549L195.187 188.643L195.232 187.638C195.26 187.021 195.41 186.488 195.68 186.039C195.951 185.578 196.329 185.233 196.813 185.005C197.297 184.777 197.848 184.677 198.466 184.705L200.022 184.776L199.959 186.175L198.461 186.107C197.975 186.084 197.581 186.224 197.277 186.527C196.988 186.816 196.831 187.224 196.807 187.749L196.763 188.715L200.96 188.905L201.006 187.901C201.034 187.283 201.183 186.75 201.454 186.302C201.738 185.841 202.116 185.496 202.587 185.267C203.071 185.039 203.622 184.939 204.239 184.967L205.816 185.039L205.752 186.438L204.255 186.37C203.768 186.348 203.374 186.488 203.07 186.79C202.768 187.079 202.604 187.486 202.581 188.012L202.537 188.977L208.448 189.246L207.997 199.177L206.421 199.105L206.808 190.573L202.473 190.376L202.085 198.908L200.509 198.837L200.897 190.305L196.7 190.114L196.312 198.646L194.736 198.574L195.123 190.042ZM215.145 199.66C214.134 199.614 213.271 199.338 212.557 198.831C211.856 198.325 211.332 197.676 210.987 196.884C210.655 196.079 210.509 195.223 210.55 194.317C210.592 193.411 210.814 192.578 211.217 191.82C211.634 191.049 212.214 190.444 212.958 190.003C213.715 189.564 214.599 189.367 215.611 189.413C216.36 189.447 217.049 189.623 217.68 189.942C218.324 190.247 218.851 190.679 219.26 191.238C219.67 191.783 219.904 192.412 219.964 193.126L218.407 193.055C218.33 192.446 218.024 191.932 217.49 191.513C216.956 191.093 216.315 190.867 215.566 190.833C214.87 190.801 214.271 190.938 213.77 191.245C213.283 191.552 212.901 191.982 212.626 192.536C212.364 193.077 212.218 193.695 212.186 194.391C212.137 195.469 212.373 196.368 212.893 197.089C213.426 197.811 214.205 198.195 215.23 198.242C215.978 198.276 216.617 198.134 217.145 197.815C217.686 197.485 218.056 197.021 218.254 196.424L219.791 196.494C219.655 197.173 219.379 197.752 218.962 198.234C218.545 198.715 218.008 199.085 217.351 199.345C216.708 199.592 215.973 199.697 215.145 199.66ZM222.357 189.878L223.934 189.949L223.483 199.881L221.906 199.809L222.357 189.878ZM224.237 185.876L224.137 188.083L222.324 188L222.424 185.793L224.237 185.876ZM230.715 200.367C229.756 200.324 228.913 200.055 228.185 199.561C227.457 199.054 226.901 198.397 226.517 197.59C226.145 196.783 225.981 195.907 226.024 194.961C226.068 193.989 226.298 193.13 226.714 192.386C227.142 191.642 227.721 191.069 228.45 190.668C229.193 190.254 230.044 190.069 231.003 190.112C231.949 190.155 232.761 190.396 233.438 190.835C234.116 191.274 234.623 191.857 234.958 192.583C235.308 193.296 235.462 194.093 235.422 194.973C235.411 195.223 235.387 195.459 235.351 195.681L226.937 195.299L226.996 193.998L233.814 194.308C233.786 193.464 233.521 192.787 233.018 192.277C232.514 191.767 231.822 191.492 230.942 191.452C230.285 191.423 229.707 191.548 229.207 191.828C228.721 192.095 228.341 192.499 228.066 193.04C227.792 193.58 227.637 194.238 227.601 195.013C227.569 195.735 227.684 196.392 227.946 196.983C228.209 197.574 228.589 198.046 229.087 198.398C229.584 198.749 230.148 198.939 230.778 198.968C231.567 199.004 232.218 198.869 232.732 198.563C233.26 198.245 233.617 197.774 233.803 197.151L235.419 197.224C235.202 198.228 234.666 199.02 233.81 199.599C232.968 200.167 231.937 200.423 230.715 200.367ZM238.002 190.588L239.578 190.66L239.492 192.571C239.785 191.9 240.222 191.407 240.803 191.091C241.397 190.762 242.088 190.616 242.876 190.652C243.612 190.685 244.248 190.885 244.784 191.252C245.334 191.606 245.746 192.092 246.021 192.71C246.309 193.329 246.435 194.039 246.398 194.84L246.122 200.909L244.526 200.837L244.79 195.024C244.829 194.17 244.637 193.477 244.214 192.944C243.791 192.398 243.205 192.108 242.456 192.074C241.891 192.049 241.379 192.17 240.919 192.439C240.46 192.694 240.094 193.066 239.822 193.554C239.55 194.042 239.399 194.601 239.371 195.232L239.127 200.591L237.551 200.52L238.002 190.588ZM253.112 201.385C252.101 201.339 251.238 201.063 250.524 200.556C249.822 200.05 249.299 199.401 248.953 198.609C248.621 197.804 248.476 196.948 248.517 196.042C248.558 195.136 248.78 194.303 249.183 193.545C249.6 192.774 250.181 192.169 250.925 191.728C251.682 191.289 252.566 191.092 253.578 191.138C254.326 191.172 255.016 191.348 255.647 191.667C256.291 191.972 256.818 192.404 257.227 192.963C257.636 193.508 257.871 194.137 257.931 194.851L256.374 194.78C256.296 194.171 255.991 193.657 255.457 193.238C254.923 192.818 254.282 192.592 253.533 192.558C252.837 192.526 252.238 192.663 251.737 192.97C251.249 193.277 250.868 193.707 250.592 194.261C250.331 194.801 250.184 195.42 250.153 196.116C250.104 197.194 250.339 198.093 250.859 198.814C251.393 199.536 252.172 199.92 253.196 199.967C253.945 200.001 254.583 199.859 255.111 199.54C255.653 199.21 256.023 198.746 256.221 198.149L257.758 198.219C257.622 198.898 257.345 199.477 256.928 199.959C256.512 200.44 255.975 200.81 255.318 201.07C254.675 201.317 253.94 201.422 253.112 201.385ZM262.192 201.876L259.029 191.544L260.664 191.618L263.076 199.804L266.201 191.87L267.837 191.944L262.237 205.669L260.661 205.598L262.192 201.876ZM277.792 202.506C276.899 202.465 276.137 202.279 275.507 201.948C274.891 201.604 274.419 201.135 274.09 200.541C273.762 199.947 273.616 199.249 273.652 198.448C273.686 197.712 273.884 197.102 274.249 196.619C274.627 196.123 275.066 195.728 275.566 195.435C276.08 195.129 276.747 194.797 277.566 194.44C278.252 194.128 278.79 193.863 279.182 193.644C279.574 193.425 279.909 193.151 280.187 192.821C280.465 192.491 280.615 192.097 280.636 191.637C280.66 191.098 280.49 190.65 280.124 190.291C279.772 189.932 279.313 189.74 278.748 189.715C278.367 189.697 278.022 189.767 277.712 189.924C277.416 190.069 277.176 190.288 276.991 190.583C276.807 190.877 276.706 191.215 276.688 191.596C276.669 192.016 276.794 192.45 277.064 192.896C277.347 193.33 277.738 193.842 278.238 194.431L278.481 194.738L285.11 202.68L283.277 202.597L277.337 195.574C276.649 194.78 276.109 194.057 275.718 193.408C275.34 192.746 275.165 192.106 275.193 191.488C275.221 190.871 275.39 190.326 275.701 189.853C276.013 189.367 276.438 188.998 276.976 188.746C277.527 188.494 278.138 188.384 278.808 188.414C279.478 188.445 280.069 188.603 280.583 188.89C281.096 189.176 281.487 189.563 281.754 190.049C282.035 190.535 282.162 191.074 282.135 191.666C282.102 192.401 281.902 193.024 281.537 193.534C281.171 194.044 280.732 194.452 280.217 194.757C279.717 195.051 279.064 195.37 278.259 195.715C277.586 196.027 277.054 196.292 276.663 196.511C276.271 196.73 275.936 197.011 275.657 197.354C275.378 197.684 275.229 198.078 275.208 198.538C275.173 199.313 275.382 199.922 275.836 200.364C276.303 200.806 276.97 201.047 277.837 201.086C278.323 201.108 278.8 201.045 279.267 200.895C279.735 200.732 280.169 200.468 280.567 200.105C280.842 199.841 281.079 199.562 281.276 199.268L282.287 197.892C282.739 197.202 283.2 196.756 283.67 196.553C284.14 196.351 284.671 196.263 285.262 196.29L285.193 197.807C284.812 197.79 284.46 197.859 284.137 198.016C283.815 198.159 283.541 198.377 283.317 198.67L283.212 198.823L282.382 200.148C282.339 200.225 282.289 200.301 282.233 200.378C282.19 200.455 282.134 200.525 282.065 200.587C281.701 201.084 281.281 201.48 280.807 201.774C280.333 202.055 279.837 202.257 279.318 202.378C278.813 202.487 278.304 202.529 277.792 202.506ZM292.563 189.197L297.765 189.434C298.671 189.475 299.445 189.681 300.086 190.052C300.741 190.424 301.231 190.927 301.558 191.561C301.885 192.194 302.03 192.912 301.993 193.713C301.957 194.514 301.747 195.216 301.365 195.817C300.982 196.418 300.448 196.874 299.762 197.186C299.09 197.497 298.3 197.633 297.394 197.591L293.887 197.432L293.63 203.068L291.936 202.991L292.563 189.197ZM297.442 196.093C298.06 196.121 298.571 196.032 298.975 195.827C299.393 195.609 299.703 195.307 299.905 194.921C300.106 194.536 300.218 194.106 300.24 193.633C300.274 192.885 300.085 192.257 299.673 191.752C299.262 191.246 298.596 190.972 297.677 190.93L294.189 190.772L293.955 195.934L297.442 196.093ZM303.91 193.583L305.486 193.654L305.395 195.664C305.636 194.991 305.981 194.5 306.429 194.191C306.891 193.883 307.476 193.745 308.186 193.777L309.447 193.834L309.383 195.233L308.023 195.172C307.078 195.129 306.391 195.473 305.962 196.204C305.535 196.921 305.292 197.924 305.233 199.211L305.035 203.586L303.458 203.514L303.91 193.583ZM314.753 204.185C313.794 204.142 312.937 203.886 312.181 203.417C311.426 202.935 310.85 202.297 310.452 201.502C310.066 200.708 309.896 199.818 309.941 198.833C309.986 197.848 310.236 196.977 310.692 196.221C311.16 195.466 311.792 194.889 312.587 194.49C313.382 194.079 314.259 193.895 315.218 193.939C316.19 193.983 317.047 194.246 317.789 194.727C318.544 195.196 319.121 195.827 319.519 196.622C319.918 197.417 320.094 198.307 320.05 199.292C320.005 200.277 319.748 201.148 319.279 201.903C318.811 202.658 318.179 203.242 317.383 203.653C316.602 204.052 315.725 204.229 314.753 204.185ZM314.817 202.767C315.487 202.797 316.092 202.666 316.632 202.375C317.172 202.084 317.592 201.662 317.894 201.109C318.208 200.558 318.382 199.927 318.414 199.218C318.446 198.508 318.331 197.865 318.067 197.287C317.817 196.709 317.437 196.251 316.925 195.912C316.414 195.573 315.824 195.388 315.154 195.357C314.484 195.327 313.879 195.458 313.339 195.749C312.813 196.041 312.392 196.463 312.077 197.015C311.763 197.566 311.589 198.197 311.557 198.906C311.525 199.616 311.64 200.259 311.903 200.837C312.167 201.415 312.548 201.874 313.046 202.212C313.557 202.551 314.147 202.736 314.817 202.767ZM326.196 204.705C325.197 204.66 324.354 204.398 323.665 203.919C322.976 203.44 322.458 202.804 322.112 202.012C321.78 201.22 321.636 200.338 321.68 199.366C321.724 198.394 321.948 197.529 322.351 196.77C322.767 196.013 323.34 195.427 324.069 195.012C324.799 194.598 325.67 194.414 326.681 194.46C327.364 194.491 328 194.684 328.59 195.04C329.192 195.396 329.633 195.844 329.911 196.383L330.17 190.689L331.746 190.76L331.11 204.77L329.533 204.699L329.607 203.063C329.281 203.588 328.801 204.001 328.169 204.301C327.55 204.602 326.892 204.737 326.196 204.705ZM326.438 203.294C327.095 203.324 327.673 203.199 328.173 202.919C328.686 202.64 329.093 202.224 329.394 201.671C329.696 201.119 329.863 200.475 329.897 199.739C329.948 198.61 329.687 197.696 329.113 196.999C328.552 196.302 327.773 195.931 326.774 195.885C326.117 195.856 325.533 195.98 325.02 196.26C324.507 196.539 324.1 196.955 323.798 197.508C323.51 198.06 323.349 198.705 323.315 199.44C323.264 200.57 323.519 201.483 324.079 202.18C324.653 202.878 325.439 203.249 326.438 203.294ZM337.672 205.227C336.949 205.194 336.313 205 335.763 204.646C335.214 204.279 334.802 203.786 334.527 203.168C334.253 202.55 334.133 201.841 334.17 201.039L334.446 194.97L336.022 195.042L335.758 200.855C335.719 201.709 335.911 202.409 336.334 202.954C336.77 203.487 337.363 203.771 338.112 203.805C338.663 203.83 339.169 203.715 339.628 203.459C340.088 203.191 340.454 202.812 340.726 202.325C340.998 201.837 341.149 201.277 341.178 200.647L341.421 195.287L342.997 195.359L342.546 205.29L340.97 205.218L341.057 203.307C340.763 203.978 340.319 204.478 339.725 204.806C339.144 205.122 338.46 205.262 337.672 205.227ZM349.674 205.772C348.662 205.726 347.799 205.45 347.085 204.943C346.384 204.438 345.861 203.789 345.515 202.996C345.183 202.191 345.038 201.336 345.079 200.429C345.12 199.523 345.342 198.69 345.745 197.932C346.162 197.161 346.742 196.556 347.486 196.116C348.244 195.676 349.128 195.479 350.139 195.525C350.888 195.559 351.578 195.735 352.208 196.054C352.853 196.359 353.379 196.791 353.788 197.35C354.198 197.895 354.433 198.524 354.492 199.238L352.936 199.167C352.858 198.558 352.552 198.044 352.019 197.625C351.485 197.206 350.843 196.979 350.095 196.945C349.398 196.913 348.8 197.051 348.299 197.357C347.811 197.664 347.429 198.094 347.154 198.648C346.893 199.189 346.746 199.807 346.714 200.504C346.665 201.581 346.901 202.48 347.421 203.201C347.954 203.923 348.733 204.307 349.758 204.354C350.507 204.388 351.145 204.246 351.673 203.928C352.215 203.597 352.584 203.133 352.783 202.537L354.32 202.606C354.184 203.285 353.907 203.865 353.49 204.346C353.074 204.827 352.537 205.198 351.88 205.457C351.237 205.705 350.501 205.809 349.674 205.772ZM360.26 206.095C359.629 206.066 359.083 205.916 358.621 205.645C358.173 205.375 357.828 204.997 357.587 204.512C357.359 204.028 357.259 203.471 357.288 202.84L357.534 197.421L355.465 197.327L355.528 195.928L357.597 196.022L357.742 192.85L359.318 192.921L359.174 196.094L362.228 196.233L362.165 197.632L359.11 197.493L358.866 202.872C358.841 203.424 358.959 203.864 359.221 204.192C359.496 204.507 359.883 204.676 360.382 204.699L361.84 204.765L361.777 206.164L360.26 206.095ZM364.217 196.323L365.794 196.395L365.343 206.326L363.766 206.254L364.217 196.323ZM366.097 192.321L365.997 194.528L364.184 194.446L364.284 192.239L366.097 192.321ZM367.713 196.482L369.349 196.556L371.823 204.665L375.024 196.814L376.639 196.887L372.562 206.654L370.907 206.579L367.713 196.482ZM378.534 196.973L380.111 197.045L379.659 206.976L378.083 206.905L378.534 196.973ZM380.414 192.971L380.314 195.178L378.501 195.096L378.601 192.889L380.414 192.971ZM386.603 207.292C385.973 207.263 385.427 207.113 384.965 206.842C384.517 206.572 384.172 206.194 383.931 205.709C383.703 205.225 383.603 204.667 383.631 204.037L383.878 198.618L381.809 198.524L381.872 197.125L383.941 197.219L384.085 194.047L385.662 194.118L385.518 197.291L388.572 197.429L388.508 198.828L385.454 198.69L385.21 204.069C385.185 204.621 385.303 205.061 385.564 205.388C385.84 205.704 386.227 205.873 386.726 205.895L388.184 205.962L388.121 207.361L386.603 207.292ZM392.641 207.803L389.477 197.471L391.113 197.545L393.525 205.73L396.65 197.796L398.285 197.871L392.686 211.596L391.11 211.525L392.641 207.803Z" fill="#121010"/>
<g clip-path="url(#clip3_51_755)">
<path d="M115.171 202.942L109.684 202.747L109.524 207.231L115.012 207.426L115.171 202.942Z" fill="#FA4968"/>
<path d="M125.266 198.817L119.778 198.623L119.46 207.584L124.947 207.779L125.266 198.817Z" fill="#FFB95C"/>
<path d="M135.366 194.519L129.879 194.324L129.396 207.937L134.883 208.132L135.366 194.519Z" fill="#6CD8D5"/>
<path d="M145.224 197.081L139.736 196.886L139.331 208.29L144.819 208.485L145.224 197.081Z" fill="#ABB734"/>
<path d="M155.542 186.655L150.054 186.46L149.267 208.643L154.754 208.837L155.542 186.655Z" fill="#D9BAA8"/>
<path d="M115.898 196.396L131.013 185.122L136.199 189.92C136.946 190.608 138.088 190.62 138.847 189.948L150.412 179.676L152.463 181.954L152.814 175.14L146.001 174.789L148.038 177.052L137.569 186.381L132.475 181.68C131.777 181.037 130.724 180.978 129.961 181.548L113.794 193.563C113.024 194.133 112.855 195.211 113.402 195.994C113.97 196.808 115.106 196.994 115.898 196.396Z" fill="#DDEDEB"/>
<path d="M124.522 165.868C123.515 165.12 122.383 164.614 121.206 164.353C120.914 165.209 120.282 165.791 119.577 165.766C118.872 165.741 118.283 165.116 118.052 164.241C116.852 164.417 115.687 164.842 114.63 165.517C115.023 166.332 114.993 167.182 114.473 167.666C113.961 168.15 113.104 168.119 112.319 167.669C111.57 168.676 111.064 169.808 110.804 170.992C111.652 171.284 112.234 171.916 112.216 172.621C112.191 173.326 111.566 173.916 110.699 174.147C110.875 175.339 111.299 176.511 111.975 177.561C112.782 177.168 113.64 177.199 114.124 177.718C114.607 178.237 114.577 179.095 114.127 179.872C115.134 180.621 116.266 181.127 117.443 181.387C117.735 180.531 118.367 179.95 119.072 179.975C119.777 180 120.366 180.625 120.597 181.499C121.79 181.323 122.955 180.899 124.012 180.223C123.619 179.409 123.649 178.558 124.168 178.075C124.688 177.591 125.538 177.621 126.323 178.071C127.071 177.064 127.577 175.932 127.838 174.748C126.989 174.456 126.408 173.824 126.426 173.119C126.451 172.414 127.076 171.825 127.943 171.593C127.767 170.401 127.342 169.229 126.667 168.179C125.859 168.572 125.002 168.542 124.518 168.022C124.042 167.503 124.072 166.646 124.522 165.868Z" fill="#559AFF"/>
<path d="M122.53 174.407C121.682 176.174 119.559 176.928 117.792 176.08C116.024 175.231 115.277 173.109 116.126 171.341C116.975 169.574 119.097 168.82 120.865 169.668C122.632 170.517 123.379 172.639 122.53 174.407Z" fill="#F4F4F4"/>
<g opacity="0.4">
<path d="M114.306 171.757C114.255 171.755 114.205 171.746 114.154 171.73C113.867 171.632 113.71 171.328 113.808 171.041C114.265 169.652 115.26 168.458 116.537 167.768C116.804 167.625 117.135 167.724 117.278 167.991C117.422 168.258 117.322 168.589 117.055 168.733C116.024 169.293 115.218 170.254 114.844 171.383C114.762 171.62 114.539 171.765 114.306 171.757ZM114.126 174.378C113.879 174.369 113.66 174.186 113.611 173.93C113.556 173.63 113.522 173.352 113.517 173.082C113.506 172.784 113.74 172.53 114.046 172.519C114.345 172.508 114.599 172.742 114.61 173.048C114.617 173.267 114.645 173.494 114.687 173.735C114.742 174.028 114.543 174.32 114.25 174.375C114.206 174.373 114.17 174.379 114.126 174.378Z" fill="white"/>
</g>
<path d="M140.885 163.924C140.119 163.351 139.252 162.964 138.357 162.772C138.13 163.419 137.656 163.868 137.118 163.849C136.58 163.83 136.131 163.355 135.951 162.687C135.044 162.822 134.152 163.147 133.348 163.657C133.646 164.278 133.623 164.925 133.231 165.297C132.825 165.668 132.178 165.645 131.579 165.304C131.006 166.07 130.626 166.937 130.427 167.832C131.074 168.059 131.522 168.533 131.503 169.078C131.484 169.616 131.01 170.065 130.341 170.245C130.476 171.159 130.801 172.044 131.311 172.848C131.926 172.55 132.58 172.573 132.952 172.965C133.316 173.356 133.3 174.01 132.959 174.61C133.724 175.183 134.591 175.57 135.487 175.762C135.713 175.115 136.188 174.666 136.726 174.685C137.263 174.704 137.712 175.179 137.892 175.847C138.8 175.712 139.692 175.387 140.496 174.877C140.198 174.255 140.221 173.609 140.612 173.237C141.004 172.872 141.658 172.888 142.257 173.23C142.83 172.464 143.21 171.597 143.409 170.702C142.762 170.475 142.314 170.001 142.333 169.455C142.352 168.918 142.826 168.469 143.495 168.289C143.36 167.374 143.035 166.489 142.525 165.685C141.903 165.991 141.256 165.968 140.884 165.569C140.52 165.177 140.536 164.523 140.885 163.924Z" fill="#FA4968"/>
<path d="M139.365 170.442C138.72 171.794 137.099 172.363 135.754 171.718C134.401 171.073 133.833 169.452 134.485 168.1C135.13 166.747 136.751 166.179 138.096 166.824C139.442 167.468 140.01 169.089 139.365 170.442Z" fill="#F4F4F4"/>
<g opacity="0.4">
<path d="M143.523 203.359C143.225 203.348 142.987 203.092 142.997 202.794L143.114 199.517C143.124 199.219 143.38 198.98 143.678 198.991C143.976 199.001 144.215 199.257 144.204 199.555L144.088 202.833C144.077 203.131 143.828 203.37 143.523 203.359ZM143.445 205.561C143.147 205.551 142.909 205.295 142.919 204.997L142.942 204.357C142.953 204.059 143.208 203.821 143.506 203.831C143.804 203.842 144.043 204.098 144.032 204.396L144.01 205.035C143.999 205.341 143.75 205.572 143.445 205.561Z" fill="white"/>
</g>
</g>
</g>
<rect x="94.6396" y="148.467" width="342.591" height="77.492" rx="10.5671" transform="rotate(2.6014 94.6396 148.467)" stroke="#D9EDFF" stroke-width="1.40895"/>
</g>
</g>
<defs>
<filter id="filter0_d_51_755" x="32.9918" y="261.676" width="462.016" height="213.588" filterUnits="userSpaceOnUse" color-interpolation-filters="sRGB">
<feFlood flood-opacity="0" result="BackgroundImageFix"/>
<feColorMatrix in="SourceAlpha" type="matrix" values="0 0 0 0 0 0 0 0 0 0 0 0 0 0 0 0 0 0 127 0" result="hardAlpha"/>
<feOffset dy="5.63578"/>
<feGaussianBlur stdDeviation="28.4607"/>
<feComposite in2="hardAlpha" operator="out"/>
<feColorMatrix type="matrix" values="0 0 0 0 0.892405 0 0 0 0 0.809639 0 0 0 0 1 0 0 0 1 0"/>
<feBlend mode="normal" in2="BackgroundImageFix" result="effect1_dropShadow_51_755"/>
<feBlend mode="normal" in="SourceGraphic" in2="effect1_dropShadow_51_755" result="shape"/>
</filter>
<filter id="filter1_d_51_755" x="33.995" y="183.714" width="460.01" height="202.804" filterUnits="userSpaceOnUse" color-interpolation-filters="sRGB">
<feFlood flood-opacity="0" result="BackgroundImageFix"/>
<feColorMatrix in="SourceAlpha" type="matrix" values="0 0 0 0 0 0 0 0 0 0 0 0 0 0 0 0 0 0 127 0" result="hardAlpha"/>
<feOffset dy="5.63578"/>
<feGaussianBlur stdDeviation="28.4607"/>
<feComposite in2="hardAlpha" operator="out"/>
<feColorMatrix type="matrix" values="0 0 0 0 0.892405 0 0 0 0 0.809639 0 0 0 0 1 0 0 0 1 0"/>
<feBlend mode="normal" in2="BackgroundImageFix" result="effect1_dropShadow_51_755"/>
<feBlend mode="normal" in="SourceGraphic" in2="effect1_dropShadow_51_755" result="shape"/>
</filter>
<filter id="filter2_d_51_755" x="35.0786" y="15.4207" width="459.407" height="199.868" filterUnits="userSpaceOnUse" color-interpolation-filters="sRGB">
<feFlood flood-opacity="0" result="BackgroundImageFix"/>
<feColorMatrix in="SourceAlpha" type="matrix" values="0 0 0 0 0 0 0 0 0 0 0 0 0 0 0 0 0 0 127 0" result="hardAlpha"/>
<feOffset dy="5.63578"/>
<feGaussianBlur stdDeviation="28.4607"/>
<feComposite in2="hardAlpha" operator="out"/>
<feColorMatrix type="matrix" values="0 0 0 0 0.892405 0 0 0 0 0.809639 0 0 0 0 1 0 0 0 1 0"/>
<feBlend mode="normal" in2="BackgroundImageFix" result="effect1_dropShadow_51_755"/>
<feBlend mode="normal" in="SourceGraphic" in2="effect1_dropShadow_51_755" result="shape"/>
</filter>
<filter id="filter3_d_51_755" x="33.4653" y="96.4453" width="461.069" height="208.276" filterUnits="userSpaceOnUse" color-interpolation-filters="sRGB">
<feFlood flood-opacity="0" result="BackgroundImageFix"/>
<feColorMatrix in="SourceAlpha" type="matrix" values="0 0 0 0 0 0 0 0 0 0 0 0 0 0 0 0 0 0 127 0" result="hardAlpha"/>
<feOffset dy="5.63578"/>
<feGaussianBlur stdDeviation="28.4607"/>
<feComposite in2="hardAlpha" operator="out"/>
<feColorMatrix type="matrix" values="0 0 0 0 0.892405 0 0 0 0 0.809639 0 0 0 0 1 0 0 0 1 0"/>
<feBlend mode="normal" in2="BackgroundImageFix" result="effect1_dropShadow_51_755"/>
<feBlend mode="normal" in="SourceGraphic" in2="effect1_dropShadow_51_755" result="shape"/>
</filter>
<linearGradient id="paint0_linear_51_755" x1="297.728" y1="344.496" x2="332.998" y2="402.6" gradientUnits="userSpaceOnUse">
<stop stop-color="#A3D3FF"/>
<stop offset="1" stop-color="#E5F2FF"/>
</linearGradient>
<linearGradient id="paint1_linear_51_755" x1="252.664" y1="325.342" x2="295.642" y2="395.486" gradientUnits="userSpaceOnUse">
<stop stop-color="#A3D3FF"/>
<stop offset="1" stop-color="#E5F2FF"/>
</linearGradient>
<linearGradient id="paint2_linear_51_755" x1="203.101" y1="307.405" x2="252.771" y2="389.862" gradientUnits="userSpaceOnUse">
<stop stop-color="#A3D3FF"/>
<stop offset="1" stop-color="#E5F2FF"/>
</linearGradient>
<linearGradient id="paint3_linear_51_755" x1="241.809" y1="106.599" x2="206.699" y2="48.3998" gradientUnits="userSpaceOnUse">
<stop stop-color="#A3D3FF"/>
<stop offset="1" stop-color="#E5F2FF"/>
</linearGradient>
<linearGradient id="paint4_linear_51_755" x1="286.821" y1="125.877" x2="244.035" y2="55.6158" gradientUnits="userSpaceOnUse">
<stop stop-color="#A3D3FF"/>
<stop offset="1" stop-color="#E5F2FF"/>
</linearGradient>
<linearGradient id="paint5_linear_51_755" x1="336.335" y1="143.949" x2="286.89" y2="61.3575" gradientUnits="userSpaceOnUse">
<stop stop-color="#A3D3FF"/>
<stop offset="1" stop-color="#E5F2FF"/>
</linearGradient>
<clipPath id="clip0_51_755">
<rect x="19" y="14" width="490" height="429" rx="14.0143" fill="white"/>
</clipPath>
<clipPath id="clip1_51_755">
<rect width="43" height="43" fill="white" transform="translate(114.337 330.961) rotate(2.91768)"/>
</clipPath>
<clipPath id="clip2_51_755">
<rect x="93.9678" y="147.731" width="344" height="78.901" rx="11.2716" transform="rotate(2.6014 93.9678 147.731)" fill="white"/>
</clipPath>
<clipPath id="clip3_51_755">
<rect width="48" height="48" fill="white" transform="translate(109.809 160.485) rotate(2.03373)"/>
</clipPath>
</defs>
</svg>
